<?xml version="1.0" encoding="UTF-8"?>
<svg id="a" xmlns="http://www.w3.org/2000/svg" version="1.1" viewBox="0 0 821.9 300">
  <!-- Generator: Adobe Illustrator 29.4.0, SVG Export Plug-In . SVG Version: 2.1.0 Build 152)  -->
  <defs>
    <style>
      .st0 {
        fill: #938230;
      }

      .st1 {
        fill: #003825;
      }
    </style>
  </defs>
  <path class="st0" d="M821.3,20c-3.7-10.1-17.3-6.6-27.2-7.6-9-.9-13-.1-21.9-1.9-9-1.8-5.6-9.4-15.5-3-5.2,3.4-9.8,7.6-14.8,11.5-2.2-6.4-1.3-14-6.1-17.4-3.1-2.2-8.1-2-11.2,0-18.5,11.6-25.6,25.4-31,44.1-3.3-2-5-2.7-6.3-4-11.8-11.4-17.1-11-25.5,3.4-9.7,16.7-10.2,28.8-8.4,44.8-15.1-6.2-19.7,6.4-25,18.1-4.8,10.6-9,21.4-14,31.8-3.5,7.3-8.6,13.4-18,12.6,0,5.2-.2,10.5.2,15.7,0,.9,3.1-5,4.6-4.2,1.8-12.2,12.5-15.2,25.5-17.8,10.9-2.2,22.2-2.2,33.4-2.4,23.1-.4,19.8,4.9,21.3-10.3,8.9,3.1,16.1,6.2,23.6,8.2,5.7,1.5,11.9,2.9,17.7,2.2,28-3.4,16.7-16.2,10.7-24.5,7.6.7,14.3,1.6,21,2,12.8.7,24.7-1.3,33.7-11.7,8-9.3,7.2-12.7-4-18.3-1.6-.8-4.8-3.9-7.3-5.4,10.8.7,14.9-.4,19.8-2.7,19.2-8.9,11.1-8,9.3-18.9-.9-5.6,3.8-12,6.8-18.3,4.2-8.7,11.2-18.8,8.6-26.1h0ZM802.1,28.4c-16.1,9.6-31.5,20.3-47,30.9-.7.5-1.5,1-2.2,1.5,5.7,4,13,4.9,19.7,6.4,7,1.3,14,2.4,21,3.5.1,0,0,.2,0,.2-7-1-14.1-2.1-21-3.4-6.8-1.5-14.2-2.3-20-6.4-13.6,9.4-27.3,18.7-41.1,27.7,5.5,2.2,11.7,3.2,17.5,4.1,18.3,2.6,36.8,4.1,54.7,8.9,0,0,0,.2,0,.1-17.9-4.8-36.4-6.2-54.7-8.7-6.1-.9-12.2-1.8-18-4,0,0,0,0,0,0-11.6,7.6-23.2,15-35,22.2,1.9,0,3.9,0,5.8.2,7,1.1,13.2,4.7,19.6,7.6,8.4,4.1,16.5,8.8,24.5,13.5,0,0,0,.2,0,.2-8.1-4.7-16.2-9.3-24.6-13.3-6.3-2.9-12.5-6.4-19.5-7.4-2.2-.3-4.5,0-6.8-.2-4.6,2.8-9.2,5.6-13.9,8.4-3.9,2.3-7.9,4.7-11.8,7,4.8.2,9.8.7,14,3,2.4,1.2,4.7,2.6,6.9,4,2.2,1.5,4.6,2.9,6,5.2,0,0,0,.1,0,0-1.4-2.3-3.9-3.6-6-5.1-4.5-2.8-9.1-5.6-14.5-6.2-2.4-.3-4.8-.6-7.2-.5-7.9,4.6-15.8,9.2-23.7,13.8-4.1,2.3-8.2,4.5-12.4,6.6-.1,0-.3,0-.4-.1,0-.1,0-.3,0-.4,6.7-4.5,17.1-10.3,24.1-14.4,5.6-3.2,11.2-6.5,16.7-9.7.9-2.4.8-5.1.6-7.6-.2-2.7-.7-5.3-1.6-7.9-1.7-5.1-3.6-10.1-5.7-15.1,0,0,0,0,0,0,2.1,4.9,4.1,9.9,5.9,15,.9,2.5,1.5,5.2,1.7,7.9.2,2.4.4,4.8-.3,7.2,7.8-4.5,15.5-9.1,23.2-13.7-1.7-9.8,2.4-19.5,3.1-29.2.3-9.9-1.5-20-4.7-29.4,0,0,0,0,0,0,3.3,9.4,5.2,19.5,5,29.5-.5,7.5-2.8,14.7-3.2,22.2-.1,2.2,0,4.4.4,6.6,10.4-6.3,20.8-12.7,31-19.3,1.2-.7,2.3-1.5,3.5-2.2.2-6.1,1.6-12.1,3.8-17.8,2.2-5.8,4.7-11.5,6.1-17.5,3.1-12,4.9-24.3,5.3-36.7,0,0,0,0,0,0-.6,15.4-2.8,31-7.7,45.6-2.1,5.8-4.7,11.5-5.9,17.5-.6,2.8-.9,5.5-1,8.3,12.9-8.3,25.6-17,38.3-25.6-1.9-12.2,5.1-37.5,10.6-48.7,0,0,0,0,0,0-5.3,11.1-12,36-10.2,48.3,16.8-11.4,33.7-22.7,51.1-33,0,0,0,0,0,0h0Z"/>
  <g id="liner">
    <path class="st0" d="M65.9,191.4c-4.6,0-12-.4-19.3-1.1h-2.3c-6-.5-11.7-.9-14.4-.9-7.2,0-13.2.2-17.9.7-2.5.1-4.5.3-6,.5-1.2.1-2.1.2-2.8.2-1.9,0-3.2-1.3-3.2-3.2s1.2-2.4,2.2-2.7c4.9-1.6,14.9-2.4,18-2.6.8-15.1.8-44.3.8-63.8s0-48.5-.8-63.5c-3-.2-13.1-1.1-18-2.6-1.1-.4-2.2-1.4-2.2-2.7s1.3-3.2,3.2-3.2,4,.3,8.3.7c.9,0,1.9,0,3,.2,4.2.2,9.5.5,15.3.5s12-.4,20.1-1.1c7.9-.4,16-.9,20.5-.9,20.6,0,44.6,9.2,44.6,35.1s-15.7,31-30.3,37.4c28.1,3.8,34.1,19.2,34.1,31.7,0,27-27.2,41.5-52.8,41.5h0ZM29.8,187.4c2.8,0,8.2.3,14.6.7h2.3c0,.1,0,.1,0,.1,7.2.7,14.7,1.1,19.2,1.1,24.7,0,50.8-13.9,50.8-39.5s-19.2-28.4-35.2-30c-.5,0-.9-.5-.9-1v-.4c0-.4.2-.8.6-.9,14.8-6.2,31.7-15.9,31.7-36.7s-23-33.1-42.6-33.1-12.5.5-20.3.9c-8.1.7-16,1.1-20.2,1.1s-11.1-.3-15.4-.5c-1.1,0-2.1-.1-3.1-.2-4.8-.5-7.6-.7-8.1-.7s-1.2.4-1.2,1.2.5.7.9.8c5.5,1.7,17.8,2.6,18.4,2.6.5,0,.9.4.9.9.9,14.9.9,43.6.9,64.5s0,49.9-.9,64.8c0,.5-.4.9-.9.9-.5,0-12.9.9-18.4,2.6-.4.1-.9.5-.9.8,0,.8.4,1.2,1.2,1.2s1.4,0,2.6-.2c1.5-.1,3.5-.3,6-.5,4.6-.4,10.7-.7,18-.7h0ZM60.4,186.3c-4.8,0-18-1.1-23-2.2-.4-.1-.8-.5-.8-.9-.9-14.9-.9-44.7-.9-60.8s.5-1,1-1h7.3c19.9,0,57.1,0,57.1,32s-4.3,18.8-12.5,24.7c-7.3,5.3-17.3,8.2-28.1,8.2h0ZM38.5,182.3c5.3,1.1,17.3,2,21.9,2,26.7,0,38.7-15.5,38.7-30.9,0-30-34.5-30-55-30h-6.3c0,15.9,0,44.1.8,58.9h0ZM44,118.3h-7.3c-.5,0-1-.4-1-1,0-19.3,0-48.6.9-63.4,0-.4.3-.8.7-.9,4.2-1.3,14.4-2.3,20.9-2.3,10.8,0,20.8,3,28.2,8.5,8.6,6.3,13.1,15.6,13.1,26.9,0,32.2-38.9,32.2-55.5,32.2h0ZM37.7,116.3h6.3c11.2,0,24-.5,34.5-4.3,12.8-4.7,19-13.2,19-25.9,0-23-19.8-33.3-39.3-33.3s-15.3.8-19.7,2c-.8,14.8-.8,42.6-.8,61.6Z"/>
    <path class="st0" d="M159,190.8c-.6,0-1.5-.1-3-.3-3.4-.4-9.2-1.1-16.7-1.1s-13.3.7-16.7,1.1c-1.5.2-2.4.3-3,.3-3.1,0-3.4-1.8-3.4-2.6,0-1.8,1-2.9,3-3.2,3.2-1.1,7.9-1.9,11.9-2.6.4-6.2.6-21.1.6-27.7s-.2-22.6-.4-29.3c-1.6,0-3.5.1-5.6.2-2.8.1-5.6.2-8.1.2s-2.8-1.3-2.8-2.6c0-2.7,3.1-3.3,8.8-4.4,1.7-.3,3.6-.7,5.7-1.2,3.7-.9,6.9-1.8,9.5-2.5,3.5-1,5.3-1.5,6.2-1.5,2.8,0,2.8,2.8,2.8,3.9s0,1.9-.1,2.9c0,1.3-.1,2.6-.1,3.9-.2,6.1-.4,23.6-.4,30.4s.2,21.5.6,27.7c5.3.9,9.1,1.7,11.7,2.5,2,.3,3,1.4,3,3.2s-.3,2.6-3.4,2.6h0ZM139.2,187.4c7.6,0,13.4.7,16.9,1.1,1.3.1,2.3.3,2.8.3,1.4,0,1.4-.4,1.4-.6,0-.6,0-1-1.4-1.2,0,0-.1,0-.2,0-2.6-.9-6.6-1.7-12.2-2.6-.5,0-.8-.4-.8-.9-.4-5.7-.7-21.7-.7-28.7s.2-24.3.4-30.4c0-1.3,0-2.7.1-4,0-1.1.1-2.1.1-2.9,0-1.9-.4-1.9-.8-1.9-.7,0-3,.7-5.7,1.4-2.6.7-5.8,1.6-9.6,2.6-2.2.5-4.1.9-5.8,1.2-3.9.8-7.2,1.4-7.2,2.5s.3.6.8.6c2.4,0,5.3-.1,8-.2,2.5-.1,4.8-.2,6.6-.2s1,.4,1,1c.2,5.9.4,23.8.4,30.4s-.2,23-.7,28.7c0,.5-.4.8-.8.9-4.1.6-9.2,1.5-12.5,2.6,0,0-.1,0-.2,0-1.3.2-1.4.6-1.4,1.2s0,.6,1.4.6,1.5-.1,2.8-.3c3.5-.4,9.3-1.1,17-1.1h0ZM137.7,82.6c-6.1,0-11.2-5.1-11.2-11.2s5.1-11.2,11.2-11.2,11.2,5.1,11.2,11.2-5.1,11.2-11.2,11.2ZM137.7,62.3c-5,0-9.2,4.2-9.2,9.2s4.2,9.2,9.2,9.2,9.2-4.2,9.2-9.2-4.2-9.2-9.2-9.2Z"/>
    <path class="st0" d="M192,233.7c-11,0-26.2-5.7-26.2-16.3s5.2-13.8,8.7-18.5c.3-.4.5-.7.8-1.1-4.8-1.1-10.8-2.9-10.8-10.6s6.9-14.1,10.6-17.9c-4.6-3.7-11.2-9.6-11.2-20.5,0-19.6,21-34.2,39.8-34.2s11.3.8,17.5,4.8c.1-.2.3-.4.5-.5,1.2-1.5,2.5-3,2.5-4.6,0-3.1-1.8-4.8-3.7-6.6-1.8-1.7-3.7-3.5-3.7-6.5,0-4.4,3-7.4,7.4-7.4s10.5,2.2,10.5,12.5-4.1,12.4-8.6,16.4c3.5,3.5,8.9,8.7,8.9,18.6,0,17.6-18.9,34.2-38.9,34.2s-11.3-1-15.7-3.1c-1.5,1.7-4.4,5.5-4.4,8.1s15.3,3.4,25.4,3.7c7,.2,14.3.5,19.4,1.2,6.3.9,13.5,3.2,13.5,13.4,0,19.1-18.9,34.7-42.2,34.7h0ZM203.5,116.8c-17.8,0-37.8,13.8-37.8,32.2s5.6,15.1,11.4,19.6c.2.2.4.4.4.7s0,.6-.3.8c-3.2,3.2-10.8,10.8-10.8,17.2s5.3,7.8,10.1,8.8l.7.2c.3,0,.6.3.7.6.1.3,0,.7-.1.9-.5.7-1.1,1.5-1.7,2.3-3.3,4.5-8.3,11.2-8.3,17.3,0,9.2,14.3,14.3,24.2,14.3,22.2,0,40.2-14.7,40.2-32.7s-3.4-10.2-11.8-11.4c-5-.8-12.2-1-19.2-1.2-16.9-.6-27.3-1.1-27.3-5.7s3.4-7.7,5.4-10c.3-.3.8-.4,1.2-.2,4.3,2.1,9.5,3.2,15.5,3.2,19,0,36.9-15.7,36.9-32.2s-5-13.9-8.3-17.2l-.8-.7c-.2-.2-.3-.5-.3-.7,0-.3.1-.5.3-.7l.4-.3c4.5-4.1,8.4-7.6,8.4-15.3s-2.8-10.5-8.5-10.5-5.4,2.1-5.4,5.4,1.4,3.4,3,5c2,1.9,4.3,4.1,4.3,8.1s-1.6,4.2-3,5.8c-.3.4-.7.8-1,1.2-.3.4-.9.5-1.3.2h-.1c-6-4.1-12.6-4.9-17.1-4.9h0ZM194.8,228c-9.3,0-23.1-4.3-23.1-13.6s5.1-12.4,8.2-16.2l.7-.8c.2-.2.5-.4.8-.4,34.1,0,45.5,0,45.5,9.9s-17.6,21.2-32,21.2h0ZM181.8,198.9l-.4.4c-2.7,3.3-7.8,9.6-7.8,14.9,0,8.2,13.8,11.6,21.1,11.6,13.2,0,30-9,30-19.2s-10.9-7.9-43.1-7.9ZM206.8,166.4c-14.7,0-35.1-12.8-35.1-25.4s8.6-16.9,20.5-16.9,35.1,11.4,35.1,25.6-9.2,16.7-20.5,16.7ZM192.2,126.1c-10.9,0-18.5,6.1-18.5,14.9s19.4,23.4,33.1,23.4,18.5-6.6,18.5-14.7c0-12.7-18.2-23.6-33.1-23.6Z"/>
    <path class="st0" d="M352.1,193.2c-42.1,0-73.9-31-73.9-72.1s32.5-77.2,77.2-77.2,73.9,31,73.9,72.1-32.5,77.2-77.2,77.2h0ZM355.5,45.9c-43.6,0-75.2,31.6-75.2,75.2s30.9,70.1,71.9,70.1,75.2-31.6,75.2-75.2-30.9-70.1-71.9-70.1h0ZM365.6,184.8c-35.9,0-77.6-33.8-77.6-77.4s6-28.8,16.9-39.4c10.3-10,23.8-15.7,37.1-15.7,35.9,0,77.6,33.8,77.6,77.4s-6,28.8-16.8,39.4c-10.2,10-23.8,15.7-37.1,15.7h0ZM341.9,54.3c-12.8,0-25.8,5.5-35.7,15.1-10.5,10.2-16.3,23.7-16.3,37.9,0,42.5,40.7,75.4,75.6,75.4s25.9-5.5,35.8-15.1c10.5-10.2,16.2-23.6,16.2-37.9,0-42.5-40.7-75.4-75.6-75.4h0Z"/>
    <path class="st0" d="M480.6,192.1c-2.7,0-6.3,0-6.3-4.8v-7.4c-6,4.8-16.1,12.2-26.7,12.2s-20.7-9.7-20.7-22.5,14.2-24.9,28.2-24.9,15.1,2.8,19.2,4.4c0-17.3-.9-22.8-13.2-22.8s-14.7,2.9-19.4,5.1c-2.8,1.3-4.9,2.2-6.5,2.2s-3.2-1.4-3.2-3c0-5.3,22.7-15.8,34.2-15.8s23.8,7.1,23.8,22.3,0,16.3-.1,22.6c0,3.9,0,7.1,0,8.9,0,5.8,0,11.2,2.3,11.2s6.3-2.6,8.7-4.6c1.7-1.4,2.9-2.3,3.9-2.3s2.3,1,2.3,2.6c0,4.4-13.2,16.7-26.5,16.7h0ZM475.3,176.8c.1,0,.3,0,.4.1.4.2.6.5.6.9v9.5c0,2.4.9,2.8,4.3,2.8,12.9,0,24.5-12,24.5-14.7s-.2-.6-.3-.6c-.4,0-1.6,1.1-2.6,1.9-2.6,2.1-6.3,5-10,5s-4.3-6.1-4.3-13.2,0-4.9,0-8.9c0-6.3.1-14.9.1-22.6,0-14-6.7-20.3-21.8-20.3s-32.2,10.7-32.2,13.8.6,1,1.2,1c1.2,0,3.3-.9,5.7-2,4.9-2.2,11.6-5.3,20.3-5.3,15.2,0,15.2,9.3,15.2,26.3s-.2.6-.4.8-.6.2-.9.1c-3.3-1.3-12-4.8-19.8-4.8-13,0-26.2,7.9-26.2,22.9s8,20.5,18.7,20.5,21.2-8.3,26.8-12.8l.3-.2c.2-.1.4-.2.6-.2h0ZM455.1,183.4c-8.8,0-14.7-6.5-14.7-16.1s6.4-17.6,18.1-17.6,11.2,1.9,15.8,3.7l1.4.6c.4.1.6.5.6.9v17.1c0,.3-.1.6-.4.8l-1.1.9c-4.7,4.1-11.1,9.7-19.8,9.7h0ZM458.5,151.8c-10.5,0-16.1,5.4-16.1,15.6s5,14.1,12.7,14.1,13.7-5.1,18.4-9.2l.7-.6v-15.9l-.8-.3c-4.6-1.8-9-3.6-15-3.6h0Z"/>
    <path class="st0" d="M580.8,192.1h-.3c-14-.4-35.8-23.2-46.2-34.2l-1.7-1.7c-.2-.2-.3-.6-.2-.9s.3-.6.7-.7l16.4-4.9c.4-.1.8,0,1.1.3l4.1,5c0,.1.2.1.3.1,9.5-3.6,22-8.6,22-20s-4.6-10.3-12.5-10.3-15,3.1-19.8,5.3c-2.7,1.3-4.6,2.2-6.2,2.2s-3-1.3-3-2.8c0-5.9,26.7-14.7,37.5-14.7s19.8,7,19.8,15.6c0,13.6-16.2,21.9-30.3,27.7-.8.3-1.7.6-2.5.9l-.4,1.7c1.8,1.9,3.9,4.2,6,6.6,6.5,7.2,14.5,16.2,18.1,16.2h0c.4,0,.7-.1.9-.4,4.3-4.9,5.6-11.6,6.2-17.9.6-6.7.2-8.3-.8-13.7,0-.2.1-.4.3-.4,0,0,4.7.5,6.3.7.2,0,.6,0,.9,0,3,.1,5.5-.2,7-.8.8-.3-2.8,10.5-2.8,10.8-1.6,5.4-.8,15.8-9.7,27.1-2.6,3.2-7.7,3.1-11.1,3.1h0ZM535.1,155.9l.5.6c10.3,10.8,31.6,33.3,44.8,33.6,3,0,7.2.3,9.4-2.2,9.5-10.8,7.5-25.4,11-31.2.7-1.1-.8-1.7-1-1.8-.6-.3-1.3-.5-2.4-.5-.5,0-1.4-.1-1.4-.1-.8,0-2.8,0-2.8,0-.3,0-.5.2-.5.5,0,2.8.8,3.8,0,10.3-1.1,9-2.1,14.1-6.8,19.5-.6.7-1.4,1.1-2.4,1.1h0c-4.5,0-12.2-8.6-19.6-16.8-3-3.4-5.9-6.6-8.2-8.8-.2-.2-.4-.6-.3-.9,0-.3.3-.6.6-.7.9-.3,1.8-.7,2.8-1,.9-.3,1.9-.7,2.8-1,13.5-5.6,29-13.5,29-25.9s-8-13.6-17.8-13.6-35.5,9.3-35.5,12.7.4.8,1,.8c1.1,0,3-.9,5.3-2,4.7-2.2,11.7-5.5,20.6-5.5s14.5,4.6,14.5,12.3c0,13-13.8,18.3-23.9,22.1-.5.2-1.1,0-1.5-.4l-4-4.9c0-.1-.2-.1-.3-.1l-14,4.2h0ZM543.7,190.8c-.6,0-1.5-.1-3-.3-3.5-.4-9.2-1.1-16.7-1.1s-13.3.7-16.7,1.1c-1.5.2-2.4.3-3,.3-3.1,0-3.4-1.8-3.4-2.6,0-1.8,1-2.9,3-3.2,3.1-1,7.7-1.9,11.6-2.5.2,0,.2-.1.2-.3.4-23.6.6-59.6.6-76.9s-.2-21.3-.5-33.5c-.2-12.1-.4-23.6-.4-31.5s-1.1-9.2-3.4-9.2-4.4,1.3-6.2,2.5c-1.5.9-2.7,1.7-3.9,1.7s-2.5-1.2-2.5-3c0-4.2,19.4-15.6,28.7-15.6s5,4.4,5,7.9c0,5.1-.2,18.7-.5,33.1-.3,17.9-.6,38.2-.6,47.5,0,17.6,0,53.8.4,76.9,0,.1.1.3.2.3,3.9.6,8.5,1.5,11.6,2.5,2,.3,3,1.4,3,3.2s-.3,2.6-3.4,2.6h0ZM524,187.4c7.6,0,13.5.7,17,1.1,1.3.1,2.3.3,2.8.3,1.4,0,1.4-.4,1.4-.6,0-.6,0-1-1.4-1.2,0,0-.1,0-.2,0-3.3-1.1-8.4-2-12.5-2.6-.5,0-.8-.5-.8-1-.4-23.1-.4-60.2-.4-78s.3-29.7.6-47.6c.2-14.4.5-28,.5-33.1s-.3-5.9-3-5.9c-9.5,0-26.5,11.2-26.7,13.6,0,1,.4,1,.5,1,.6,0,1.8-.7,2.9-1.4,2-1.2,4.4-2.8,7.3-2.8s5.4.8,5.4,11.2.2,19.3.4,31.4c.2,12.2.5,24.8.5,33.5,0,17.5-.2,54.4-.7,78,0,.5-.4.9-.8,1-4.1.6-9.2,1.5-12.5,2.6,0,0-.1,0-.2,0-1.3.2-1.4.6-1.4,1.2s0,.6,1.4.6,1.5-.1,2.8-.3c3.5-.4,9.3-1.1,16.9-1.1h0Z"/>
  </g>
  <g id="core">
    <path class="st1" d="M46.6,189.3c-7.1-.4-13.7-.9-16.8-.9-7.3,0-13.3.2-18,.7-4.4.2-7.3.7-8.6.7s-2.2-.9-2.2-2.2.9-1.6,1.5-1.8c4.9-1.6,15.3-2.4,18.6-2.7.9-14.8.9-44.3.9-64.7s0-49.6-.9-64.5c-3.3-.2-13.7-1.1-18.6-2.7-.7-.2-1.5-.9-1.5-1.8,0-1.3.9-2.2,2.2-2.2s3.5.2,8.2.7c4.7.2,11.1.7,18.4.7s12.2-.4,20.2-1.1c8-.4,16-.9,20.4-.9,20.6,0,43.6,9.1,43.6,34.1s-20.2,32.6-32.3,37.7v.4c13.3,1.3,36.1,6.7,36.1,31s-26.4,40.5-51.8,40.5-12.2-.4-19.3-1.1h0ZM44,117.3c20.2,0,54.5-1.3,54.5-31.2s-20.4-34.3-40.3-34.3-16.4.9-20.6,2.2c-.9,14.8-.9,44.1-.9,63.4h7.3ZM36.7,122.4c0,16.4,0,45.9.9,60.7,4.9,1.1,17.9,2.2,22.8,2.2,20.6,0,39.7-10.6,39.7-31.9,0-31-35.9-31-56-31h-7.3Z"/>
    <path class="st1" d="M139.2,188.4c-10.6,0-17.9,1.3-19.7,1.3s-2.4-.2-2.4-1.6.7-2,2.2-2.2c3.3-1.1,8.4-2,12.6-2.7.4-5.8.7-21.9.7-28.6s-.2-24.4-.4-30.3c-3.8,0-10,.4-14.6.4s-1.8-.9-1.8-1.6c0-2.4,5.1-2.7,13.7-4.7,8.2-2,14-4,15.5-4s1.8.9,1.8,2.9-.2,4.4-.2,6.9c-.2,6-.4,23.5-.4,30.3s.2,22.8.7,28.6c4.2.7,9.1,1.6,12.4,2.7,1.6.2,2.2.9,2.2,2.2s-1.3,1.6-2.4,1.6c-1.8,0-9.1-1.3-19.7-1.3h0ZM137.7,81.6c-5.5,0-10.2-4.7-10.2-10.2s4.6-10.2,10.2-10.2,10.2,4.6,10.2,10.2-4.6,10.2-10.2,10.2Z"/>
    <path class="st1" d="M225,114.4c0-6.7-7.3-7.8-7.3-13.1s2.7-6.4,6.4-6.4c6.4,0,9.5,4,9.5,11.5s-4.4,12.2-9.1,16.4c3.3,3.3,9.3,8.4,9.3,18.6,0,17.9-19.3,33.2-37.9,33.2s-13.7-2.2-15.9-3.3c-1.8,2-5.1,6.2-5.1,9.3,0,6,31.2,3.8,45.6,6,8,1.1,12.6,4.2,12.6,12.4,0,18.8-19.1,33.7-41.2,33.7s-25.2-5.5-25.2-15.3,7.1-15.7,10.2-20.2c-4.9-1.1-11.5-2.2-11.5-10s7.8-14.6,11.1-17.9c-5.3-4.2-11.7-9.8-11.7-20.4,0-18.8,20.2-33.2,38.8-33.2s16.4,4.2,17.7,5.1c1.6-2,3.8-4,3.8-6.4h0ZM206.8,165.4c10.9,0,19.5-7.1,19.5-15.7,0-13.3-18.4-24.6-34.1-24.6s-19.5,7.1-19.5,15.9,20.2,24.4,34.1,24.4ZM181.3,197.9c-2.7,3.3-8.6,10.2-8.6,16.4,0,8.9,14,12.6,22.1,12.6,13.3,0,31-9.1,31-20.2s-11.3-8.9-44.5-8.9Z"/>
    <path class="st1" d="M352.1,192.2c-43.6,0-72.9-32.6-72.9-71.1s29.7-76.2,76.2-76.2,72.9,32.6,72.9,71.1-29.7,76.2-76.2,76.2h0ZM418.6,129.7c0-42.5-40.5-76.4-76.6-76.4s-53,23-53,54.1,40.5,76.4,76.6,76.4,53-23,53-54.1h0Z"/>
    <path class="st1" d="M475.3,177.8c-5.5,4.4-16.4,13.3-27.7,13.3s-19.7-10-19.7-21.5c0-16.4,14.6-23.9,27.2-23.9s16.8,3.5,20.2,4.9c0-17.5-.2-25.3-14.2-25.3s-21.9,7.3-25.9,7.3-2.2-.9-2.2-2c0-4.2,21.3-14.8,33.2-14.8s22.8,6.4,22.8,21.3-.2,26.8-.2,31.5c0,6.6,0,12.2,3.3,12.2,5.3,0,10.9-6.9,12.6-6.9s1.3.7,1.3,1.6c0,3.5-12.4,15.7-25.5,15.7s-5.3-.2-5.3-3.8v-9.5h0ZM475.3,155c-5.1-2-10-4.2-16.8-4.2-11.7,0-17.1,6.4-17.1,16.6s4.9,15.1,13.7,15.1,15.3-6.2,20.2-10.4v-17.1h0Z"/>
    <path class="st1" d="M546.2,188.2c0,1.3-1.3,1.6-2.4,1.6-1.8,0-9.1-1.3-19.7-1.3s-17.9,1.3-19.7,1.3-2.4-.2-2.4-1.6.7-2,2.2-2.2c3.3-1.1,8.4-2,12.6-2.7.4-23,.7-59.8.7-78s-.9-49-.9-64.9-1.1-10.2-4.4-10.2-8,4.2-10.2,4.2-1.5-.9-1.5-2c0-3.3,18.4-14.6,27.7-14.6s4,3.3,4,6.9c0,11.3-1.1,63.6-1.1,80.6s0,54.9.4,78c4.2.7,9.3,1.6,12.6,2.7,1.5.2,2.2.9,2.2,2.2h0ZM554.4,156.3c10-3.8,23.5-8.9,23.5-21.3s-4.4-11.3-13.5-11.3c-13.3,0-22.2,7.5-25.9,7.5s-2-.9-2-1.8c0-4.7,25.5-13.7,36.5-13.7s18.8,6.4,18.8,14.6c0,13.5-17.3,21.7-29.7,26.8-1.8.7-3.8,1.3-5.5,2,8.4,8,24.5,29.6,28.8,24.6,9.1-10.6,7.3-31.1,7.3-31.1,0,0,9.3.4,9.3,1.3,0,3.3-2.4,37.8-21.5,37.1-14.4-.6-37.7-25.7-47.2-35.7l16.4-4.9,4.7,5.8h0Z"/>
  </g>
  <g>
    <g>
      <path class="st1" d="M340.2,238.8l-2.4,15.1c-3.9,2.8-9.5,4.4-15.2,4.4-11,0-17.6-5.7-17.6-15.7s9.4-20.6,22.5-20.6,9.4,1.3,12.7,3.8l-2.2,3.8c-3.2-2.3-7-3.4-10.9-3.4-10.2,0-17.4,7-17.4,16.1s5,11.8,13.3,11.8,7.3-.9,10.6-2.7l1.3-8.5h-12l.6-4h16.5,0Z"/>
      <path class="st1" d="M322.7,258.4c-11.3,0-17.8-5.8-17.8-15.9s9.5-20.8,22.7-20.8,9.4,1.3,12.8,3.8h.1c0,0-2.4,4.2-2.4,4.2h-.2c-3.1-2.3-6.7-3.4-10.8-3.4-10,0-17.2,6.7-17.2,15.9s4.8,11.6,13.1,11.6,7.2-.9,10.5-2.6l1.3-8.2h-12l.7-4.4h16.9v.2s-2.4,15.1-2.4,15.1h0c-3.9,2.8-9.5,4.5-15.3,4.5ZM327.6,222.1c-12.9,0-22.3,8.6-22.3,20.4s6.4,15.6,17.4,15.6,11.2-1.6,15-4.3l2.3-14.8h-16.1l-.6,3.7h12l-1.4,8.8h0c-3.3,1.9-6.8,2.7-10.7,2.7-8.6,0-13.5-4.4-13.5-11.9s7.4-16.3,17.6-16.3,7.7,1.1,10.8,3.3l2-3.5c-3.3-2.4-7.5-3.6-12.5-3.6h0Z"/>
    </g>
    <g>
      <path class="st1" d="M344.8,246.5c0-8.8,7-15.3,16.5-15.3s12.7,4.4,12.7,11.8-7,15.3-16.5,15.3-12.7-4.4-12.7-11.8h0ZM369.5,243.1c0-4.9-3.2-7.9-8.5-7.9s-11.7,4.9-11.7,11.1,3.2,7.9,8.5,7.9,11.7-4.9,11.7-11.1Z"/>
      <path class="st1" d="M357.5,258.4c-8,0-12.9-4.6-12.9-11.9s7-15.4,16.6-15.4,12.9,4.6,12.9,11.9-7,15.4-16.6,15.4h0ZM361.2,231.4c-9.4,0-16.3,6.4-16.3,15.1s4.8,11.6,12.6,11.6,16.3-6.4,16.3-15.1-4.8-11.6-12.6-11.6h0ZM357.8,254.4c-5.4,0-8.7-3.1-8.7-8.1s5.1-11.3,11.9-11.3,8.7,3.1,8.7,8.1-5.1,11.3-11.9,11.3h0ZM361,235.4c-6.6,0-11.5,4.7-11.5,10.9s3.1,7.7,8.3,7.7,11.5-4.7,11.5-10.9-3.1-7.7-8.3-7.7Z"/>
    </g>
    <g>
      <path class="st1" d="M383.6,221h4.4l-5.8,36.6h-4.4l5.8-36.6h0Z"/>
      <path class="st1" d="M382.4,257.8h-4.8l5.9-37h4.8l-5.9,37ZM378,257.5h4.1l5.8-36.3h-4.1l-5.8,36.3Z"/>
    </g>
    <g>
      <path class="st1" d="M403.2,229.3l-.4,2.6h10.5l-.6,3.7h-10.4l-5,31.9h-4.4l5-31.9h-7.2l.6-3.7h7.2l.5-3.2c.9-5.6,4.1-8.2,9.9-8.2s4.7.6,6.7,1.6l-1.6,3.6c-1.6-.9-3.2-1.2-4.9-1.2-3.4,0-5.2,1.6-5.7,4.9h0Z"/>
      <path class="st1" d="M397.3,267.6h-4.8v-.2s5-31.7,5-31.7h-7.2l.7-4.1h7.2l.5-3.1c.9-5.6,4.2-8.4,10-8.4s4.8.6,6.8,1.7h.1c0,0-1.8,4-1.8,4h-.2c-1.5-.9-3-1.3-4.8-1.3-3.3,0-5,1.5-5.5,4.7l-.4,2.4h10.5l-.7,4.1h-10.4l-5,31.9h0ZM393,267.3h4.1l5-31.9h10.4l.6-3.4h-10.5l.4-2.8c.5-3.4,2.5-5,5.9-5s3.3.4,4.8,1.2l1.5-3.3c-2-1-4.1-1.6-6.5-1.6-5.6,0-8.8,2.6-9.7,8.1l-.5,3.4h-7.2l-.6,3.4h7.2v.2s-5,31.7-5,31.7h0Z"/>
    </g>
    <g>
      <path class="st1" d="M429.8,242.5c0-12,9.2-20.6,22.2-20.6s9.2,1.3,12.5,3.8l-2.2,3.8c-3.2-2.3-6.9-3.4-10.7-3.4-10.1,0-17.1,7.1-17.1,16.1s4.9,11.7,13,11.7,8.6-1.3,12.4-3.8l1.5,4.1c-3.7,2.6-9.1,4-14.4,4-10.7,0-17.2-5.7-17.2-15.7h0Z"/>
      <path class="st1" d="M447,258.4c-10.9,0-17.4-5.9-17.4-15.9s9.4-20.8,22.4-20.8,9.3,1.3,12.6,3.8h.1c0,0-2.3,4.2-2.3,4.2h-.2c-3-2.3-6.6-3.4-10.6-3.4-9.8,0-17,6.7-17,16s4.7,11.5,12.8,11.5,8.4-1.2,12.3-3.8h.2c0-.1,1.7,4.3,1.7,4.3h-.1c-3.6,2.6-9,4.1-14.5,4.1h0ZM452,222.1c-12.8,0-22,8.6-22,20.4s6.2,15.6,17,15.6,10.7-1.4,14.2-3.9l-1.4-3.7c-3.9,2.5-7.9,3.7-12.3,3.7-8.4,0-13.2-4.3-13.2-11.9s7.4-16.3,17.3-16.3,7.6,1.1,10.6,3.3l2-3.5c-3.3-2.4-7.4-3.6-12.3-3.6h0Z"/>
    </g>
    <g>
      <path class="st1" d="M467.2,246.5c0-8.8,7-15.3,16.5-15.3s12.7,4.4,12.7,11.8-7,15.3-16.5,15.3-12.7-4.4-12.7-11.8h0ZM491.9,243.1c0-4.9-3.2-7.9-8.5-7.9s-11.7,4.9-11.7,11.1,3.2,7.9,8.5,7.9,11.7-4.9,11.7-11.1Z"/>
      <path class="st1" d="M480,258.4c-8,0-12.9-4.6-12.9-11.9s7-15.4,16.6-15.4,12.9,4.6,12.9,11.9-7,15.4-16.6,15.4h0ZM483.7,231.4c-9.4,0-16.3,6.4-16.3,15.1s4.8,11.6,12.6,11.6,16.3-6.4,16.3-15.1-4.8-11.6-12.6-11.6h0ZM480.2,254.4c-5.4,0-8.7-3.1-8.7-8.1s5.1-11.3,11.9-11.3,8.7,3.1,8.7,8.1-5.1,11.3-11.9,11.3h0ZM483.4,235.4c-6.6,0-11.5,4.7-11.5,10.9s3.1,7.7,8.3,7.7,11.5-4.7,11.5-10.9-3.1-7.7-8.3-7.7Z"/>
    </g>
    <g>
      <path class="st1" d="M529.5,231.9l-4.1,25.8h-4.4l.8-5.1c-3.5,3.8-7.5,5.7-11.9,5.7s-8.7-3-8.7-8,0-1.4.1-2.1l2.6-16.3h4.4l-2.5,15.7c-.1.6-.2,1.1-.2,1.6,0,3.4,1.9,5,5.7,5s7.8-2.1,11-5.4l2.7-17h4.4,0Z"/>
      <path class="st1" d="M509.9,258.4c-5.6,0-8.9-3.1-8.9-8.2s0-1.4.2-2.1l2.6-16.4h4.8v.2s-2.5,15.7-2.5,15.7c-.1.6-.1,1.1-.1,1.6,0,3.2,1.8,4.8,5.5,4.8s7.4-1.7,10.8-5.3l2.8-17.1h4.8l-4.2,26.1h-4.8l.8-4.7c-3.4,3.5-7.3,5.3-11.6,5.3h0ZM504,232l-2.5,16.1c-.1.7-.1,1.4-.1,2.1,0,5,3.1,7.8,8.5,7.8s8.4-1.9,11.8-5.6l.4-.4-.9,5.4h4.1l4.1-25.4h-4.1l-2.7,16.9h0c-3.5,3.7-7.1,5.5-11.1,5.5s-5.9-1.7-5.9-5.2,0-1.1.2-1.7l2.4-15.5h-4.1Z"/>
    </g>
    <g>
      <path class="st1" d="M555.1,231.5l-.7,4.3c-.7-.1-1.8-.1-2.5-.1-4.6,0-8.2,1.7-11.9,5.5l-2.6,16.5h-4.4l4.1-25.8h4.4l-.9,5.5c3.6-4,7.3-6.1,12.1-6.1s1.8.1,2.3.3h0Z"/>
      <path class="st1" d="M537.6,257.8h-4.8l4.2-26.1h4.8l-.8,5.1c3.6-3.9,7.4-5.8,11.9-5.8s1.7,0,2.4.3h.2s-.8,4.7-.8,4.7h-.2c-.7-.2-1.8-.2-2.4-.2-4.5,0-8,1.6-11.7,5.4l-2.6,16.6h0ZM533.2,257.5h4.1l2.6-16.4h0c3.8-3.9,7.4-5.6,12-5.6s1.6,0,2.3.1l.7-3.9c-.6-.1-1.3-.2-2.1-.2-4.6,0-8.3,1.9-12,6.1l-.4.4.9-5.9h-4.1l-4.1,25.4h0Z"/>
    </g>
    <g>
      <path class="st1" d="M554.2,254.4l2.4-3.5c3.2,2.2,6.6,3.4,11.3,3.4s8.8-1.6,8.8-4.3-1.8-2.7-8-3.2c-7.8-.7-11-2.3-11-6.7s5-8.9,13.1-8.9,8.6,1.2,11.3,3.2l-2.2,3.4c-2.3-1.8-5.6-2.7-9.6-2.7s-8.1,1.6-8.1,4.2,1.8,2.6,8.2,3.2c7.8.7,10.9,2.4,10.9,6.9s-4.9,8.8-13.6,8.8-10.2-1.4-13.4-3.9h0Z"/>
      <path class="st1" d="M567.6,258.4c-5.5,0-10-1.3-13.5-3.9h-.1c0-.1,2.6-3.8,2.6-3.8h.1c3.3,2.4,6.8,3.5,11.2,3.5s8.6-1.6,8.6-4.2-1.6-2.5-7.9-3c-8.2-.7-11.2-2.6-11.2-6.9s5.1-9.1,13.3-9.1,8.6,1.1,11.4,3.3h.1c0,.1-2.4,3.8-2.4,3.8h-.2c-2.2-1.9-5.5-2.8-9.5-2.8s-7.9,1.5-7.9,4.1,1.6,2.4,8,3c8.1.7,11.1,2.6,11.1,7s-5,9-13.8,9h0ZM554.5,254.4c3.4,2.5,7.8,3.7,13.2,3.7,8.5,0,13.4-3.1,13.4-8.6s-2.8-6-10.8-6.7c-6.2-.6-8.3-1.1-8.3-3.4s3-4.4,8.3-4.4,7.3.9,9.5,2.6l2-3.1c-2.7-2-6.5-3.1-11.1-3.1-8,0-12.9,3.3-12.9,8.7s2.8,5.8,10.9,6.5c6.1.5,8.2,1.1,8.2,3.4s-3.3,4.5-8.9,4.5-8-1-11.3-3.3l-2.2,3.2h0Z"/>
    </g>
    <g>
      <path class="st1" d="M614.8,242.4c0,1.2-.2,2.5-.4,3.8h-24.1v.3c0,5.2,3.6,7.8,9.9,7.8s6.9-1,10.2-3.2l1.3,3.8c-3.6,2.4-7.6,3.4-12,3.4-8.8,0-13.9-4.1-13.9-11.6s7-15.4,16.5-15.4,12.5,4.4,12.5,11.1h0ZM610.6,242.4c-.2-4.4-3.3-7.2-8.4-7.2s-9.4,3-11.1,7.2h19.5Z"/>
      <path class="st1" d="M599.8,258.4c-9,0-14.1-4.3-14.1-11.8s7.2-15.6,16.6-15.6,12.7,4.4,12.7,11.3-.1,2.4-.4,3.8h0c0,.1-24.1.1-24.1.1h0c0,5.1,3.4,7.7,9.7,7.7s6.7-.9,10.1-3.2h.2c0-.1,1.5,4,1.5,4h-.1c-3.5,2.4-7.5,3.5-12.1,3.5h0ZM602.3,231.4c-9.3,0-16.3,6.6-16.3,15.2s5,11.4,13.8,11.4,8.4-1.1,11.8-3.3l-1.2-3.5c-3.4,2.2-6.3,3.1-10.1,3.1-6.6,0-10.1-2.8-10.1-8v-.5h24.1c.2-1.4.3-2.6.3-3.6,0-6.7-4.8-11-12.3-11h0ZM610.8,242.6h-19.9v-.2c1.9-4.4,6.3-7.3,11.3-7.3s8.4,2.8,8.6,7.3v.2h0ZM591.3,242.2h19c-.2-4.2-3.4-6.8-8.2-6.8s-9,2.7-10.8,6.8Z"/>
    </g>
  </g>
  <path class="st0" d="M559.4,198.2c30.5-9,69.9-14.3,98.4,3.2,17.6,11,23.3,31,12,49-9.3,14.5-26.5,23.9-41.8,30.4-23.4,9.6-48.5,13.8-73.5,16-74.2,6.3-148.9,2.8-222.5-7.4-65.3-8.5-129.8-22.6-195.5-26.1-24.6-1.2-49.3-1.6-73.7,1.4-8.1,1-16.2,2.5-24,5-.4.1-.8,0-1-.5-.1-.4,0-.8.5-.9,7.8-2.8,16-4.5,24.2-5.9,74-10,148.5,2.6,221.6,13.5,85.1,13.1,171.5,20.2,257.5,13.5,20.2-1.4,40.5-4.1,60.1-9.5,15.3-4.2,30.5-9.8,43.6-19,19-14,31.1-35.8,8-52.9-19.7-13.7-45.9-14.6-69.3-12.7-8.1.8-16.2,2.1-24.3,3.7-.5.1-.7-.7-.2-.8h0Z"/>
  <path class="st0" d="M583.6,198.2c1.9,1.3-5.2,1.4-16.6,3.6-10.1,2-16.8,4-17.2,3.6-1.4-2.1,21.2-6.3,26.2-6.8,1.6-.2,6.9-.8,7.5-.4h0Z"/>
  <path class="st0" d="M212.8,263.1c52.1,8,103.9,18.4,156.5,23.2,45.6,4.6,92.3,6.6,138.1,7,6.6,0,13.2.1,19.8.3.6,0,1,.5,1,1,0,.5-.4,1-1,1-6.6.2-13.2.4-19.8.5-79.2,1-158.6-6.3-236.5-21-18.7-3.5-39.6-8-58.3-11.2-.2,0-.3-.2-.3-.4,0-.2.2-.3.4-.3h0Z"/>
  <path class="st0" d="M207.5,273c13.4,3-31.9-3.4-58.7-5-37.7-2.3-48.4-.6-48.6-1.1.1-2.2,51.4-3.6,107.1,6h.2c0,0,0,0,0,0Z"/>
</svg>