<?xml version="1.0" encoding="UTF-8"?>
<svg id="a" data-name="Layer 1" xmlns="http://www.w3.org/2000/svg" width="821.93" height="300.01" viewBox="0 0 821.93 300.01">
  <defs>
    <style>
      .b {
        fill: #938230;
      }

      .c {
        fill: #013825;
      }
    </style>
  </defs>
  <path class="b" d="M821.34,19.96c-3.65-10.13-17.31-6.61-27.25-7.62-8.95-.91-13.05-.14-21.94-1.95-9.03-1.83-5.63-9.42-15.47-2.98-5.15,3.37-9.85,7.56-14.8,11.52-2.22-6.36-1.32-14-6.08-17.38-3.06-2.17-8.07-1.99-11.25,0-18.51,11.6-25.61,25.36-30.97,44.09-3.26-2.03-5.02-2.74-6.28-3.96-11.81-11.42-17.09-11.03-25.5,3.39-9.73,16.67-10.24,28.76-8.44,44.78-15.14-6.16-19.72,6.4-24.99,18.09-4.76,10.57-9,21.39-14.04,31.83-3.53,7.32-8.57,13.38-18.05,12.6,0,5.25-.2,10.52.2,15.74.07.86,3.12-5.01,4.62-4.25,1.8-12.23,12.49-15.21,25.51-17.8,10.87-2.16,22.25-2.18,33.42-2.38,23.07-.41,19.78,4.85,21.35-10.28,8.86,3.14,16.09,6.22,23.61,8.22,5.71,1.52,11.86,2.95,17.68,2.24,27.99-3.39,16.66-16.17,10.74-24.46,7.56.73,14.27,1.61,21,1.99,12.78.72,24.72-1.32,33.67-11.71,7.98-9.26,7.21-12.66-3.98-18.29-1.56-.78-4.8-3.89-7.28-5.43,10.8.68,14.88-.44,19.75-2.7,19.24-8.95,11.14-8.03,9.34-18.86-.93-5.56,3.75-11.95,6.85-18.32,4.25-8.74,11.21-18.77,8.57-26.11ZM802.06,28.35c-16.11,9.59-31.5,20.3-46.98,30.85-.74.51-1.48,1.02-2.23,1.53,5.67,3.97,13,4.89,19.65,6.35,6.98,1.32,14,2.43,21.02,3.51.11.01.09.19-.03.17-7.03-1.04-14.06-2.1-21.05-3.38-6.82-1.47-14.16-2.27-20.03-6.36-13.59,9.39-27.27,18.66-41.09,27.71,5.5,2.18,11.66,3.18,17.49,4.07,18.27,2.57,36.78,4.07,54.65,8.92.09.02.05.17-.04.14-17.88-4.77-36.39-6.18-54.67-8.67-6.09-.89-12.21-1.85-18.05-4.02-.01,0-.02-.01-.03-.02-11.57,7.58-23.25,15-35.04,22.23,1.92.06,3.88-.03,5.84.23,7.01,1.05,13.23,4.67,19.57,7.61,8.39,4.1,16.48,8.77,24.51,13.53.1.05.01.23-.09.16-8.06-4.69-16.18-9.3-24.59-13.33-6.29-2.86-12.53-6.43-19.46-7.38-2.22-.27-4.49-.06-6.79-.19-4.61,2.82-9.23,5.62-13.88,8.37-3.93,2.35-7.89,4.66-11.84,6.98,4.81.16,9.75.73,14.04,2.97,2.36,1.24,4.67,2.58,6.91,4.02,2.16,1.51,4.62,2.88,6,5.21.03.06-.07.11-.09.04-1.38-2.26-3.87-3.63-6.01-5.09-4.51-2.76-9.12-5.64-14.5-6.16-2.38-.33-4.81-.56-7.2-.5-7.89,4.63-15.8,9.23-23.74,13.77-4.09,2.29-8.21,4.52-12.41,6.61-.14.07-.32.01-.39-.13-.07-.13-.02-.29.1-.37,6.67-4.46,17.06-10.34,24.13-14.42,5.58-3.24,11.16-6.48,16.73-9.73.93-2.36.8-5.09.64-7.61-.19-2.68-.67-5.31-1.56-7.86-1.69-5.1-3.6-10.14-5.68-15.09-.02-.04.04-.07.06-.03,2.14,4.94,4.11,9.95,5.86,15.04.92,2.54,1.45,5.21,1.67,7.9.18,2.38.38,4.83-.27,7.22,7.75-4.53,15.48-9.09,23.18-13.72-1.72-9.81,2.42-19.48,3.09-29.2.35-9.95-1.46-19.99-4.66-29.4-.01-.03.04-.06.06-.02,3.3,9.41,5.23,19.45,4.96,29.45-.55,7.5-2.8,14.73-3.24,22.23-.12,2.21-.05,4.44.39,6.59,10.43-6.27,20.79-12.66,31.02-19.26,1.16-.74,2.32-1.49,3.48-2.23.18-6.09,1.57-12.11,3.78-17.77,2.24-5.77,4.68-11.45,6.07-17.5,3.09-11.99,4.88-24.28,5.35-36.65,0-.04.07-.04.07,0-.59,15.43-2.78,30.97-7.73,45.64-2.1,5.8-4.72,11.46-5.93,17.53-.57,2.75-.88,5.54-.98,8.35,12.92-8.33,25.62-16.99,38.35-25.62-1.91-12.2,5.12-37.5,10.59-48.66.02-.04.09,0,.06.03-5.32,11.12-11.96,36.03-10.17,48.3,16.8-11.38,33.66-22.69,51.13-33.02.05-.03.09.05.04.07Z"/>
  <g>
    <g>
      <path class="c" d="M46.64,189.31c-7.09-.44-13.74-.89-16.84-.89-7.31,0-13.29.22-17.95.66-4.43.22-7.31.66-8.64.66s-2.22-.89-2.22-2.22c0-.89.89-1.55,1.55-1.77,4.87-1.55,15.29-2.44,18.61-2.66.88-14.84.88-44.31.88-64.69s0-49.63-.88-64.47c-3.32-.22-13.74-1.11-18.61-2.66-.67-.22-1.55-.89-1.55-1.77,0-1.33.89-2.22,2.22-2.22.66,0,3.54.22,8.2.66,4.65.22,11.08.66,18.39.66,4.21,0,12.18-.44,20.16-1.11,7.98-.44,15.95-.89,20.38-.89,20.6,0,43.64,9.08,43.64,34.12,0,22.82-20.16,32.57-32.35,37.66v.44c13.29,1.33,36.11,6.65,36.11,31.02,0,26.36-26.36,40.54-51.84,40.54-4.65,0-12.18-.44-19.27-1.11ZM43.98,117.31c20.16,0,54.5-1.33,54.5-31.24,0-23.71-20.38-34.34-40.32-34.34-6.2,0-16.39.89-20.6,2.22-.89,14.84-.89,44.09-.89,63.36h7.31ZM36.67,122.4c0,16.39,0,45.86.89,60.7,4.87,1.11,17.94,2.22,22.82,2.22,20.6,0,39.66-10.63,39.66-31.9,0-31.02-35.89-31.02-56.05-31.02h-7.31Z"/>
      <path class="b" d="M65.91,191.42c-4.63,0-12.04-.43-19.35-1.11l-2.33-.15c-6.02-.38-11.7-.74-14.43-.74-7.24,0-13.25.22-17.85.66-2.5.13-4.51.32-5.98.46-1.23.12-2.12.21-2.76.21-1.89,0-3.22-1.32-3.22-3.22,0-1.36,1.16-2.36,2.23-2.72,4.91-1.56,14.93-2.41,17.98-2.64.83-15.09.83-44.3.83-63.76,0-20.53,0-48.49-.83-63.53-3.05-.23-13.07-1.08-17.96-2.64-1.09-.36-2.25-1.37-2.25-2.73,0-1.89,1.32-3.22,3.22-3.22.78,0,3.96.26,8.29.67.91.04,1.94.1,3.04.16,4.22.22,9.47.5,15.25.5,4.15,0,12.03-.43,20.08-1.1,7.88-.44,16-.89,20.46-.89,20.59,0,44.64,9.2,44.64,35.12,0,20.73-15.67,30.97-30.32,37.45,28.08,3.76,34.09,19.18,34.09,31.67,0,26.98-27.22,41.54-52.84,41.54ZM29.8,187.42c2.79,0,8.24.34,14.56.74l2.34.15s.02,0,.03,0c7.15.67,14.68,1.1,19.18,1.1,24.65,0,50.84-13.86,50.84-39.54,0-21.9-19.15-28.41-35.21-30.02-.51-.05-.9-.48-.9-1v-.44c0-.4.24-.77.61-.92,14.77-6.18,31.73-15.94,31.73-36.74,0-24.44-22.97-33.12-42.64-33.12-4.41,0-12.5.45-20.33.88-8.07.67-16.02,1.11-20.22,1.11-5.83,0-11.11-.28-15.35-.51-1.1-.06-2.13-.11-3.08-.16-4.84-.46-7.57-.66-8.15-.66-.77,0-1.22.44-1.22,1.22,0,.3.47.69.87.82,5.45,1.73,17.84,2.57,18.36,2.61.5.03.9.44.93.94.89,14.87.89,43.57.89,64.53,0,19.86,0,49.88-.89,64.75-.03.5-.43.9-.93.94-.52.04-12.91.88-18.37,2.61-.39.13-.85.52-.85.82,0,.77.44,1.22,1.22,1.22.54,0,1.43-.09,2.56-.2,1.49-.14,3.53-.34,6.03-.47,4.62-.44,10.69-.67,18-.67ZM60.37,186.32c-4.84,0-18.05-1.11-23.04-2.24-.43-.1-.75-.47-.78-.92-.89-14.87-.89-44.72-.89-60.76,0-.55.45-1,1-1h7.31c19.94,0,57.05,0,57.05,32.02,0,10.25-4.33,18.8-12.51,24.74-7.27,5.27-17.26,8.17-28.14,8.17ZM38.51,182.29c5.33,1.05,17.33,2.04,21.87,2.04,26.7,0,38.66-15.52,38.66-30.9,0-30.02-34.46-30.02-55.05-30.02h-6.31c0,15.95.02,44.14.84,58.88ZM43.98,118.31h-7.31c-.55,0-1-.45-1-1,0-19.33,0-48.55.89-63.42.02-.41.3-.77.7-.89,4.22-1.33,14.4-2.26,20.9-2.26,10.83,0,20.85,3.01,28.23,8.48,8.56,6.34,13.09,15.63,13.09,26.86,0,32.24-38.89,32.24-55.5,32.24ZM37.67,116.31h6.31c11.19,0,24.03-.52,34.47-4.34,12.81-4.7,19.03-13.17,19.03-25.9,0-23.03-19.75-33.34-39.32-33.34-6.01,0-15.35.83-19.65,1.98-.83,14.76-.84,42.6-.84,61.6Z"/>
    </g>
    <g>
      <path class="c" d="M139.24,188.42c-10.63,0-17.94,1.33-19.72,1.33-1.11,0-2.44-.22-2.44-1.55s.67-1.99,2.22-2.22c3.32-1.11,8.42-1.99,12.63-2.66.44-5.76.67-21.93.67-28.58s-.22-24.37-.44-30.35c-3.77,0-9.97.44-14.62.44-1.33,0-1.77-.89-1.77-1.55,0-2.44,5.1-2.66,13.74-4.65,8.2-1.99,13.96-3.99,15.51-3.99,1.33,0,1.77.89,1.77,2.88,0,1.77-.22,4.43-.22,6.87-.22,5.98-.44,23.48-.44,30.35s.22,22.82.67,28.58c4.21.67,9.08,1.55,12.41,2.66,1.55.22,2.21.89,2.21,2.22s-1.33,1.55-2.44,1.55c-1.77,0-9.08-1.33-19.72-1.33ZM137.69,81.64c-5.54,0-10.19-4.65-10.19-10.19s4.65-10.19,10.19-10.19,10.19,4.65,10.19,10.19-4.65,10.19-10.19,10.19Z"/>
      <path class="b" d="M158.96,190.75c-.57,0-1.54-.11-3-.28-3.45-.39-9.23-1.05-16.72-1.05s-13.27.66-16.72,1.05c-1.46.17-2.43.28-3,.28-3.1,0-3.44-1.78-3.44-2.55,0-1.81,1-2.88,2.98-3.19,3.21-1.06,7.94-1.91,11.92-2.55.4-6.22.61-21.07.61-27.72,0-6.26-.2-22.64-.41-29.34-1.6.03-3.54.11-5.56.19-2.77.12-5.63.24-8.1.24-1.82,0-2.77-1.28-2.77-2.55,0-2.65,3.13-3.28,8.81-4.42,1.68-.34,3.58-.72,5.7-1.21,3.73-.91,6.95-1.81,9.53-2.54,3.53-.99,5.27-1.47,6.2-1.47,2.77,0,2.77,2.82,2.77,3.88,0,.84-.05,1.86-.1,2.95-.06,1.29-.12,2.63-.12,3.92-.22,6.08-.44,23.6-.44,30.35s.21,21.5.61,27.72c5.32.86,9.06,1.67,11.7,2.54,1.98.31,2.98,1.38,2.98,3.19,0,.77-.33,2.55-3.44,2.55ZM139.24,187.42c7.61,0,13.45.67,16.95,1.07,1.29.15,2.31.26,2.77.26,1.44,0,1.44-.39,1.44-.55,0-.64-.09-1.04-1.36-1.23-.06,0-.12-.02-.17-.04-2.63-.88-6.63-1.73-12.25-2.62-.46-.07-.81-.45-.84-.91-.44-5.7-.67-21.68-.67-28.66s.22-24.33.44-30.39c0-1.3.07-2.72.12-3.97.05-1.06.1-2.06.1-2.86,0-1.88-.38-1.88-.77-1.88-.7,0-3,.65-5.66,1.4-2.6.73-5.83,1.64-9.61,2.56-2.16.5-4.08.88-5.77,1.22-3.86.77-7.2,1.44-7.2,2.46,0,.37.26.55.77.55,2.43,0,5.27-.12,8.01-.24,2.47-.11,4.8-.21,6.61-.21.54,0,.98.43,1,.96.22,5.94.44,23.79.44,30.39,0,6.97-.23,22.96-.67,28.66-.04.46-.38.84-.84.91-4.08.64-9.18,1.52-12.47,2.62-.06.02-.12.03-.17.04-1.27.18-1.36.58-1.36,1.23,0,.17,0,.55,1.44.55.46,0,1.48-.12,2.77-.26,3.49-.4,9.34-1.06,16.95-1.06ZM137.69,82.64c-6.07,0-11.19-5.12-11.19-11.19s5.12-11.19,11.19-11.19,11.19,5.12,11.19,11.19-5.12,11.19-11.19,11.19ZM137.69,62.26c-4.98,0-9.19,4.21-9.19,9.19s4.21,9.19,9.19,9.19,9.19-4.21,9.19-9.19-4.21-9.19-9.19-9.19Z"/>
    </g>
    <g>
      <path class="c" d="M224.97,114.43c0-6.65-7.31-7.75-7.31-13.07,0-3.99,2.66-6.42,6.42-6.42,6.42,0,9.53,3.99,9.53,11.52,0,8.42-4.43,12.19-9.08,16.39,3.32,3.32,9.3,8.42,9.3,18.61,0,17.94-19.27,33.23-37.88,33.23-8.64,0-13.73-2.22-15.95-3.32-1.77,1.99-5.1,6.2-5.1,9.3,0,5.98,31.24,3.77,45.64,5.98,7.98,1.11,12.63,4.21,12.63,12.41,0,18.83-19.05,33.68-41.21,33.68-10.86,0-25.25-5.54-25.25-15.29,0-7.53,7.09-15.73,10.19-20.16-4.87-1.11-11.52-2.22-11.52-9.97,0-6.87,7.75-14.62,11.08-17.94-5.32-4.21-11.74-9.75-11.74-20.38,0-18.83,20.16-33.23,38.77-33.23,10.41,0,16.39,4.21,17.72,5.1,1.55-1.99,3.77-3.99,3.77-6.42ZM206.8,165.38c10.86,0,19.5-7.09,19.5-15.73,0-13.29-18.39-24.59-34.12-24.59-11.96,0-19.5,7.09-19.5,15.95,0,12.19,20.16,24.37,34.12,24.37ZM181.33,197.95c-2.66,3.32-8.64,10.19-8.64,16.39,0,8.86,13.96,12.63,22.15,12.63,13.29,0,31.02-9.08,31.02-20.16,0-8.86-11.3-8.86-44.53-8.86Z"/>
      <path class="b" d="M191.96,233.73c-11.01,0-26.25-5.66-26.25-16.29,0-6.71,5.25-13.78,8.72-18.47.27-.36.53-.71.78-1.05-4.8-1.09-10.82-2.85-10.82-10.61,0-6.76,6.87-14.12,10.58-17.86-4.57-3.66-11.24-9.62-11.24-20.47,0-19.59,21-34.23,39.77-34.23,4.6,0,11.31.84,17.51,4.76.15-.18.3-.36.46-.54,1.24-1.46,2.52-2.98,2.52-4.55,0-3.08-1.78-4.8-3.66-6.61-1.8-1.73-3.66-3.53-3.66-6.46,0-4.44,2.98-7.42,7.42-7.42,4.8,0,10.53,2.17,10.53,12.52,0,8.38-4.14,12.36-8.63,16.43,3.53,3.46,8.85,8.7,8.85,18.58,0,17.6-18.9,34.23-38.88,34.23-6.01,0-11.28-1.04-15.7-3.09-1.46,1.72-4.35,5.46-4.35,8.07,0,2.92,15.27,3.41,25.37,3.74,7.03.23,14.3.47,19.42,1.25,6.27.87,13.48,3.18,13.48,13.39,0,19.12-18.93,34.68-42.21,34.68ZM203.48,116.76c-17.83,0-37.77,13.78-37.77,32.23,0,9.79,5.61,15.05,11.36,19.6.22.18.36.44.38.73.02.29-.09.56-.29.77-3.23,3.23-10.78,10.78-10.78,17.24s5.34,7.79,10.05,8.84l.69.16c.32.07.59.3.71.62.12.31.08.66-.11.93-.48.69-1.05,1.46-1.68,2.31-3.32,4.47-8.33,11.23-8.33,17.28,0,9.2,14.34,14.29,24.25,14.29,22.17,0,40.21-14.66,40.21-32.68,0-6.95-3.41-10.25-11.77-11.42-5.01-.77-12.22-1-19.19-1.23-16.93-.55-27.31-1.12-27.31-5.74,0-3.44,3.35-7.72,5.35-9.97.3-.34.79-.43,1.19-.23,4.27,2.13,9.49,3.22,15.5,3.22,18.96,0,36.88-15.66,36.88-32.23,0-9.05-4.97-13.93-8.26-17.16l-.75-.74c-.19-.19-.3-.46-.29-.73,0-.27.13-.53.33-.72l.38-.34c4.49-4.06,8.37-7.56,8.37-15.31,0-7.08-2.79-10.52-8.53-10.52-3.35,0-5.42,2.08-5.42,5.42,0,2.09,1.41,3.45,3.04,5.02,2,1.93,4.27,4.12,4.27,8.05,0,2.3-1.59,4.18-2.99,5.84-.34.4-.67.8-.98,1.2-.32.41-.91.51-1.34.22l-.12-.08c-5.97-4.01-12.56-4.85-17.05-4.85ZM194.84,227.97c-9.34,0-23.15-4.33-23.15-13.63,0-6.08,5.13-12.41,8.2-16.2l.66-.82c.19-.24.48-.38.78-.38,34.06,0,45.53,0,45.53,9.86,0,11.4-17.6,21.16-32.02,21.16ZM181.8,198.95l-.37.45c-2.71,3.34-7.75,9.57-7.75,14.94,0,8.22,13.78,11.63,21.15,11.63,13.23,0,30.02-9.02,30.02-19.16,0-7.82-10.86-7.86-43.05-7.86ZM206.8,166.38c-14.69,0-35.12-12.78-35.12-25.37,0-9.82,8.62-16.95,20.5-16.95,15.91,0,35.12,11.42,35.12,25.59,0,9.22-9.19,16.73-20.5,16.73ZM192.18,126.06c-10.89,0-18.5,6.15-18.5,14.95,0,11.28,19.44,23.37,33.12,23.37,10.2,0,18.5-6.61,18.5-14.73,0-12.71-18.21-23.59-33.12-23.59Z"/>
    </g>
    <g>
      <path class="c" d="M352.13,192.19c-43.64,0-72.89-32.57-72.89-71.11,0-41.87,29.69-76.21,76.21-76.21,43.64,0,72.89,32.57,72.89,71.12,0,41.87-29.69,76.21-76.21,76.21ZM418.59,129.71c0-42.54-40.54-76.43-76.65-76.43-26.36,0-52.95,23.04-52.95,54.06,0,42.54,40.54,76.43,76.65,76.43,26.59,0,52.95-23.04,52.95-54.06Z"/>
      <path class="b" d="M352.13,193.19c-42.12,0-73.89-31-73.89-72.11,0-44.74,32.47-77.21,77.21-77.21,42.12,0,73.89,31,73.89,72.12,0,44.74-32.47,77.21-77.21,77.21ZM355.45,45.86c-43.58,0-75.21,31.63-75.21,75.21,0,39.97,30.91,70.11,71.89,70.11,43.58,0,75.21-31.63,75.21-75.21,0-39.97-30.91-70.12-71.89-70.12ZM365.64,184.77c-35.91,0-77.65-33.82-77.65-77.43,0-14.83,6-28.82,16.89-39.38,10.28-9.96,23.79-15.68,37.06-15.68,35.91,0,77.65,33.82,77.65,77.43,0,14.86-5.97,28.84-16.81,39.38-10.25,9.96-23.79,15.68-37.14,15.68ZM341.94,54.28c-12.76,0-25.75,5.51-35.66,15.12-10.5,10.18-16.28,23.65-16.28,37.94,0,42.48,40.67,75.43,75.65,75.43,12.84,0,25.87-5.51,35.75-15.11,10.45-10.16,16.2-23.63,16.2-37.94,0-42.48-40.67-75.43-75.65-75.43Z"/>
    </g>
    <g>
      <path class="c" d="M475.3,177.79c-5.54,4.43-16.39,13.29-27.69,13.29s-19.72-9.97-19.72-21.49c0-16.39,14.62-23.93,27.25-23.93,7.97,0,16.84,3.54,20.16,4.87,0-17.5-.22-25.26-14.18-25.26-13.07,0-21.93,7.31-25.92,7.31-1.11,0-2.21-.89-2.21-1.99,0-4.21,21.27-14.84,33.23-14.84,15.29,0,22.82,6.42,22.82,21.27,0,12.41-.22,26.81-.22,31.46,0,6.65,0,12.19,3.32,12.19,5.32,0,10.86-6.87,12.63-6.87.89,0,1.33.66,1.33,1.55,0,3.54-12.41,15.73-25.48,15.73-3.1,0-5.32-.22-5.32-3.77v-9.53ZM475.3,154.97c-5.1-1.99-9.97-4.21-16.84-4.21-11.74,0-17.06,6.42-17.06,16.62,0,8.42,4.88,15.06,13.74,15.06s15.29-6.2,20.16-10.41v-17.06Z"/>
      <path class="b" d="M480.62,192.08c-2.67,0-6.32,0-6.32-4.77v-7.45c-6.02,4.77-16.07,12.21-26.69,12.21-11.81,0-20.72-9.67-20.72-22.49,0-16.36,14.21-24.93,28.25-24.93,7.23,0,15.1,2.82,19.16,4.4-.04-17.27-.94-22.78-13.18-22.78-8.2,0-14.69,2.95-19.43,5.1-2.82,1.28-4.86,2.21-6.49,2.21s-3.21-1.4-3.21-2.99c0-5.33,22.71-15.84,34.23-15.84,16.25,0,23.82,7.08,23.82,22.27,0,7.7-.09,16.31-.15,22.59-.04,3.93-.07,7.1-.07,8.87,0,5.75,0,11.19,2.32,11.19,3.02,0,6.33-2.64,8.74-4.56,1.74-1.39,2.89-2.3,3.89-2.3,1.39,0,2.33,1.02,2.33,2.55,0,4.43-13.17,16.73-26.48,16.73ZM475.3,176.79c.15,0,.3.03.43.1.35.17.57.52.57.9v9.53c0,2.42.92,2.77,4.32,2.77,12.88,0,24.48-12.02,24.48-14.73,0-.55-.21-.55-.33-.55-.38.07-1.63,1.06-2.64,1.87-2.64,2.11-6.27,5-9.99,5-4.32,0-4.32-6.11-4.32-13.19,0-1.77.03-4.95.07-8.89.06-6.28.15-14.88.15-22.57,0-14.02-6.73-20.27-21.82-20.27-12.25,0-32.23,10.69-32.23,13.84,0,.5.6.99,1.21.99,1.2,0,3.27-.94,5.67-2.03,4.9-2.23,11.62-5.28,20.26-5.28,15.18,0,15.18,9.33,15.18,26.26,0,.33-.17.64-.44.83s-.62.22-.93.1c-3.28-1.31-12.01-4.8-19.79-4.8-13.04,0-26.25,7.88-26.25,22.93,0,11.68,8.05,20.49,18.72,20.49s21.16-8.34,26.75-12.82l.32-.25c.18-.14.4-.22.62-.22ZM455.14,183.44c-8.81,0-14.74-6.46-14.74-16.06,0-11.36,6.41-17.62,18.06-17.62,6.42,0,11.18,1.89,15.78,3.72l1.42.56c.38.15.64.52.64.93v17.06c0,.29-.13.57-.35.76l-1.06.93c-4.7,4.11-11.15,9.73-19.75,9.73ZM458.47,151.76c-10.51,0-16.06,5.4-16.06,15.62,0,8.54,5,14.06,12.74,14.06s13.72-5.12,18.43-9.24l.73-.63v-15.92l-.79-.31c-4.63-1.84-9.01-3.58-15.05-3.58Z"/>
    </g>
    <g>
      <path class="c" d="M546.19,188.2c0,1.33-1.33,1.55-2.44,1.55-1.77,0-9.08-1.33-19.72-1.33s-17.94,1.33-19.72,1.33c-1.11,0-2.44-.22-2.44-1.55s.67-1.99,2.22-2.22c3.32-1.11,8.42-1.99,12.63-2.66.44-23.04.67-59.82.67-77.98,0-17.06-.89-48.96-.89-64.91,0-4.65-1.11-10.19-4.43-10.19-4.43,0-7.98,4.21-10.19,4.21-1.11,0-1.55-.89-1.55-1.99,0-3.32,18.39-14.62,27.69-14.62,3.99,0,3.99,3.32,3.99,6.87,0,11.3-1.11,63.58-1.11,80.64,0,18.17,0,54.94.44,77.98,4.21.67,9.3,1.55,12.63,2.66,1.55.22,2.21.89,2.21,2.22ZM554.39,156.3c9.97-3.77,23.48-8.86,23.48-21.27,0-6.65-4.43-11.3-13.51-11.3-13.29,0-22.15,7.53-25.92,7.53-1.11,0-1.99-.89-1.99-1.77,0-4.65,25.48-13.74,36.55-13.74,10.19,0,18.83,6.42,18.83,14.62,0,13.51-17.28,21.71-29.69,26.81-1.77.66-3.77,1.33-5.54,1.99,8.42,7.98,24.46,29.62,28.8,24.59,9.12-10.57,7.32-31.07,7.32-31.07,0,0,9.32.41,9.32,1.3,0,3.32-2.37,37.82-21.51,37.09-14.39-.55-37.66-25.7-47.19-35.67l16.39-4.87,4.65,5.76Z"/>
      <path class="b" d="M580.79,192.08c-.12,0-.23,0-.35,0-14.03-.39-35.78-23.25-46.23-34.24l-1.65-1.73c-.24-.25-.33-.61-.24-.95.09-.34.35-.6.68-.7l16.39-4.87c.39-.11.81.02,1.06.33l4.06,5.02c.08.1.22.14.35.1,9.53-3.61,21.95-8.64,21.95-20,0-6.54-4.56-10.3-12.51-10.3-8.45,0-14.98,3.09-19.75,5.34-2.69,1.27-4.64,2.19-6.17,2.19s-2.99-1.3-2.99-2.77c0-5.86,26.67-14.74,37.55-14.74s19.83,7.01,19.83,15.62c0,13.55-16.2,21.94-30.31,27.73-.83.31-1.68.61-2.53.91l-.41,1.72c1.84,1.93,3.9,4.22,6.04,6.61,6.46,7.2,14.49,16.17,18.1,16.17h.02c.39,0,.67-.13.9-.4,4.27-4.95,5.62-11.55,6.15-17.91.56-6.66.16-8.32-.8-13.72-.04-.2.13-.39.34-.37,0,0,4.71.53,6.3.68.2.02.61.05.89.06,2.95.11,5.51-.24,6.95-.79.76-.29-2.75,10.48-2.85,10.82-1.58,5.35-.75,15.8-9.7,27.09-2.58,3.25-7.69,3.1-11.06,3.1ZM535.13,155.9l.53.55c10.27,10.79,31.63,33.26,44.84,33.62,2.96.08,7.18.3,9.42-2.25,9.51-10.81,7.45-25.36,10.97-31.16.67-1.1-.82-1.74-.96-1.81-.57-.28-1.27-.46-2.4-.53-.52-.03-1.39-.12-1.4-.12-.83-.09-2.78-.08-2.78-.08-.28-.03-.52.2-.51.48.04,2.81.79,3.77.01,10.32-1.06,8.99-2.06,14.05-6.75,19.49-.61.71-1.44,1.09-2.4,1.1h-.03c-4.52,0-12.18-8.56-19.6-16.83-3.05-3.4-5.93-6.62-8.21-8.78-.25-.24-.36-.59-.29-.92.07-.34.31-.62.63-.74.89-.33,1.83-.67,2.78-1,.94-.33,1.87-.66,2.76-.99,13.5-5.55,29.04-13.51,29.04-25.87,0-7.51-8-13.62-17.83-13.62-11.57,0-35.55,9.28-35.55,12.74,0,.31.42.77.99.77,1.08,0,3.04-.93,5.32-2,4.66-2.2,11.71-5.53,20.61-5.53s14.51,4.6,14.51,12.3c0,13-13.76,18.28-23.91,22.12-.54.2-1.14.04-1.5-.41l-3.95-4.89c-.08-.1-.21-.14-.33-.1l-13.99,4.16ZM543.69,190.75c-.57,0-1.54-.11-3-.28-3.45-.39-9.23-1.05-16.72-1.05s-13.27.66-16.72,1.05c-1.46.17-2.43.28-3,.28-3.1,0-3.44-1.78-3.44-2.55,0-1.81,1-2.88,2.98-3.19,3.13-1.03,7.71-1.87,11.63-2.5.15-.02.25-.14.25-.29.44-23.6.64-59.63.64-76.87,0-8.66-.23-21.27-.45-33.46-.22-12.14-.43-23.6-.43-31.45,0-4.43-1.07-9.19-3.43-9.19s-4.4,1.32-6.25,2.49c-1.47.92-2.73,1.72-3.94,1.72-1.55,0-2.55-1.18-2.55-2.99,0-4.24,19.36-15.62,28.69-15.62,4.99,0,4.99,4.36,4.99,7.87,0,5.08-.23,18.69-.47,33.09-.3,17.88-.64,38.15-.64,47.55,0,17.55,0,53.78.42,76.88,0,.15.11.27.25.29,3.91.63,8.5,1.47,11.63,2.5,1.98.31,2.98,1.38,2.98,3.19,0,.77-.33,2.55-3.44,2.55ZM523.97,187.42c7.61,0,13.45.67,16.95,1.07,1.29.15,2.31.26,2.77.26,1.44,0,1.44-.39,1.44-.55,0-.64-.09-1.04-1.36-1.23-.06,0-.12-.02-.17-.04-3.28-1.09-8.39-1.98-12.47-2.62-.48-.08-.83-.48-.84-.97-.44-23.05-.44-60.17-.44-78,0-9.41.34-29.69.64-47.58.24-14.4.47-28,.47-33.06,0-4.17-.27-5.87-2.99-5.87-9.53,0-26.53,11.25-26.69,13.62,0,.99.37.99.55.99.63,0,1.77-.72,2.87-1.41,1.98-1.25,4.43-2.79,7.32-2.79,1.27,0,5.43.81,5.43,11.19,0,7.83.21,19.29.43,31.41.22,12.2.45,24.82.45,33.5,0,17.52-.21,54.42-.67,78,0,.48-.37.89-.84.97-4.08.64-9.18,1.52-12.47,2.62-.06.02-.12.03-.17.04-1.27.18-1.36.58-1.36,1.23,0,.17,0,.55,1.44.55.46,0,1.48-.12,2.77-.26,3.49-.4,9.34-1.06,16.95-1.06Z"/>
    </g>
  </g>
  <g>
    <path class="c" d="M327.2,226.35c4.07,0,7.7,1.12,10.78,3.32l.16.11,2.39-4.12-.13-.09c-3.41-2.52-7.73-3.8-12.84-3.8-13.13,0-22.66,8.73-22.66,20.75,0,10.11,6.47,15.91,17.76,15.91,5.85,0,11.44-1.61,15.32-4.42l.06-.04,2.38-15.13.03-.2h-16.86l-.67,4.37h11.96l-1.29,8.22c-3.25,1.76-6.68,2.62-10.47,2.62-8.35,0-13.13-4.22-13.13-11.58,0-9.22,7.24-15.92,17.21-15.92Z"/>
    <path class="c" d="M361.24,231.06c-9.63,0-16.63,6.49-16.63,15.44,0,7.36,4.95,11.93,12.92,11.93,9.63,0,16.63-6.49,16.63-15.44,0-7.36-4.95-11.93-12.91-11.93ZM357.78,254.06c-5.22,0-8.33-2.88-8.33-7.72,0-6.22,4.96-10.91,11.53-10.91,5.22,0,8.33,2.88,8.33,7.72,0,6.22-4.96,10.91-11.53,10.91Z"/>
    <polygon class="c" points="377.58 257.81 382.37 257.81 388.26 220.85 383.47 220.85 377.58 257.81"/>
    <path class="c" d="M408.73,220.23c-5.86,0-9.13,2.75-10.02,8.4l-.49,3.05h-7.17l-.68,4.06h7.22l-5.02,31.67-.03.2h4.79l5.05-31.87h10.42l.68-4.06h-10.47l.38-2.38c.51-3.21,2.27-4.7,5.55-4.7,1.71,0,3.27.4,4.76,1.22l.17.09,1.8-3.93-.14-.08c-2.04-1.12-4.26-1.67-6.79-1.67Z"/>
    <path class="c" d="M452,221.77c-12.95,0-22.35,8.73-22.35,20.75,0,9.96,6.5,15.91,17.4,15.91,5.55,0,10.98-1.5,14.54-4l.11-.08-1.67-4.41-.18.12c-3.85,2.55-7.87,3.79-12.28,3.79-8.15,0-12.82-4.2-12.82-11.53,0-9.25,7.13-15.97,16.95-15.97,3.98,0,7.54,1.12,10.57,3.32l.16.12,2.34-4.12-.12-.09c-3.36-2.52-7.61-3.8-12.64-3.8Z"/>
    <path class="c" d="M483.67,231.06c-9.63,0-16.63,6.49-16.63,15.44,0,7.36,4.95,11.93,12.92,11.93,9.63,0,16.63-6.49,16.63-15.44,0-7.36-4.95-11.93-12.91-11.93ZM480.21,254.06c-5.22,0-8.33-2.88-8.33-7.72,0-6.22,4.96-10.91,11.53-10.91,5.22,0,8.33,2.88,8.33,7.72,0,6.22-4.96,10.91-11.53,10.91Z"/>
    <path class="c" d="M522.18,248.79c-3.39,3.55-6.93,5.27-10.82,5.27s-5.5-1.58-5.5-4.83c0-.51.05-1.07.15-1.62l2.47-15.73.03-.2h-4.79l-2.6,16.45c-.1.71-.16,1.45-.16,2.14,0,5.12,3.32,8.17,8.89,8.17,4.33,0,8.25-1.79,11.65-5.31l-.77,4.69h4.79l4.18-26.14h-4.79l-2.75,17.11Z"/>
    <path class="c" d="M554.56,235.98l.78-4.62-.15-.04c-.65-.18-1.42-.26-2.37-.26-4.46,0-8.24,1.83-11.86,5.76l.82-5.14h-4.79l-4.18,26.14h4.79l2.64-16.6c3.71-3.8,7.22-5.43,11.7-5.43.65,0,1.73,0,2.44.15l.18.04Z"/>
    <path class="c" d="M570.25,235.33c3.99,0,7.27.93,9.48,2.7l.15.12,2.36-3.7-.13-.1c-2.79-2.15-6.74-3.29-11.4-3.29-8.19,0-13.27,3.47-13.27,9.05,0,4.31,3.03,6.18,11.2,6.88,6.26.52,7.88,1.14,7.88,3.02,0,2.6-3.21,4.16-8.59,4.16-4.47,0-7.94-1.04-11.25-3.37l-.14-.1-2.57,3.74.13.1c3.47,2.59,8.02,3.9,13.51,3.9,8.76,0,13.79-3.28,13.79-8.99,0-4.44-3.01-6.34-11.09-7.03-6.42-.58-7.99-1.17-7.99-3.02,0-2.58,2.89-4.05,7.92-4.05Z"/>
    <path class="c" d="M602.28,231.06c-9.48,0-16.63,6.7-16.63,15.6,0,7.49,5.14,11.78,14.1,11.78,4.63,0,8.6-1.12,12.11-3.43l.12-.08-1.46-4.16-.19.12c-3.4,2.25-6.33,3.17-10.12,3.17-6.36,0-9.73-2.63-9.73-7.61v-.13h24.06l.02-.15c.24-1.44.36-2.72.36-3.79,0-6.87-4.97-11.31-12.66-11.31ZM602.18,235.43c4.86,0,7.99,2.61,8.22,6.82h-19.05c1.78-4.15,6-6.82,10.83-6.82Z"/>
  </g>
  <path class="b" d="M559.4,198.25c30.5-9.04,69.87-14.32,98.36,3.18,17.59,11.03,23.26,31.02,12.03,49.04-9.27,14.47-26.5,23.88-41.82,30.42-23.36,9.63-48.45,13.8-73.46,15.97-74.16,6.31-148.92,2.81-222.55-7.37-65.27-8.46-129.8-22.62-195.54-26.13-24.55-1.2-49.27-1.6-73.71,1.36-8.12,1.02-16.2,2.48-23.97,4.96-.4.14-.84-.08-.96-.49-.12-.39.08-.8.47-.94,7.84-2.79,15.98-4.54,24.15-5.85,73.98-10.03,148.47,2.61,221.62,13.46,85.13,13.15,171.48,20.24,257.52,13.54,20.25-1.37,40.49-4.12,60.06-9.48,15.35-4.2,30.53-9.78,43.57-18.96,18.98-13.98,31.1-35.76,8.05-52.89-19.74-13.72-45.93-14.61-69.27-12.67-8.14.76-16.25,2.05-24.32,3.66-.54.12-.69-.68-.21-.82h0Z"/>
  <path class="b" d="M583.57,198.25c1.88,1.26-5.23,1.43-16.56,3.63-10.1,1.96-16.82,3.99-17.16,3.57-1.39-2.08,21.23-6.3,26.19-6.82,1.59-.17,6.86-.82,7.52-.38Z"/>
  <path class="b" d="M212.77,263.08c52.13,8.01,103.93,18.38,156.5,23.22,45.59,4.57,92.3,6.65,138.15,6.96,6.59.05,13.18.15,19.78.29.56,0,1.01.46,1,1.02-.01.53-.44.96-.97.98-6.6.2-13.2.36-19.8.47-79.2.95-158.65-6.27-236.45-21.05-18.74-3.53-39.6-7.95-58.3-11.19-.19-.03-.32-.21-.29-.41.03-.19.21-.32.4-.29h0Z"/>
  <path class="b" d="M207.51,272.98c13.38,3-31.89-3.35-58.7-4.98-37.73-2.3-48.39-.56-48.64-1.12.12-2.17,51.39-3.6,107.09,6.03,0,0,.25.08.25.08Z"/>
</svg>