<?xml version="1.0" encoding="UTF-8"?>
<svg id="a" data-name="Layer 1" xmlns="http://www.w3.org/2000/svg" width="821.93" height="300.01" viewBox="0 0 821.93 300.01">
  <defs>
    <style>
      .b {
        stroke: #938230;
        stroke-linecap: round;
        stroke-linejoin: round;
        stroke-width: 2px;
      }

      .b, .c, .d {
        fill: #231f20;
      }

      .e {
        fill: #938230;
      }

      .d {
        stroke: #231f20;
        stroke-miterlimit: 10;
        stroke-width: .35px;
      }
    </style>
  </defs>
  <path class="e" d="M724.56,1.56c3.18-1.99,8.19-2.17,11.25,0,4.76,3.38,3.86,11.03,6.08,17.38,4.95-3.97,9.65-8.15,14.8-11.52,9.84-6.44,6.44,1.15,15.47,2.98,8.89,1.8,12.99,1.04,21.94,1.95,9.94,1.01,23.6-2.51,27.25,7.62,2.64,7.34-4.32,17.36-8.57,26.11-3.1,6.37-7.78,12.76-6.85,18.32,1.81,10.83,9.9,9.91-9.34,18.86-4.87,2.26-8.95,3.38-19.75,2.7,2.48,1.54,5.72,4.65,7.28,5.43,11.19,5.64,11.96,9.03,3.98,18.29-8.96,10.39-20.9,12.43-33.67,11.71-6.73-.38-13.44-1.25-21-1.99,5.92,8.28,17.25,21.07-10.74,24.46-5.83.71-11.98-.73-17.68-2.24-7.52-2-14.75-5.07-23.61-8.22-1.57,15.13,1.71,9.88-21.35,10.28-11.17.2-22.55.22-33.42,2.38-13.01,2.58-23.71,5.57-25.51,17.8-1.5-.75-4.55,5.12-4.62,4.25-.41-5.22-.2-10.49-.2-15.74,9.48.78,14.52-5.27,18.05-12.6,5.03-10.44,9.27-21.26,14.04-31.83,5.27-11.69,9.85-24.25,24.99-18.09-1.8-16.02-1.28-28.11,8.44-44.78,8.41-14.42,13.69-14.8,25.5-3.39,1.26,1.22,3.02,1.94,6.28,3.96,5.36-18.73,12.47-32.49,30.97-44.09Z"/>
  <g>
    <path class="b" d="M46.64,189.31c-7.09-.44-13.74-.89-16.84-.89-7.31,0-13.29.22-17.95.66-4.43.22-7.31.66-8.64.66s-2.22-.89-2.22-2.22c0-.89.89-1.55,1.55-1.77,4.87-1.55,15.29-2.44,18.61-2.66.88-14.84.88-44.31.88-64.69s0-49.63-.88-64.47c-3.32-.22-13.74-1.11-18.61-2.66-.67-.22-1.55-.89-1.55-1.77,0-1.33.89-2.22,2.22-2.22.66,0,3.54.22,8.2.66,4.65.22,11.08.66,18.39.66,4.21,0,12.18-.44,20.16-1.11,7.98-.44,15.95-.89,20.38-.89,20.6,0,43.64,9.08,43.64,34.12,0,22.82-20.16,32.57-32.35,37.66v.44c13.29,1.33,36.11,6.65,36.11,31.02,0,26.36-26.36,40.54-51.84,40.54-4.65,0-12.18-.44-19.27-1.11ZM43.98,117.31c20.16,0,54.5-1.33,54.5-31.24,0-23.71-20.38-34.34-40.32-34.34-6.2,0-16.39.89-20.6,2.22-.89,14.84-.89,44.09-.89,63.36h7.31ZM36.67,122.4c0,16.39,0,45.86.89,60.7,4.87,1.11,17.94,2.22,22.82,2.22,20.6,0,39.66-10.63,39.66-31.9,0-31.02-35.89-31.02-56.05-31.02h-7.31Z"/>
    <path class="b" d="M139.24,188.42c-10.63,0-17.94,1.33-19.72,1.33-1.11,0-2.44-.22-2.44-1.55s.67-1.99,2.22-2.22c3.32-1.11,8.42-1.99,12.63-2.66.44-5.76.67-21.93.67-28.58s-.22-24.37-.44-30.35c-3.77,0-9.97.44-14.62.44-1.33,0-1.77-.89-1.77-1.55,0-2.44,5.1-2.66,13.74-4.65,8.2-1.99,13.96-3.99,15.51-3.99,1.33,0,1.77.89,1.77,2.88,0,1.77-.22,4.43-.22,6.87-.22,5.98-.44,23.48-.44,30.35s.22,22.82.67,28.58c4.21.67,9.08,1.55,12.41,2.66,1.55.22,2.21.89,2.21,2.22s-1.33,1.55-2.44,1.55c-1.77,0-9.08-1.33-19.72-1.33ZM137.69,81.64c-5.54,0-10.19-4.65-10.19-10.19s4.65-10.19,10.19-10.19,10.19,4.65,10.19,10.19-4.65,10.19-10.19,10.19Z"/>
    <path class="b" d="M224.97,114.43c0-6.65-7.31-7.75-7.31-13.07,0-3.99,2.66-6.42,6.42-6.42,6.42,0,9.53,3.99,9.53,11.52,0,8.42-4.43,12.19-9.08,16.39,3.32,3.32,9.3,8.42,9.3,18.61,0,17.94-19.27,33.23-37.88,33.23-8.64,0-13.73-2.22-15.95-3.32-1.77,1.99-5.1,6.2-5.1,9.3,0,5.98,31.24,3.77,45.64,5.98,7.98,1.11,12.63,4.21,12.63,12.41,0,18.83-19.05,33.68-41.21,33.68-10.86,0-25.25-5.54-25.25-15.29,0-7.53,7.09-15.73,10.19-20.16-4.87-1.11-11.52-2.22-11.52-9.97,0-6.87,7.75-14.62,11.08-17.94-5.32-4.21-11.74-9.75-11.74-20.38,0-18.83,20.16-33.23,38.77-33.23,10.41,0,16.39,4.21,17.72,5.1,1.55-1.99,3.77-3.99,3.77-6.42ZM206.8,165.38c10.86,0,19.5-7.09,19.5-15.73,0-13.29-18.39-24.59-34.12-24.59-11.96,0-19.5,7.09-19.5,15.95,0,12.19,20.16,24.37,34.12,24.37ZM181.33,197.95c-2.66,3.32-8.64,10.19-8.64,16.39,0,8.86,13.96,12.63,22.15,12.63,13.29,0,31.02-9.08,31.02-20.16,0-8.86-11.3-8.86-44.53-8.86Z"/>
    <path class="b" d="M352.13,192.19c-43.64,0-72.89-32.57-72.89-71.11,0-41.87,29.69-76.21,76.21-76.21,43.64,0,72.89,32.57,72.89,71.12,0,41.87-29.69,76.21-76.21,76.21ZM418.59,129.71c0-42.54-40.54-76.43-76.65-76.43-26.36,0-52.95,23.04-52.95,54.06,0,42.54,40.54,76.43,76.65,76.43,26.59,0,52.95-23.04,52.95-54.06Z"/>
    <path class="b" d="M475.3,177.79c-5.54,4.43-16.39,13.29-27.69,13.29s-19.72-9.97-19.72-21.49c0-16.39,14.62-23.93,27.25-23.93,7.97,0,16.84,3.54,20.16,4.87,0-17.5-.22-25.26-14.18-25.26-13.07,0-21.93,7.31-25.92,7.31-1.11,0-2.21-.89-2.21-1.99,0-4.21,21.27-14.84,33.23-14.84,15.29,0,22.82,6.42,22.82,21.27,0,12.41-.22,26.81-.22,31.46,0,6.65,0,12.19,3.32,12.19,5.32,0,10.86-6.87,12.63-6.87.89,0,1.33.66,1.33,1.55,0,3.54-12.41,15.73-25.48,15.73-3.1,0-5.32-.22-5.32-3.77v-9.53ZM475.3,154.97c-5.1-1.99-9.97-4.21-16.84-4.21-11.74,0-17.06,6.42-17.06,16.62,0,8.42,4.88,15.06,13.74,15.06s15.29-6.2,20.16-10.41v-17.06Z"/>
    <g>
      <path class="c" d="M546.19,188.2c0,1.33-1.33,1.55-2.44,1.55-1.77,0-9.08-1.33-19.72-1.33s-17.94,1.33-19.72,1.33c-1.11,0-2.44-.22-2.44-1.55s.67-1.99,2.22-2.22c3.32-1.11,8.42-1.99,12.63-2.66.44-23.04.67-59.82.67-77.98,0-17.06-.89-48.96-.89-64.91,0-4.65-1.11-10.19-4.43-10.19-4.43,0-7.98,4.21-10.19,4.21-1.11,0-1.55-.89-1.55-1.99,0-3.32,18.39-14.62,27.69-14.62,3.99,0,3.99,3.32,3.99,6.87,0,11.3-1.11,63.58-1.11,80.64,0,18.17,0,54.94.44,77.98,4.21.67,9.3,1.55,12.63,2.66,1.55.22,2.21.89,2.21,2.22ZM554.39,156.3c9.97-3.77,23.48-8.86,23.48-21.27,0-6.65-4.43-11.3-13.51-11.3-13.29,0-22.15,7.53-25.92,7.53-1.11,0-1.99-.89-1.99-1.77,0-4.65,25.48-13.74,36.55-13.74,10.19,0,18.83,6.42,18.83,14.62,0,13.51-17.28,21.71-29.69,26.81-1.77.66-3.77,1.33-5.54,1.99,8.42,7.98,24.46,29.62,28.8,24.59,9.12-10.57,7.32-31.07,7.32-31.07,0,0,9.32.41,9.32,1.3,0,3.32-2.37,37.82-21.51,37.09-14.39-.55-37.66-25.7-47.19-35.67l16.39-4.87,4.65,5.76Z"/>
      <path class="e" d="M580.79,192.08c-.12,0-.23,0-.35,0-14.03-.39-35.78-23.25-46.23-34.24l-1.65-1.73c-.24-.25-.33-.61-.24-.95.09-.34.35-.6.68-.7l16.39-4.87c.39-.11.81.02,1.06.33l4.06,5.02c.08.1.22.14.35.1,9.53-3.61,21.95-8.64,21.95-20,0-6.54-4.56-10.3-12.51-10.3-8.45,0-14.98,3.09-19.75,5.34-2.69,1.27-4.64,2.19-6.17,2.19s-2.99-1.3-2.99-2.77c0-5.86,26.67-14.74,37.55-14.74s19.83,7.01,19.83,15.62c0,13.55-16.2,21.94-30.31,27.73-.83.31-1.68.61-2.53.91l-.41,1.72c1.84,1.93,3.9,4.22,6.04,6.61,6.46,7.2,14.49,16.17,18.1,16.17h.02c.39,0,.67-.13.9-.4,4.27-4.95,5.62-11.55,6.15-17.91.56-6.66.16-8.32-.8-13.72-.04-.2.13-.39.34-.37,0,0,4.71.53,6.3.68.2.02.61.05.89.06,2.95.11,5.5-.27,6.94-.82.76-.29-2.74,10.51-2.85,10.86-1.58,5.35-.75,15.8-9.7,27.09-2.58,3.25-7.69,3.1-11.06,3.1ZM535.13,155.9l.53.55c10.27,10.79,31.63,33.26,44.84,33.62,2.96.08,7.18.3,9.42-2.25,9.51-10.81,7.45-25.36,10.97-31.16.67-1.1-.82-1.74-.96-1.81-.57-.28-1.27-.46-2.4-.53-.52-.03-1.39-.12-1.4-.12-.83-.09-2.78-.08-2.78-.08-.28-.03-.52.2-.51.48.04,2.81.79,3.77.01,10.32-1.06,8.99-2.06,14.05-6.75,19.49-.61.71-1.44,1.09-2.4,1.1h-.03c-4.52,0-12.18-8.56-19.6-16.83-3.05-3.4-5.93-6.62-8.21-8.78-.25-.24-.36-.59-.29-.92.07-.34.31-.62.63-.74.89-.33,1.83-.67,2.78-1,.94-.33,1.87-.66,2.76-.99,13.5-5.55,29.04-13.51,29.04-25.87,0-7.51-8-13.62-17.83-13.62-11.57,0-35.55,9.28-35.55,12.74,0,.31.42.77.99.77,1.08,0,3.04-.93,5.32-2,4.66-2.2,11.71-5.53,20.61-5.53s14.51,4.6,14.51,12.3c0,13-13.76,18.28-23.91,22.12-.54.2-1.14.04-1.5-.41l-3.95-4.89c-.08-.1-.21-.14-.33-.1l-13.99,4.16ZM543.69,190.75c-.57,0-1.54-.11-3-.28-3.45-.39-9.23-1.05-16.72-1.05s-13.27.66-16.72,1.05c-1.46.17-2.43.28-3,.28-3.1,0-3.44-1.78-3.44-2.55,0-1.81,1-2.88,2.98-3.19,3.13-1.03,7.71-1.87,11.63-2.5.15-.02.25-.14.25-.29.44-23.6.64-59.63.64-76.87,0-8.66-.23-21.27-.45-33.46-.22-12.14-.43-23.6-.43-31.45,0-4.43-1.07-9.19-3.43-9.19s-4.4,1.32-6.25,2.49c-1.47.92-2.73,1.72-3.94,1.72-1.55,0-2.55-1.18-2.55-2.99,0-4.24,19.36-15.62,28.69-15.62,4.99,0,4.99,4.36,4.99,7.87,0,5.08-.23,18.69-.47,33.09-.3,17.88-.64,38.15-.64,47.55,0,17.55,0,53.78.42,76.88,0,.15.11.27.25.29,3.91.63,8.5,1.47,11.63,2.5,1.98.31,2.98,1.38,2.98,3.19,0,.77-.33,2.55-3.44,2.55ZM523.97,187.42c7.61,0,13.45.67,16.95,1.07,1.29.15,2.31.26,2.77.26,1.44,0,1.44-.39,1.44-.55,0-.64-.09-1.04-1.36-1.23-.06,0-.12-.02-.17-.04-3.28-1.09-8.39-1.98-12.47-2.62-.48-.08-.83-.48-.84-.97-.44-23.05-.44-60.17-.44-78,0-9.41.34-29.69.64-47.58.24-14.4.47-28,.47-33.06,0-4.17-.27-5.87-2.99-5.87-9.53,0-26.53,11.25-26.69,13.62,0,.99.37.99.55.99.63,0,1.77-.72,2.87-1.41,1.98-1.25,4.43-2.79,7.32-2.79,1.27,0,5.43.81,5.43,11.19,0,7.83.21,19.29.43,31.41.22,12.2.45,24.82.45,33.5,0,17.52-.21,54.42-.67,78,0,.48-.37.89-.84.97-4.08.64-9.18,1.52-12.47,2.62-.06.02-.12.03-.17.04-1.27.18-1.36.58-1.36,1.23,0,.17,0,.55,1.44.55.46,0,1.48-.12,2.77-.26,3.49-.4,9.34-1.06,16.95-1.06Z"/>
    </g>
  </g>
  <g>
    <path class="d" d="M340.25,238.81l-2.37,15.06c-3.92,2.84-9.49,4.38-15.21,4.38-10.98,0-17.59-5.67-17.59-15.73,0-12.02,9.44-20.58,22.49-20.58,5.11,0,9.39,1.29,12.74,3.76l-2.22,3.82c-3.25-2.32-6.96-3.35-10.88-3.35-10.16,0-17.38,6.96-17.38,16.09,0,7.58,5,11.76,13.31,11.76,3.82,0,7.32-.88,10.62-2.68l1.34-8.51h-11.96l.62-4.02h16.5Z"/>
    <path class="d" d="M344.78,246.5c0-8.77,6.96-15.27,16.45-15.27,7.84,0,12.74,4.44,12.74,11.76,0,8.77-6.96,15.27-16.45,15.27-7.84,0-12.74-4.44-12.74-11.76ZM369.49,243.15c0-4.95-3.25-7.89-8.51-7.89-6.81,0-11.71,4.95-11.71,11.09,0,4.95,3.25,7.89,8.51,7.89,6.81,0,11.71-4.95,11.71-11.09Z"/>
    <path class="d" d="M383.62,221.02h4.44l-5.83,36.62h-4.44l5.83-36.62Z"/>
    <path class="d" d="M403.21,229.27l-.41,2.58h10.47l-.62,3.71h-10.42l-5.05,31.87h-4.44l5.05-31.87h-7.22l.62-3.71h7.17l.52-3.2c.88-5.57,4.13-8.25,9.85-8.25,2.58,0,4.74.57,6.71,1.65l-1.65,3.61c-1.6-.88-3.2-1.24-4.85-1.24-3.4,0-5.21,1.6-5.73,4.85Z"/>
    <path class="d" d="M429.82,242.53c0-11.97,9.23-20.58,22.18-20.58,5.05,0,9.23,1.29,12.53,3.76l-2.17,3.82c-3.2-2.32-6.86-3.35-10.68-3.35-10.06,0-17.12,7.07-17.12,16.14,0,7.53,4.9,11.71,13,11.71,4.49,0,8.56-1.29,12.38-3.82l1.55,4.07c-3.66,2.58-9.13,3.97-14.44,3.97-10.73,0-17.23-5.67-17.23-15.73Z"/>
    <path class="d" d="M467.21,246.5c0-8.77,6.96-15.27,16.45-15.27,7.84,0,12.74,4.44,12.74,11.76,0,8.77-6.96,15.27-16.45,15.27-7.84,0-12.74-4.44-12.74-11.76ZM491.92,243.15c0-4.95-3.25-7.89-8.51-7.89-6.81,0-11.71,4.95-11.71,11.09,0,4.95,3.25,7.89,8.51,7.89,6.81,0,11.71-4.95,11.71-11.09Z"/>
    <path class="d" d="M529.51,231.85l-4.12,25.79h-4.44l.82-5.05c-3.46,3.76-7.48,5.67-11.91,5.67-5.57,0-8.71-2.99-8.71-7.99,0-.67.05-1.39.15-2.12l2.58-16.3h4.44l-2.47,15.73c-.1.57-.16,1.13-.16,1.65,0,3.35,1.91,5,5.67,5,4.23,0,7.84-2.06,10.99-5.36l2.73-17.02h4.44Z"/>
    <path class="d" d="M555.14,231.49l-.72,4.28c-.72-.15-1.8-.15-2.47-.15-4.59,0-8.15,1.7-11.86,5.52l-2.63,16.5h-4.43l4.12-25.79h4.44l-.88,5.52c3.56-4.02,7.32-6.14,12.12-6.14,1.03,0,1.75.1,2.32.26Z"/>
    <path class="d" d="M554.21,254.39l2.37-3.46c3.15,2.22,6.6,3.4,11.35,3.4,5.62,0,8.77-1.65,8.77-4.33,0-2.06-1.8-2.68-8.04-3.2-7.79-.67-11.04-2.32-11.04-6.7,0-5.47,4.95-8.87,13.1-8.87,4.8,0,8.61,1.19,11.29,3.25l-2.17,3.4c-2.27-1.81-5.62-2.73-9.59-2.73-5.11,0-8.1,1.55-8.1,4.23,0,2.06,1.81,2.63,8.15,3.2,7.84.67,10.93,2.42,10.93,6.86,0,5.62-4.9,8.82-13.62,8.82-5.83,0-10.16-1.44-13.41-3.87Z"/>
    <path class="d" d="M614.76,242.37c0,1.19-.15,2.53-.36,3.77h-24.08v.31c0,5.16,3.56,7.79,9.9,7.79,3.87,0,6.86-.98,10.21-3.2l1.34,3.82c-3.61,2.37-7.63,3.4-12.02,3.4-8.77,0-13.93-4.13-13.93-11.6,0-8.72,6.96-15.42,16.45-15.42,7.74,0,12.48,4.44,12.48,11.14ZM610.58,242.42c-.15-4.38-3.35-7.17-8.41-7.17-5.31,0-9.44,3.04-11.09,7.17h19.5Z"/>
  </g>
  <path class="e" d="M559.4,198.25c30.5-9.04,69.87-14.32,98.36,3.18,17.59,11.03,23.26,31.02,12.03,49.04-9.27,14.47-26.5,23.88-41.82,30.42-23.36,9.63-48.45,13.8-73.46,15.97-74.16,6.31-148.92,2.81-222.55-7.37-65.27-8.46-129.8-22.62-195.54-26.13-24.55-1.2-49.27-1.6-73.71,1.36-8.12,1.02-16.2,2.48-23.97,4.96-.4.14-.84-.08-.96-.49-.12-.39.08-.8.47-.94,7.84-2.79,15.98-4.54,24.15-5.85,73.98-10.03,148.47,2.61,221.62,13.46,85.13,13.15,171.48,20.24,257.52,13.54,20.25-1.37,40.49-4.12,60.06-9.48,15.35-4.2,30.53-9.78,43.57-18.96,18.98-13.98,31.1-35.76,8.05-52.89-19.74-13.72-45.93-14.61-69.27-12.67-8.14.76-16.25,2.05-24.32,3.66-.54.12-.69-.68-.21-.82h0Z"/>
  <path class="e" d="M583.57,198.25c1.88,1.26-5.23,1.43-16.56,3.63-10.1,1.96-16.82,3.99-17.16,3.57-1.39-2.08,21.23-6.3,26.19-6.82,1.59-.17,6.86-.82,7.52-.38Z"/>
  <path class="e" d="M212.77,263.08c52.13,8.01,103.93,18.38,156.5,23.22,45.59,4.57,92.3,6.65,138.15,6.96,6.59.05,13.18.15,19.78.29.56,0,1.01.46,1,1.02-.01.53-.44.96-.97.98-6.6.2-13.2.36-19.8.47-79.2.95-158.65-6.27-236.45-21.05-18.74-3.53-39.6-7.95-58.3-11.19-.19-.03-.32-.21-.29-.41.03-.19.21-.32.4-.29h0Z"/>
  <path class="e" d="M207.51,272.98c13.38,3-31.89-3.35-58.7-4.98-37.73-2.3-48.39-.56-48.64-1.12.12-2.17,51.39-3.6,107.09,6.03,0,0,.25.08.25.08Z"/>
</svg>