<?xml version="1.0" encoding="UTF-8"?>
<svg id="Layer_1" xmlns="http://www.w3.org/2000/svg" version="1.1" viewBox="0 0 32 32">
  <!-- Generator: Adobe Illustrator 29.4.0, SVG Export Plug-In . SVG Version: 2.1.0 Build 152)  -->
  <defs>
    <style>
      .st0 {
        fill: #c2ac2f;
      }
    </style>
  </defs>
  <path class="st0" d="M16,3c-7.2,0-13,5.8-13,13s5.8,13,13,13,13-5.8,13-13c0-7.2-5.8-13-13-13ZM17,27v-8h3c.6,0,1-.4,1-1s-.4-1-1-1h-3v-3c0-1.1.9-2,2-2h2c.6,0,1-.4,1-1s-.4-1-1-1h-2c-2.2,0-4,1.8-4,4v3h-3c-.6,0-1,.4-1,1s.4,1,1,1h3v8c-6-.6-10.5-5.9-10-12,.6-6,5.9-10.5,12-10s10.5,5.9,10,12c-.5,5.3-4.7,9.5-10,10Z"/>
</svg>