<?xml version="1.0" encoding="UTF-8"?>
<svg id="Layer_1" xmlns="http://www.w3.org/2000/svg" version="1.1" viewBox="0 0 32 32">
  <!-- Generator: Adobe Illustrator 29.4.0, SVG Export Plug-In . SVG Version: 2.1.0 Build 152)  -->
  <defs>
    <style>
      .st0 {
        fill: #c2ac2f;
      }
    </style>
  </defs>
  <path class="st0" d="M16,10c-3.3,0-6,2.7-6,6s2.7,6,6,6,6-2.7,6-6c0-3.3-2.7-6-6-6ZM16,20c-2.2,0-4-1.8-4-4s1.8-4,4-4,4,1.8,4,4-1.8,4-4,4ZM22,3h-12c-3.9,0-7,3.1-7,7v12c0,3.9,3.1,7,7,7h12c3.9,0,7-3.1,7-7v-12c0-3.9-3.1-7-7-7ZM27,22c0,2.8-2.2,5-5,5h-12c-2.8,0-5-2.2-5-5v-12c0-2.8,2.2-5,5-5h12c2.8,0,5,2.2,5,5v12ZM24,9.5c0,.8-.7,1.5-1.5,1.5s-1.5-.7-1.5-1.5.7-1.5,1.5-1.5,1.5.7,1.5,1.5Z"/>
</svg>