<?xml version="1.0" encoding="UTF-8"?>
<svg id="Layer_1" xmlns="http://www.w3.org/2000/svg" version="1.1" viewBox="0 0 32 32">
  <!-- Generator: Adobe Illustrator 29.4.0, SVG Export Plug-In . SVG Version: 2.1.0 Build 152)  -->
  <defs>
    <style>
      .st0 {
        fill: #c2ac2f;
      }
    </style>
  </defs>
  <path class="st0" d="M16,8c-2.8,0-5,2.2-5,5s2.2,5,5,5,5-2.2,5-5-2.2-5-5-5ZM16,16c-1.7,0-3-1.3-3-3s1.3-3,3-3,3,1.3,3,3-1.3,3-3,3ZM16,2c-6.1,0-11,4.9-11,11,0,3.9,1.8,8.1,5.2,12,1.5,1.8,3.3,3.4,5.2,4.8.3.2.8.2,1.1,0,1.9-1.4,3.6-3,5.2-4.8,3.4-3.9,5.2-8.1,5.2-12,0-6.1-4.9-11-11-11ZM16,27.8c-2.1-1.6-9-7.6-9-14.8s4-9,9-9,9,4,9,9c0,7.2-6.9,13.1-9,14.8Z"/>
</svg>