<?xml version="1.0" encoding="UTF-8"?>
<svg id="Layer_1" xmlns="http://www.w3.org/2000/svg" version="1.1" viewBox="0 0 32 32">
  <!-- Generator: Adobe Illustrator 29.4.0, SVG Export Plug-In . SVG Version: 2.1.0 Build 152)  -->
  <defs>
    <style>
      .st0 {
        fill: #f0deb4;
      }
    </style>
  </defs>
  <path class="st0" d="M26.8,26.5l-7.8-12.3,7.7-8.5c.4-.4.3-1,0-1.4-.4-.4-1-.3-1.4,0l-7.4,8.1-5.1-8c-.2-.3-.5-.5-.8-.5h-6c-.6,0-1,.4-1,1,0,.2,0,.4.2.5l7.8,12.3-7.7,8.5c-.4.4-.4,1,0,1.4.4.4,1,.4,1.4,0,0,0,0,0,0,0l7.4-8.1,5.1,8c.2.3.5.5.8.5h6c.6,0,1-.4,1-1,0-.2,0-.4-.2-.5ZM20.5,26L7.8,6h3.6l12.7,20h-3.6Z"/>
</svg>