<?xml version="1.0" encoding="UTF-8"?>
<svg id="a" xmlns="http://www.w3.org/2000/svg" version="1.1" viewBox="0 0 107.5 137.8">
  <!-- Generator: Adobe Illustrator 29.4.0, SVG Export Plug-In . SVG Version: 2.1.0 Build 152)  -->
  <defs>
    <style>
      .st0 {
        fill: #938230;
      }
    </style>
  </defs>
  <path class="st0" d="M50,14.8c-.7-1.1-1.2-2.2-1.8-3.4-1.7-2.9-5.9-6.6-3-9.9,1.5-1.7,6.1-2.3,7.9-.7,3.2,2.8,4.1,10.1,4,14.1,24.9,1,47,18.7,50.2,44.1.6,4.5.7,8.2-3.8,10.6-4.3,2.3-10.3-.3-14.9-1.2-23.2-4.4-45.9-3.9-68.8,1.8-4.3,1.1-10.3,3.9-14.5,2.2-6-2.5-5.3-7.7-4.6-13.1C3.3,36.8,20.8,20.3,42.8,16c2.1-.4,4.6-.4,6.6-.9.2,0,.4,0,.6-.3Z"/>
  <path class="st0" d="M97.2,80.6c-.6,3.9-1.1,7.8-2,11.6-3.2,13.2-10.2,26.6-21.5,34.5-2.4,1.7-5.3,2.8-7.5,4.7-3.7,3.3-5.1,6.2-10.8,6.4-6.1.2-7.8-3.6-12.1-6.6-2-1.4-4.5-2.3-6.5-3.6-15.2-9.4-23.8-28.3-25.8-45.5,27.9-8.8,58.1-9.1,86.3-1.5h0Z"/>
</svg>