<?xml version="1.0" encoding="UTF-8"?>
<svg id="a" data-name="Layer 1" xmlns="http://www.w3.org/2000/svg" width="107.48" height="137.75" viewBox="0 0 107.48 137.75">
  <defs>
    <style>
      .b {
        fill: #fff;
      }
    </style>
  </defs>
  <path class="b" d="M49.99,14.84c-.71-1.06-1.2-2.25-1.85-3.35-1.71-2.9-5.88-6.56-2.96-9.86,1.53-1.73,6.07-2.28,7.86-.7,3.18,2.82,4.06,10.1,4,14.14,24.92.96,47.01,18.72,50.16,44.07.56,4.49.72,8.15-3.85,10.61-4.35,2.34-10.35-.27-14.93-1.15-23.23-4.43-45.88-3.86-68.85,1.76-4.3,1.05-10.31,3.92-14.52,2.16C-.92,70.04-.25,64.82.43,59.44,3.29,36.79,20.82,20.28,42.82,16c2.14-.42,4.59-.45,6.6-.9.23-.05.39.07.57-.26Z"/>
  <path class="b" d="M97.16,80.58c-.6,3.87-1.07,7.75-1.99,11.56-3.17,13.19-10.2,26.59-21.55,34.52-2.4,1.67-5.29,2.77-7.49,4.71-3.72,3.26-5.07,6.23-10.76,6.38-6.06.17-7.76-3.63-12.1-6.56-2.02-1.37-4.45-2.26-6.55-3.57-15.22-9.42-23.84-28.3-25.84-45.5,27.9-8.77,58.07-9.12,86.29-1.54Z"/>
</svg>