<?xml version="1.0" encoding="UTF-8"?>
<svg id="a" xmlns="http://www.w3.org/2000/svg" width="800.3" height="585.76" viewBox="0 0 800.3 585.76">
  <defs>
    <style>
      .b {
        opacity: .4;
      }

      .b, .c {
        fill: #fff;
      }
    </style>
  </defs>
  <path class="c" d="M398.62,425.32c0-1.46-.49-5.79-.03-6.82.18-.41.65-.85.91-1.27.04-.07.09-.17.14-.27l1.28-3.21s-.01,0-.02,0c1.13-4.15.79-8.56-1.02-12.46h.02s-.21-.39-.21-.39c-.3-.33-.97-1.71-1.26-2.1-2.15-2.94-5.13-5.59-8.4-7.25-4.85-2.45-8.7-3.97-12.22-5.3-2.66-1-6.03-1.95-8.41-3.35-2.37-1.4-3.02-3.56-3.77-6.03-2.82-9.35-.35-18.18,2.89-27.11,0,.02.01.03.02.05l1.09-3.38c.02-.16.05-.32.09-.48.08-.35.25-.66.39-.99l.12-.38s.02-.06.02-.09c.44-2.23-4.31-3.73-5.5-1.08-3.73,10.04-5.71,23.24-14.53,30.24-1.55,1.23-3.16,2.55-5.24,1.86-2.55-.85-4.8-2.75-7.2-3.96-8.99-4.54-24.74-8.75-30.72,2.46-.51.96-.98,2.7-1.59,3.47-.63.79-2.72,2.23-3.63,3.1-8.92,8.47-18.02,22.58-15.19,35.4.86,3.88,3.43,7.42,3.06,11.56,4.44,1.13,8.44,3.28,12.94,4.3,8.34,1.88,16.14-.11,23.55-3.98,4.68-2.44,8.89-5.7,12.83-9.18.26.69.54,1.43.95,2.04.34.51,1.52,1.52,1.62,1.72.15.3.47,4.35.59,5.15,2.14,13.56,7.48,27.55,19.59,35.31,4.51,2.89,9.6,4.01,14.07,6.89.25.03,2.08-2.03,2.51-2.41,2.45-2.18,5.52-3.86,8.05-6.1,10.78-9.52,12.27-22.42,12.2-35.96ZM398.68,409.29c.22.08.38.25.47.45.29.63-.02,1.93-.35,2.53-.23-.19.12-.63.13-1,0-.29-.18-.64-.29-.9l-.73.22.77-1.31ZM396.27,414.26l.57-.91-.23-.37-.62-.13.55-1.22c1.06.52.91,2.29-.26,2.63ZM399.45,406.33c-.24-.18-.04-.56-.14-.89-.06-.2-.39-.75-.59-.7l-.29.21.26-.98c.84.47,1.18,1.46.77,2.36ZM397.58,408.06l-.36-1.44-.87.52.58-2.12c1.02.66,1.21,2.01.65,3.04ZM394.56,414.4l-.6-.24-.73.75c.25-.56.41-1.21,1.02-1.47.47-.06.53.73.31.97ZM394.78,407.36c.53.61,1.26,1.54.77,2.36-.23.1-.4-.98-.87-.45-.58.65-.12,1.6-.2,1.62-1.27-.83-.13-2.48.3-3.53ZM392.64,413.36c-.24-.36.33-.84.32-1.32-.02-.58-.63-.81-.96-.15-.22.43-.08.7-.14,1.08-.03.17-.09.61-.34.45-.07-1.26-.26-2.33.76-3.32,1.24.74,1.04,2.18.36,3.28ZM394.51,401.01l-.04.52,1.14.71-.13-.52c.53-.08.55,1.28.1,1.42l-.79-1.09-.49.88c-.22-.63-.08-1.34.22-1.92ZM389.66,413.86c-.25-.23.29-1.04-.06-1.31-.41-.32-.75.72-1.09.61-.08-.42,1.43-2.23,1.65-1.64-.33.43.15.59.04,1.06-.11.45-.36.86-.54,1.28ZM389.86,408.53c-.12.51.13,1.02-.14,1.51-.86-1.31-.62-2.67.13-3.97,1.45.69,2.02,2.86.77,4.01l.34-.76h-.34s-.31-1.21-.31-1.21c-.27-.28-.41.23-.45.43ZM388.23,403.33l-1.43.17c.03.46.11.96.67.94-.35.54-.27,1.13-.22,1.73-1.26-1.02-.72-2.8-.02-4.04,1.69,1.22,2.18,2.84,1.02,4.67l-.14-2.04c.28-.48.46-.94.12-1.45ZM383.55,409.11c-.89-1.2.36-2.87,1.03-3.93.14-.03.66.8.77.97,1.02,1.68.08,2.1-.65,3.66l.21-2.1c-.9-.31-1.05.82-1.36,1.41ZM381.93,404.53c-.69-.25-1.08.77-1.29,1.25l.02-1.27c-1.26.22-.73,1.33-.8,2.2-1.64-.59-.24-5.47.52-5.62,2.59,1.22,2.86,4.04,1.08,6.15l.48-2.71ZM378.59,412.39l-.49-.95-.94.86c.26-.81.69-1.4,1.26-2,.7.48.57,1.44.16,2.09ZM376.48,410.16c-.16-.44-1.1-2.04-.96-2.35l1.06-2.37c.62.68,2.19,1.46,1.8,2.54-.18.49-.38-.1-.65-.2l-.34.76-.56-.8-.35,2.41ZM373.72,412.22l-.8-1.27c-.66.13-.25.74-.25,1.17-.59-.19-.73-.92-.62-1.47l.42.28.43-2.19c.9.43,1.3.93,1.65,1.77.28.67.5.95.07,1.75-.27-.48-.1-1.26-.81-1.46l-.09,1.42ZM373.48,406.61l-.51-1.51c-.99-.28-.41,1.48-.61,1.56-.86-.55-1.05-1.48-.6-2.37.11-.22,1.33-1.55,1.43-1.57.7-.14,1.68.92,1.87,1.58.32,1.13-.15,2.14-.81,3.03l.32-1.92c-.7-1.38-.83.65-1.1,1.21ZM369.11,409.42l-.95-1.16c-.39.62-.18.93.06,1.49-1.78-.74-.67-2.65-.09-3.89,1.12.4,2.09,1.14,2.28,2.36.03.22.09,1.3-.1,1.36-.64.23-.16-1.71-1.12-1.6l-.09,1.42ZM365.93,412.03c-.48-.07-.14-.39-.34-.63-.06-.07-.41-.18-.52-.3-.12.06-.32,1.21-.64.81-.32-.4.35-2.37.63-2.83.77,1.24,2.43,1.73,1.72,3.52-.49-.31.03-.87-.07-1.05l-.74-.41-.04.9ZM362,409.35l-.94-.97c-.48.18-.43.71-.23,1.1.2.41.67.56.69.94-1.93-.85-1.65-2.69-.24-3.95.32.62,1.36,1.06,1.57,1.68.07.21.05,1.1-.11,1.18l-.64-1.02-.1,1.05ZM358.28,413.55c-.95-.37-.93-1.64-.55-2.44.25.02,2.37,1.65,1.73,1.87l-1-.63-.17,1.2ZM360.28,404.18c-1.11-.68-1.68-2.09-.92-3.24.35-.53.97-.46,1.19-1.04,1.21,1.32,1.42,2.27.61,3.94l-.51-1.51-.48.08c-.42.49.22,1.75.11,1.77ZM362.46,412.4c.16.37.09.66-.22.91l.52.05c-.11.42-.2.29-.52.14-1.07-.54-.55-.82-.82-1.65l1.04.55ZM365.03,405.03l-.33,1.14-.56-.8c-.35.54-.29,1-.16,1.58-1.44-.95-.46-2.94.35-4.06,1.22.8,2.62,2.16,1.65,3.67-.66-.32-.14-1.35-.96-1.53ZM368.41,398.3c1.82,1.54,2.94,3.55,1.44,5.78-.5-.13-.19-.23-.14-.51.1-.57.51-1.58-.11-1.99-.32-.21-.28.06-.4.28-.26.47-.33.87-.43,1.37l-.98-1.9c-.78,1.06-.12,1.69.26,2.68-2.96-1.98-1.21-3.54.36-5.7ZM372.23,394.69c.77.78,2.25,1.38,2.42,2.56.16,1.12-.57,2.23-.98,3.22l.28-1.94c-.72-2.72-.83.61-1.01.7-.35-.53-.46-1.34-1.11-1.6-.9,1.13.45,2.06.21,3.21-.8-1.76-2.28-2.56-1.06-4.6.34-.57,1.03-.87,1.25-1.54ZM368.89,411.15c.88-.04,1.43,1.63.66,1.74-.78.11-1.13-1.2-.66-1.74ZM380.93,398.59l-1.02-1c-.18.31-.17.64-.07.98.13.43.64.87.7,1.32-2.28-.8-2.15-3.1-1.11-4.89,1.62.82,3.03,2.61,2.21,4.47l-.09-1.42-.6-.72-.02,1.27ZM378.95,400.54c.04.15.14.92.12.97l-1.26,2.82c-.24-.06-.09-.36-.07-.54.14-.94.92-2.35-.23-2.89l-.4,1.29-.81-1.46c-.95.96.15,1.85.14,2.54,0,.66-1.16-.91-1.24-1.05-1.07-1.77.3-3.19,1.5-4.43.77.85,1.95,1.57,2.25,2.75ZM384.79,401.42c-.33.12-.49-1.43-.9-.86-.35.5,0,1.43.23,1.94-.27.56-.84-.32-.96-.52-.85-1.41-.17-2.84.5-4.18.86.27,1.82,1.12,2.18,1.96.48,1.14.14,2.38-.53,3.36-.22-.27.2-.78.26-1.17.08-.51-.16-1.29-.74-1.42l-.04.9ZM380.83,408.62c1.34,1,1.32,2.54.46,3.87l-.07-1.3c.01-.24-.33-.75-.58-.52-.9,1.53-.93.3-.55-.67.17-.42.63-.87.74-1.38ZM383.99,410.77c.15.03-.05.24,0,.29.08.09.26.08.33.21.27.56.24,1.08-.09,1.62-.25-.31.2-.93-.42-1.1l-.85,1.08c.02-.47.56-2.14,1.03-2.1ZM387.49,408.49c1.06,1.38.85,3.15-.19,4.5l.12-2.13-.41-.09-.72,1.22c-.7-1.19.47-2.59,1.2-3.49ZM392.94,405.34c.32-.16.6-.26.93-.04l-.6,1.75c-.25-.13.02-.51-.02-.81-.05-.31-.21-.59-.31-.89ZM392.57,402.88c.45.53,1.11,1.17.56,1.85-.02.03-.4-.2-.33.42l-1.24.39c.07-1,.3-1.9,1.01-2.66ZM391.58,397.31c1.15.57,1.89,1.69,1.25,2.94-.24-.19-.01-.53-.16-.89-.37-.89-1.23-1.26-1.14.12l-.3-.14c.02-.73-.07-1.38.36-2.04ZM389.81,399.63c1.5.64,2.3,2.05,1.35,3.54-.25-.38,0-.91-.2-1.38-.13-.29-.33-.52-.62-.65-.89.57-.29,1.26-.29,2.07-1.4-.95-.93-2.33-.23-3.58ZM389.88,396.18l-1.24-.92v.82c-.79-.15-.71-1.19-.64-1.84.36-.08,2.32,1.2,1.88,1.94ZM388.24,399.85l-.09-1.42c-.15-.48-.52-.72-.97-.9-.24-.09-.4-.3-.49.06l.64,1.84-1.68-1.57.48-1.89c1.91.6,3.21,1.85,2.11,3.88ZM386.54,392.9s.03.5,0,.5l-1.16-.88-.33.14-.11.4-.23-.93c.28-.67,1.67.49,1.81.77ZM383.52,394.43c-.38.38-.76-.27-.92.41-.13.58.48.85.47,1.41-1.48-.64-1.04-1.45-.98-2.73l1.42.92ZM382.95,391.61c-.7-.07-1.47-.27-1.32-1.14.53.23,1.28.44,1.32,1.14ZM380.65,393.88c-.44-.74-.37-1.53-1.42-1.73l-.26.8c-.17-.57-.73-1.02-.45-1.66,1.24.13,2.45,1.28,2.13,2.6ZM377.61,396.18l-.24-1.49-.52-.5-.24,1.36-.95-1.16c-.46.62-.15,1.02,0,1.64-1.43-.75-.85-2.44-.23-3.58,1.6.51,3.09,1.99,2.18,3.73ZM374.54,389.13c.7.38,1.88.57,2.08,1.48l-.91-.57c-.53.01-.4.49-.5.86-.35.1-1.05-1.63-.67-1.77ZM371.68,390.6c.11-.03.39.73.63.83.26.11.61-.22.79.07.34.66.28,1.25-.11,1.89-.56-.21-.02-.83-.46-1.28-.1-.09-.23-.13-.35-.18l-.35.57c-.02-.52-.24-.82-.72-1.05-.09.7-.34,1.03.18,1.64-.14.39-.13.16-.32,0-.97-.87.08-1.72.7-2.48ZM368.45,392.89c1.56.97,1.33,2,.48,3.44-.35-.31.34-1.62-.22-1.75-.29-.07-.56.57-.64.81-.34-.07.3-.63-.17-.62-.6,0-.45,1.24-1.01.83.15-1.06.63-2.14,1.57-2.7ZM368.52,390.28c-1-.49-.88.68-1.22,1.29-.74-1.32,1.43-3.69,1.22-1.29ZM362.9,397.28c.46-.6,1.36-.71,1.67-1.44,1.28,1.53,1.73,2.65.26,4.33v-1.83s-.42-.1-.42-.1l-.58,1.3-.28-1.22c-.34-.41-.63,1.05-.77,1.12-.72-.56-.35-1.53.13-2.15ZM364.37,391.17c.55.1.27,2.18-.12,2.51l.17-1.2-.49-.14c-.66.37-.43,1.09-.56,1.68-.85-1.05-.1-2.35,1-2.85ZM360.84,394.54c.44.78.2,1.55-.2,2.29-.28-.25.27-.82-.41-.9-.51-.06-.61.93-1.1.59.32-.9.73-1.69,1.71-1.98ZM353.64,403.04c-.64-.24-.73.4-.94.87l-.44-.21c-.01-.61.27-1.06.78-1.39.38-.17.72.67.6.73ZM356.06,394.78c.12-.74.48-1.71,1.34-1.78l-.19.83-.38-.19-.77,1.13ZM364.48,378.02c-.35.12-.96-2.28-1.04-2.58-.27-1.06-.55-2.33-.49-3.42l1.53,6ZM368.42,343.87l-3.31,10.31c-1.49,5.07-2.55,10.25-2.4,15.54l-.45-5.15-.65.12-.8,1.06c2.08-4.3,2.91-9.02,4.4-13.51.16-.47.45-.9.61-1.37.81-2.35,1.51-4.75,2.59-7ZM361.23,362.36c.09-.18.14-.62.39-.46-1.13,2.7-2.36,5.31-4.01,7.73-.28-.08,0-.43.09-.6.51-.94,1.31-1.89,1.82-2.85.64-1.22,1.09-2.58,1.71-3.82ZM365.79,348.92c-1.48,3.22-2.16,6.73-3.39,10.03l1.72-6.29c.53-1.18.9-2.42,1.28-3.66.1-.32.13-.21.39-.08ZM361,361.25l-1.98,4.43-.15-.07,1.98-4.43.15.07ZM355.68,371.88l-2.91,3.64-.06-.62,2.97-3.02ZM345.88,393.15c.69,1.48-.31,4.05-1.9,4.46.33-.26,1.57-2.66.82-2.66-.63.17-.9.66-1.11,1.25-.57-1.33.96-2.75,2.19-3.05ZM347.66,389.19c.38.68.13,1.28-.22,1.91-.43-.55-.6-1.64.22-1.91ZM340.2,400.32c-1.39.01.44.84.51,1.14l-.44.73c-.12-.29-.64-.3-.73-.43-.15-.22-.2-1.32-.39-1.36-.95.15-1.2,1.14-1.72,1.79-.21-.53.24-1.33.62-1.69.21-.2,2.07-.94,2.2-.71l-.26.23.21.29ZM350.88,376.68c.21-.16.16-.38.52-.13-.26.69-1.04,1.22-1.73,1.42.28-.47.79-.97,1.22-1.3ZM346.38,385.5c.26.54.02,1.05-.23,1.54-.41-.47-.51-1.3.23-1.54ZM344.92,388.36c.87,1.49.4,3.82-1.53,4.03.52-.71,1.22-1.65.86-2.55-.62-.19-.78.44-1.08.8-.45-1.11.71-2.29,1.76-2.28ZM341.77,393.33c.45,1.66.08,3.55-1.14,4.8-.32.12-.27-.14-.2-.36.2-.65.7-1.24.7-1.98-.33-.57-1.39,1.32-1.58,1.49l.3-1.69-1.59,1.3c.33-.71.17-1.49.63-2.15.53-.76,2.07-1.01,2.88-1.41ZM333.22,406.07c-.16.02-.33.01-.49.07-.5.17-.71.68-1.16.76.41-1.43,1.33-1.73,2.63-1.92l.48,1.11c.2-.42.24-.71-.08-1.04l.56-.02c-.15,1.79-1.82,3.52-3.69,2.93,1.08-.19,1.38-.74,1.99-1.58l-.24-.3ZM328.41,409.73c-.49-.1-.42.21-.75.18.39-1.16,1.78-1.24,2.73-.79-.49,1.29-1.74,2.4-3.14,1.71.19-.22.52-.09.85-.25.34-.17,1.06-.69.31-.84ZM329.11,405.43c-.93-.27-1.87.2-2.43.93-.43-.48.2-1.2.61-1.56.97-.86,2.38-.75,3.44-.11-.5,1.27-1.47,3.18-3.1,2.83.15-.37.57-.36.82-.68.3-.4.43-.96.67-1.4ZM323.7,404.68l-1.05.25-1.08.97c.36-1.79,1.91-2.91,3.66-2.03l-1.18,2.22-.45-.2c-.04-.11.7-1.01.11-1.21ZM321.35,400.67c-.26-.16.03-.88.15-1.07.5-.82,2.14-1.22,3.04-1.34.35,1.61-.75,4.23-2.67,4.11,1.95-1.33,1.72-4.13-.52-1.7ZM322.7,395.41c-.03-.18-.15-.34-.36-.25l-.69.52.28-1.24c-.15-.48-.75-.1-.94.16-.23.31-.33,1.01-.69,1.02-.27-1.6,1.59-3.09,3-3.25,1.54-.18.77,2.91.28,3.72-.52.85-1.94.84-2.44,1.74-.29-.08,0-.41.11-.55.41-.55,1.56-1.14,1.45-1.88ZM316.04,395.73c-.57-1.59,1.13-3.07,2.63-3.19.56,1.49-.34,3.82-1.98,4.21,1.64-1.69.5-3.79-.65-1.02ZM317.18,388.56l-.97.46-.84,1.28c.18-1.77,1.22-2.63,2.79-3.15.25.07.55.99.34,1.07l-.39-.36-.47.59.53.9.43-.54c-.16.92-.59,1.52-1.18,2.22-.49-.47.49-.54.48-1.07l-.6-.28c.18-.38.32-.87-.12-1.13ZM313.24,393.01c.18-.59.54-.99,1.15-1.13.68.14.05,3.24-.99,3.22.32-.69,1.1-2.18-.16-2.09ZM315.22,396.72c.6.17.17,1.57-.1,1.89l-.16-1.13c-.6-.32-.53.22-.92.28.16-.53.59-1.05,1.19-1.04ZM320.78,389.24c-.52.19-.04-1.29.09-1.42l.83.18c.32-.56-.67-.54.19-1,.51-.28,1.22-.3,1.72.03l-.2-.36c.32-.27.5.19.64.2.03,0-.03-.53.36-.39-.15,2.28.27,4.27-2.64,4.68.38-.57,1.45-1.04,1.37-1.82-.01-.12-.24-.22-.21-.35.14-.62.81-.95-.11-1.39.14.69.22.96-.56.85l.2-.46c-.93-.33-1.36,1.15-1.67,1.27ZM335.62,396.62c-.35-.49-2.02.7-2.16.32l1.28-1.63c-1.13-.7-1.8.2-2.66.82.14-1.23,1.07-1.74,2.12-2.09l3.01-.56c-.27.99.04,2.13-.34,3.11-.57,1.49-2.17,2.34-3.72,1.85,1.1-.44,2.14-.39,2.47-1.83ZM332.61,392.7c1.12-.56,2.57-1.01,2.59-2.5-.23-.4-1.55.66-1.92.61l.66-2.08-1.01.33-1.22,1.59c-.14-3.63,2.21-3.73,5.08-3.77.5,3.29-.22,6.2-4.17,5.83ZM330.69,393.31c-.13,2.41.36,5.19-3.09,4.85.67-.38,1.21-.77,1.43-1.56l-2,.39c.35-.73.51-1.56,1.26-2-.54-.32-1.05-.27-1.53.13l-1.17,1.4c.11-.49.03-.93.27-1.41.71-1.39,3.33-2.2,4.83-1.8ZM329.31,391.18c-.31.34-.87.69-1.31.38.45-.75.85-1.42,1.02-2.29-.73-.27-1.18.53-1.77.67.19-.49.47-.96.65-1.45.09-.23.32-.39-.06-.48l-1.05.58-1.02,1.79c.27-.58.07-1.22.25-1.81.58-1.83,2.74-2.38,4.44-2.14-.25,1.6.03,3.42-1.16,4.74ZM329.85,383.96c-.31.36-2.89,1.2-3.04.83l1.9-1.81-.27-.39-1.18.39c.18-.63.87-.89,1.18-1.4.3-.5-.53-.23-.77-.19l-1.61,1.41c.38-2.62,2.49-2.74,4.67-2.48.07,1.06-.15,2.81-.87,3.64ZM317.06,399.22c.41-.57,1.52-1.27,2.21-.87.21.87-.13,2.76-.96,3.16-.23.11-.24.12-.31-.14.41-1.15.45-3.17-1.04-1.57-.28-.07,0-.45.09-.59ZM320.04,401.55c.69-.12.7,2.13.33,2.53-.56-.03-.18-1.56-.66-1.39-.25.09-.45.99-.78.93.1-.91.49-1.43,1.11-2.07ZM326.45,401.13l-.27-.21c.43-1.44,2.79-1.86,4.08-1.53.31.22-.36,1.86-.54,2.18-.3.53-1.2,1.71-1.91,1.45l.99-1.39-1.34.13.85-1.08c-.7-.29-1.41-.18-1.85.45ZM326.37,407.87l-.99,1.39c-.57-.1.03-.56-.28-.85-.34-.31-1.09-.08-1.1-.14.31-.99,1.59-.89,2.38-.4ZM332.79,402.13l.49-.69-.87-.12-1.19,1.03c.05-1.4,1.24-2.06,2.46-2.35.26-.06,2.32-.36,2.37-.25l-1.01,2.66-.39-.36-.21.46c.98-.08-.62.93-.82,1.01-.1.05-.34-.48-.32-.51.13-.18.74-.38.75-.86l-1.27-.02ZM342.21,384.86c.27-.36.79-.37,1.04-.76l.57,2c-.18.6-.58,1.15-1.26,1.17.34-.69.7-1.33.28-2.07-.48-.35-.85.91-1,1.2-.32-.36.13-1.23.36-1.54ZM341.29,388c.46,2.01.83,4.21-1.7,4.89.28-.72,1.01-1.06.96-1.95-.6-.26-.97.37-1.32.69-.23-.53.24-1.06.42-1.55.09-.23.31-.39-.06-.48l-.75.35-1.04,1.41c-.29-2.44,1.19-3.71,3.49-3.36ZM341.5,381.47l.05-.53.54.24c-.1,1.32-1.56,1.84-1.27.17l.68.12ZM338.79,383.18c.29-.05.5.11.73.09.15,0,.58-.44.97-.04.06,1.9.27,3.89-2.38,3.32.49-.57,1.35-.35,1.29-1.25l-1.19.2c.09-.4.36-.65.58-.96.31-.44-.61-.25-.82-.16-.32.14-.47.55-.76.49.05-.94.65-1.54,1.57-1.69ZM339.36,379.43c.4.33-.47,2.05-1.18,1.66l.56-.85-1.04-.35-.08-.43c.48-.16,1.3-.39,1.74-.03ZM335,381.5c0,.61.59.65.78.07l-.21-.37,1.2.17c-.5,1.07-.35,2.35-1.2,3.32-.35.4-2.55,1.02-2.75.59l1.6-1.12c-.57-.35-1.2-.17-1.8-.07l1.55-1.42c-.8-.8-1.74.06-2.25.73-.28-1.84,1.27-2.73,2.91-2.32.63.16.17.15.17.4ZM335.56,377.53c.08.21-1.21,2.05-1.8,1.57.47-.71.33-1.34-.6-1.08-.39.11-.63.56-.99.55.52-1.79,1.93-1.89,3.4-1.04ZM334.23,374.37c-.68.56-1.27.02-1.88-.3.6-.55,1.27.06,1.88.3ZM330.68,376.1c-.11,2.08-1.69,2.41-3.38,2.68-.13-.41,2.56-1.08,1.77-1.76-.35-.3-.86-.16-1.25-.03-.51.17-.84.58-1.31.7.19-2.14,2.55-2.4,4.17-1.59ZM322.23,384.57c-.42-.21.78-1.93.55-2.3-.47-.75-1.44.47-1.66.88-.21-.19-.07-1,0-1.21.44-1.25,2.35-1.01,3.42-1.1-.39,1.71.03,3.54-2.31,3.73ZM321.92,378.94l1.28-1.63-1.19.02-1.08.97c.5-1.74,1.96-2.89,3.79-2.33-.22,1.46-1.18,2.99-2.79,2.97ZM325.23,372.36c-.44.68-.95.97-1.7.52l.71-.78-1.05-.11c.31-.44,1.97.22,2.04.36ZM318.96,381.46c-.59,1.59.18,3.58-2.15,3.99.24-.56.64-1.12.41-1.74-.24-.39-1.49.94-1.48,1.26-.21-.1-.09-.77-.05-.93.41-1.54,1.76-2.38,3.27-2.58ZM314.22,387.95c-.09.04-.35-.54-.8-.28l-.88,1.18c.09-1.21.62-2.25,1.83-2.66.33.61.19,1.18-.15,1.76ZM318.11,379.25c-.56.28.06-1.21.02-1.27-.66-.43-1.11.32-1.31.88-.67-.92,1.47-2.64,2.15-2.15.19.97-.37,1.8-.86,2.55ZM320.92,372.99c-.51.49-.81,1.42-1.67,1.27l.73-.87c-.05-.55-.59-.33-.94-.5l.06-.34,1.82.45ZM311.6,389.9c.43.81.07,1.54-.51,2.15l.16-1.39-.96.3c.19-.64.71-.89,1.3-1.06ZM313.32,384.62l-.05-1.31-1.45,1c.14-1.24.99-2.1,2.14-2.52.44.97.02,2.05-.63,2.83ZM314.71,378.46c.45.33-.62,2.03-1.35,1.59,0-.44.87-1.95,1.35-1.59ZM309.64,387.73c-.65-.14.23-1.52.53-1.78.48.38-.09,1.87-.53,1.78ZM316.18,374.16l-.7,1.15-.17-.44-.7,1.15.61-1.56-1.08.16-.9.79c.34-1.41,1.7-1.89,2.94-1.25ZM310.17,382.65c-.08.39-.23.66-.43.99-.14.23-.14.67-.48.43-.51-.49.7-1.95.91-1.42ZM311.51,378.85c0,.2-.93,1.9-1.14,1.32.12-.59.27-1.56,1.14-1.32ZM294.48,399.75c.73-1.26,1.94-2.43,2.79-3.63l4.74-4.66c-2.66,2.91-5.66,5.57-7.7,9.01-.29-.1.07-.57.17-.73ZM293.36,406.28c-.28-.09.07-.6.15-.76,1.89-3.62,5.87-7.76,8.9-10.52l3.81-3.12c-4.49,4.58-9.69,8.69-12.86,14.4ZM294.05,409.25c2.05-3.79,5.86-7.92,9.03-10.83,1.27-1.16,2.92-2.65,4.31-3.63.17-.12.34-.35.59-.28-5.07,4.86-10.51,9.54-14.16,15.65-.28-.13.13-.73.23-.9ZM293.37,414.43c2.18-4.17,5.82-8.29,9.11-11.63,2.4-2.42,5.08-5.06,7.96-6.83-6.24,5.98-13.07,11.67-17.29,19.38-.27-.12.13-.74.22-.92ZM294.26,416.95c-.3-.11.07-.56.17-.72.73-1.28,1.88-2.81,2.78-4.01,2.93-3.92,6.72-7.8,10.54-10.86,1.44-1.15,3.06-2.29,4.65-3.23-6.27,6.02-13.27,11.49-18.14,18.81ZM294.06,419.9c1.57-2.78,4.34-5.78,6.51-8.15,3.82-4.17,8.12-8.55,13.13-11.2l-.66,1.09c-6.39,6.23-13.52,11.82-19.08,18.84-.29-.09,0-.41.1-.57ZM295.27,421.42c1.12-1.49,2.69-3.15,3.96-4.55,2.41-2.63,4.97-5.21,7.6-7.62,2.66-2.44,5.55-5.13,8.91-6.51.24.38.02.55-.18.84-.87,1.26-2.92,3.09-4.1,4.2-5.19,4.9-11.04,9.31-16.32,14.14-.3-.1.02-.36.13-.5ZM299.54,425.64c.49-.46,2.17-1.28,2.88-1.75,2.73-1.83,5.4-3.84,7.81-6.08.41-.38,1.04-.87,1.24-1.4-4.68,2.98-9.16,6.36-14.23,8.65.07-.28.28-.41.47-.59,2.31-2.22,5.67-4.24,8.16-6.47,1.15-1.03,2.59-2.35,3.6-3.49.06-.07.15-.23.03-.26l-13.16,9.13c3.65-3.83,7.42-7.63,11.38-11.16,1.11-.99,9.15-7.69,9.91-7.53.19.04.26.24.24.41-.17,1.44-4.28,5.03-5.35,6.28,2.19-.67,3.83-3,5.75-4.01.49-.26,1.1-.49,1.63-.2-.83,2.56-3.31,3.86-4.84,5.9.63-.21,1.27-.66,1.82-1.03,1.12-.75,2.8-2.36,3.86-2.83.29-.13.57-.19.89-.16-.72,2.24-2.33,3.74-3.99,5.3-5.23,4.91-11.51,8.84-18.13,11.55-.12-.03-.03-.2.03-.26ZM301.42,426.75l4.63-2.63c3.89-2.4,7.61-5.09,11.12-8.03,1.52-1.27,3.4-3.37,4.9-4.42.39-.27.91-.46,1.38-.54-1.3,2.54-3.47,4.53-5.62,6.35-4.23,3.57-10.1,7.08-15.29,9.04-.16.06-1.1.28-1.11.23ZM304.22,427.45c1.57-.9,3.22-1.65,4.78-2.56,4.92-2.87,9.36-6.51,13.72-10.16.79-.66,1.41-1.68,2.51-1.87-2.13,3.41-5.46,6.16-8.75,8.41-3.05,2.08-6.96,4.26-10.37,5.66-.26.11-1.78.77-1.89.52ZM317.66,422.05l9.87-7.8c-1.1,1.96-3.18,3.74-4.92,5.19-3.91,3.27-8.63,6.09-13.39,7.86l8.44-5.26ZM311.21,428.21l5.29-2.89,3.76-2.42,9.07-6.92c-2.09,2.8-5.28,5.01-8.17,6.95-3.06,2.06-6.44,4.09-9.95,5.27ZM316.65,427.53l5.68-3.52,8.13-6.05c-3.83,4.03-8.78,7.28-13.81,9.57ZM330.22,413.17l1.08-.15c.65-.5-.89-1.03-1.38-.81.18-.87,2.99-.05,3.07.09-.71.77-1.76,1.76-2.77.86ZM334.28,410.86c-.2.14-1,.55-1,.02.46-.21.75-.66.85-1.15-.18-.13-.62-.37-.41-.66l1.9-.16c-.28.73-.68,1.5-1.34,1.96ZM336.33,406.28c-.01-.42.93-1.15,1.3-1.26.17-.05.4.06.57.02.48-.12.96-.53,1.59-.14-.05,1.52-1.32,3.42-3.01,3.05.69-.67,1.59-1.11,2.01-2.03-.97-.41-1.59,0-2.45.36ZM333.91,414.36c.19-.22.52-.09.85-.25,1.13-.56.64-.8-.27-1.04l1.99.06c-.62.71-1.53,1.72-2.57,1.23ZM337.6,411.43l-.27-.21.67-1.07c-.45-.26-.87-.06-1.28.12-.24.1-.46.31-.17-.12.52-.8,1.46-.58,2.26-.56-.13.77-.68,1.32-1.19,1.85ZM342.16,402.48l1.34-1.78c-.41-.27-.79-.12-1.04.27-.26-.06-.07-.28.03-.41.4-.45,1.13-.65,1.72-.64-.27,1.06-.88,2.33-2.06,2.56ZM341.01,407.1l.83-1.46-.65-.2,1.36-.58c.21.37-.86,2.31-1.55,2.24ZM347.7,395.43l.45-1.81-.66.25.63-1s.32.33.33.38c.16.6-.39,1.69-.75,2.18ZM352.37,390.74c-.26-2.36-3.05-5.99-2.34-8.28.77-2.49,4.89-6.13,6.73-8.26,1-1.16,1.89-2.38,2.81-3.6.16-.21.02-.31.4-.09.15,1.42.22,2.91.49,4.31.53,2.73,2.38,5.85,1.24,8.65-1.5,3.67-6.82,4.5-9.32,7.28ZM350.78,406.16c.46.21.62.71.57,1.17-.79-.34-1.24.14-.97.94-.94-.26-.07-1.58.4-2.11ZM346.66,414.94l.91,1.23c-.92.35-1.03-.54-.91-1.23ZM349.47,412.35c-.56-1.22-1.33-.28-.61.55l-.47-.2.27-1.81c.44-.03,1.14,1.33.81,1.46ZM355.55,400.41l-.35-.37c.13-.85.79-1.19,1.32-1.75,1.47.81.64,1.67.03,2.75l.08-1.61c-.66-.16-.89.48-1.08.98ZM351.76,414.58c.14.35.55.37.45.65-1.22-.41-1.02-1.63-.83-2.66.09-.22,1.26.71,1.37.93.02.05.03.5,0,.5-.77-.59-1.4-.39-1,.57ZM355.25,410.91l-.71-.87c-.16.28-.24.57-.2.9.04.41.39.51.35.81-1.46-.58-1.07-2.02-.43-3.12.32-.13,1.38,1.8.99,2.28ZM357.28,405.96c-.12.32-.35.64-.4.97-.06.42.6.99.2,1.32-1.27-1.2-1.15-3.43.57-4.14.26.11.6,2.82.29,3.24-.29-.46.06-1.15-.66-1.39ZM358.34,451.06c-.39-.72-.83-1.6-1.15-2.34-2.51-5.72-4.27-12.22-5.21-18.39-.28-1.82-.55-3.72-.55-5.55.56,2.37.76,4.81,1.21,7.2.96,5.1,2.36,10.08,4.21,14.91.59,1.53,1.2,3.04,1.89,4.53-.28.18-.31-.21-.39-.36ZM391.35,430.62c.08,7.35-.81,14.82-3.04,21.85l1.7-10.33c.62-6.01.74-12.07.32-18.09-.11-1.55-.37-6.36-1.07-7.44-.28-.43-.67-.71-1.16-.89-.08.17-.17.34-.22.53-.24.88,1.05,9.29,1.17,11.07.65,9.48-.03,19.22-3.22,28.25l1.65-9.3c.83-8.94,1.08-18.81-.4-27.7-.19-1.14-.22-2.5-1.17-3.29-.1.22-.23.44-.29.68-.36,1.41.46,5.18.61,6.85,1.14,11.99,1.5,24-2.76,35.54l1.64-11.82c.56-8.88.44-18.02-.58-26.86-.11-.93-.28-3.98-.87-4.48-.25-.16-.23-.11-.33.13-.51,1.15.12,3.46.24,4.72,1.21,12.76,1.92,24.96-1.27,37.57-.18.7-.35,1.6-.59,2.25-.06.17-.14.62-.39.46.78-4.93,1.29-10.09,1.23-15.09-.01-.99-.01-2.41-.14-3.36-.03-.2-.1-.61-.27-.15-.05,3.48-.36,6.97-.77,10.42-.33,2.76-.7,6.2-1.36,8.87-.04.17-.07.74-.36.58.38-4.66.3-9.35.08-14.02l-.24-1.17c-.26,3.32-.34,6.66-.62,9.98-.16,1.85-.26,4.28-.6,6.05-.03.17-.02.59-.29.43l-.52-12.27-.55-4.15-.41,16.67-3.38-21.31,1.9,21.93c-2.1-5.79-3.23-12.03-4.05-18.14-1.29-9.72-1.58-19.54-2.1-29.32l-.77-.9-.63,1.18c.57,11.56,1.24,23.15,3.35,34.54l2.76,12.17c-.28.11-2.18-5.15-2.34-5.63-4.35-13.17-5.14-27.58-5.41-41.35-.04-.5-.79-.75-1.16-.45-.77.63-.63,4.09-.6,5.17.09,3.52.54,7.52.92,11.04,1.12,10.36,3.1,20.69,6.72,30.47-.03.12-.21.03-.26-.03-.21-.23-1.2-2.52-1.41-3.01-2.01-4.67-3.39-10.04-4.43-15.02-1.91-9.21-2.6-18.6-2.6-28-1.31-.81-2.06-.04-2.22,1.35-.64,5.63,1.3,17.44,2.4,23.26,1.29,6.8,3.24,13.45,5.93,19.83-.32-.17-.48-.63-.65-.95-3.03-5.5-5.19-13.4-6.43-19.57-1.57-7.78-1.93-15.5-2-23.42-2.8-.7-2.65,2.53-2.56,4.4.18,3.51.73,7.55,1.24,11.05,1.27,8.76,3.47,17.24,7.05,25.35l-1.42-2.56c-4.99-11.73-7.15-24.56-7.49-37.27-2.81-.19-2.84.69-2.69,3.05.43,6.78,1.86,14.84,3.65,21.39,1.07,3.91,2.51,7.69,4.04,11.43l-1.02-1.83c-3.96-9.09-6.06-19.03-6.88-28.89-.06-.73,0-3.46-.16-3.86-.21-.49-.64-.29-1.06-.29l.1-.23c9.19-3.8,20.28-5.07,30.18-4.17,4.37.4,8.64,1.18,12.43,3.56l-1.02-.18c.94,7.7,1.45,15.63-.17,23.29l.51-4.81c.3-4.42.29-8.85-.08-13.26-.06-.7-.49-5.34-.65-5.57-.16-.23-1.11-.63-1.42-.73-.22-.07-.23-.2-.32.12,1.26,11.06,1.97,22.49-1.7,33.24l1.82-10.5c.63-5.66.89-16.52-.6-21.92-.24-.87-.57-1.66-1.65-1.4.39,4.75,1.11,9.46,1.16,14.24Z"/>
  <path class="c" d="M278.63,212.03l.08,56.35c0,2.38-1.92,4.31-4.3,4.32-2.38,0-4.31-1.92-4.32-4.3l-.08-56.35c-16.49-2.36-27.97-17.64-25.61-34.14,2.36-16.49,17.64-27.97,34.14-25.61,16.49,2.36,27.97,17.64,25.61,34.14-1.89,13.24-12.28,23.66-25.52,25.6h0Z"/>
  <path class="c" d="M90.84,228.58c2.81-.13,9.52-1.76,14.59-1.5l12.18-3.5c-.4.06-.8.12-1.2.19-.23-1.45,2.85-1.46,3.74-1.58,2.52-.36,11-.77,13-.16,1.05.32,2.17.63,3.3.95h6.3c-7.98-3.53-17.42-4.33-26.03-3.54-4.93.45-9.74,2.3-14.69,2.51,13.47-6.58,29.93-4.37,43.62,1.04l18.65.02c-1.56-2.38-3.19-4.72-4.86-7.02l-17.55-.02c2.12.93,4.22,1.92,6.27,2.96-1.26,2.06-4.43-1.36-5.07-1.55-1.37-.42-2.84-.9-4.35-1.41h-5.93s10.97,3.33,10.97,3.33l-.24.78-13.55-4.12h-10.72s-.05-.01-.07-.01c-.3,0-.6.05-.9.13l-40.83,11.74c4.88.83,9.85.93,13.36.77Z"/>
  <path class="c" d="M173.34,224.19l1.84.36c-.17-2.42-.36-4.83-.49-7.24l-2.08-.41c.19,2.44.43,4.86.73,7.29Z"/>
  <path class="c" d="M170.37,218.82c-.03-.79-.06-1.58-.09-2.37l-.22-.04.31,2.41Z"/>
  <path class="c" d="M185.8,226.63c.27-2.35.61-4.66,1.04-6.94l-3.06-.6c-.21,2.36-.33,4.71-.37,7.07l2.39.47Z"/>
  <path class="c" d="M181.23,219.57c.04-.32.08-.63.12-.95l-.19-.04.07.99Z"/>
  <path class="c" d="M176.94,224.9l1.35.26c.08-2.36.17-4.72.3-7.08l-2.23-.44c.1,2.44.22,4.9.57,7.26Z"/>
  <path class="c" d="M187.84,219.89c-.33,2.33-.58,4.66-.77,6.99l3.9.76,4.7,3.62c.59-1.36,1.26-2.73,2.04-4.11,1.78,1.09-.52,3.6-1.31,4.68l9.78,7.52c1.13-2.13,2.23-4.3,3.09-6.46l-14.69-11.3c-.43-.33-.93-.55-1.46-.66l-5.28-1.03Z"/>
  <path class="c" d="M736.14,479.72c.44.01.88-.06,1.31-.22l11.42-4.23c1.52-.56,2.46-2.1,2.26-3.7-.19-1.61-1.46-2.87-3.07-3.06l-7.48-.88c-1.23-.14-2.43.37-3.18,1.34l-3.94,5.1c-.95,1.24-.98,2.95-.05,4.21.66.89,1.67,1.4,2.73,1.42v.02Z"/>
  <path class="c" d="M601.84,327.7c-1.53.72-2.57.85-3.33.61l-1.62,7.01,3.07-3.71.54.45-3.96,4.79-.61,2.64c2.84-2.72,5.56-5.56,8.21-8.53.37-.41.79-1.27,1.26-1.58l1.39-6.02c-1.24,1.83-2.83,3.34-4.96,4.34Z"/>
  <path class="c" d="M598.03,342.73c1.84-1.58,3.66-3.26,5.45-5.01l.5-2.17-3.05,3.68c-.37.44-4.12,1.82-2.91,3.5Z"/>
  <path class="c" d="M597.76,339.78l5.78-4.74c.26-.29.51-.58.77-.86l.74-3.21-7.29,8.81Z"/>
  <path class="c" d="M591.75,357.64c2.16,1.01,4.15,2.29,6.27,3.38l.07.09,3.66-15.86c-2.56.82-5.12,1.61-7.69,2.38l-2.31,10.01Z"/>
  <path class="c" d="M594.95,374.77l1.65-7.15c-.24-.49-.43-.96-.54-1.05l-5.34-4.42-2.26,9.8c2.15,1.93,4.47,3.6,7.24,4.49l-.75-1.67Z"/>
  <path class="c" d="M591.56,358.49l-.59,2.56,1.69.82,4.16,4.8.96-4.17c-1.27-1.13-2.55-2.26-3.9-3.18-.47-.33-1.39-.54-2.32-.82Z"/>
  <path class="c" d="M587.82,171.71c-.13.18-.23.38-.32.57,3.45,5.04,5.84,11.55,7.42,17.99.41-.21.79-.48,1.1-.85l1.91-2.24c-.55-2.8-1.27-5.56-2.19-8.25l-.39.45-.64-3.24c-1.14-2.83-2.54-5.58-4.22-8.23l-2.66,3.79Z"/>
  <path class="c" d="M606.76,249.54c2.17-1.27,4.51-2.38,6.92-3.27l-.04-2.74-3.64,1.29c1.16-.79,2.38-1.53,3.63-2.23l-.36-23.36c-2.33,3.14-4.61,6.32-6.83,9.54l.33,20.77Z"/>
  <polygon class="c" points="613.84 255.84 613.78 252.44 606.84 254.59 606.89 257.86 612.11 256.01 613.84 255.84"/>
  <path class="c" d="M591.39,190.05c.58.38,1.21.57,1.84.59-1.29-5.61-3.22-10.98-5.95-16.08l2.62,13.16c.19.94.7,1.81,1.5,2.33Z"/>
  <path class="c" d="M602.39,176.4c.2.45.35.95.41,1.13,1.23,3.86,1.89,8.12,2.17,12.47l.88,1.02.18,11.56c.36-3.25.32-6.21.67-9.49.34-3.21,1.31-6.4,1.55-9.62,0-.12.01-.23.02-.35l-5.43-6.31c-.14-.16-.29-.3-.45-.43Z"/>
  <path class="c" d="M610.02,185.16c-.41,5.35-.9,10.69-1.28,16.01,1.37.41,1.04-1.7,1.23-2.66.74-3.66,1.41-7.35,2.01-11.06,0-.01-.01-.02-.02-.03l-1.94-2.25Z"/>
  <path class="c" d="M593.13,162.54l.29,1.19-2.18,3.11c1.54,1.87,2.87,4.05,4.01,6.42l4.78-6.81c.23-.33.38-.7.49-1.08-2.26,1.08-4.92-.67-7.39-2.83Z"/>
  <path class="c" d="M606.78,250.58l.04,2.47c2.25-.89,4.57-1.6,6.94-2.15l-.04-2.87-6.93,2.55Z"/>
  <path class="c" d="M601.28,175.79c-.34-.11-.69-.19-1.06-.19-.32,0-.65.04-.98.13-.7.19-1.31.62-1.77,1.16l-.44.52c.96,2.6,1.73,5.32,2.35,8.06l.85-1,2.77,3.22c-.36-3.99-.93-7.96-1.73-11.89,0,0,.01-.01.02-.02Z"/>
  <path class="c" d="M613.91,260.49l-.06-3.56-6.95,1.32.14,9.2c.34,0,.67.02,1,.03l-.99.21.08,4.84-2.05,4.37c3.92-.85,7.36-2.11,9.02-4.32l-.08-5.34c-1.37-.7-3.46-1.01-4.44-3.2,1.17-1.72,2.66-2.82,4.34-3.54Z"/>
  <path class="c" d="M122.69,222.95l31.66.03c-10.38-1.7-21.28-1.75-31.66-.03Z"/>
  <path class="c" d="M219.74,234.96l.37,2.89,2.42-1.42c.14-2.85.36-5.69.66-8.52l-3.64,2.14c.06,1.88.13,3.58.19,4.91Z"/>
  <path class="c" d="M226.96,233.81l1.58-.02c.31-1.04.66-2.08,1.06-3.11l-.24,3.1,5.61-.05,2.83-4.82c-.81,1.62-1.48,3.22-2.06,4.81l4.05-.04c.92-1.68,1.96-3.33,3.19-4.9,1.54.28.04,1.67-.32,2.47-.38.84-.77,1.64-1.17,2.42l4.22-.04,3.75.73c.23.04.45.07.68.07.43,0,.85-.09,1.24-.24.1-2.16.04-4.49-.31-6.62-.09-.02-.17-.06-.27-.08l-4.1-.8c-.23-.05-.47-.06-.71-.07l-20.04.19c-.31,0-.61.04-.91.13-.28,2.78-.46,5.56-.59,8.35l2.5-1.47Z"/>
  <path class="c" d="M218,232.27c0-.44,0-.88.01-1.32l-.21.12.19,1.2Z"/>
  <path class="c" d="M207.61,234.23c1.17-.22.59-1.5.35-2.37l-1.32-1.02c.31,1.13.63,2.26.98,3.39Z"/>
  <path class="c" d="M68.43,232.59l-.2,1.55c1.97,1.41,4.21,2.5,6.63,3.31l.22-1.65,20.87-6c20.43-11.24,42.23-11.94,64-6.82h7.23s20.05,3.93,20.05,3.93c-3.43-3.18-6.89-6.25-10.42-9.18l-8.63-1.69c-.22-.05-.44-.06-.67-.07h-8.57c.92.28,1.84.57,2.75.89.94.33,3.08.29,2.49,1.6-2.87-.96-5.83-1.79-8.84-2.5h-14.91c9.42.99,18.78,3.38,27.72,6.28-.23,1.42-2,.2-2.96-.06-21.36-5.59-33.9-6.53-55.19-.41-9.07,2.61-17.73,7.47-27.11,8.65,9.96-3.25,19.05-9.35,29.08-12.32,3.55-1.05,7.14-1.76,10.75-2.18h-3.45s-.05,0-.07,0c-.3,0-.6.05-.9.14l-24.77,7.12c-2.9,1.11-5.77,2.17-8.63,3.08-1.43.46-2.94,1.47-4.43.88l1.05-.5-10.6,3.05c-1.34.38-2.32,1.53-2.5,2.9Z"/>
  <path class="c" d="M183.57,219.24c-.03-.07-.06-.14-.09-.21l-.98-.19c.26.21.59.37,1.07.4Z"/>
  <path class="c" d="M213.08,233.78c.26,1.64.54,3.29.84,4.94,1.24-.21.63-2.1.62-2.95,0-.92-.01-1.83-.03-2.75l-1.32.78h-.12Z"/>
  <path class="b" d="M625.8,294.34v.03s-.01.03-.01.03l-4.29,18.62c.1-.22.2-.43.3-.64,1.66-3.82,2.21-7.7,3.65-11.54.6,5.96-2.44,11.7-5.07,17.07l-1.07,4.64,3.55-4.29c1.41-1.71,4.1-8.45,5.15-10.94.78-1.87,1.42-4.12,1.72-6.14,2.21-1.92,0,4.25-.07,4.49-2.49,7.6-6.27,14.1-11.11,20.17l-.6,2.62c6.99-7.43,12.8-15.81,16.66-25.49l-5.83,14.73-10.5,12.69,5.78-4.74c7.07-7.65,12.44-16.18,15.99-25.95,1.62-4.46,2.31-9.12,3.93-13.56-1.29,19.53-13.16,36.24-27.55,48.9l-.03.14,5.23-3.65c11.81-10.68,20.75-24.11,25.12-39.44l3.21-16.48c.82,9.35-1.77,19.61-5.56,28.15-.91,2.06-3.47,8.04-4.59,9.39l-12.73,15.39,4.88-3.71c11.41-12.19,18.81-26.93,21.47-43.34l1.25-19.28c2.4,13.07.97,26.98-4.25,39.23.84.93,1.53-.78,1.86-1.42,3.11-6.02,4.7-13.78,5.68-20.45.38-2.57.18-8.32.64-10.02.09-.32.6-1,.93-.58,1.66,18.98-5.4,39.08-19.19,52.35.35.68,2.12-.37,2.19-.46l9.83-11.88c2.54-3.07,6.69-13.53,8.05-17.69,1.61-4.9,2.17-10.08,3.55-15.02.57,6.56-1.32,14.41-3.78,20.52-1.05,2.61-4.36,10.2-5.85,12l-13.63,16.47,5.78-4.74c10.91-11.8,18.09-25.83,22.25-41.22.21,4.27-1.47,9.42-2.95,13.47-1.28,3.53-4.94,12.54-7.05,15.1l-13.18,15.93,5.78-4.74c12.64-13.67,20.33-30.2,25.09-47.96.35,3-.82,6.89-1.64,9.86-4.03,14.68-11.26,27.03-21.7,38.15l5.32-4.2c8.04-9.06,14.78-19.35,19.04-30.72,2.41-6.41,3.12-13.22,5.33-19.67.23,18.98-10.88,36.94-23.06,50.97.84.91,1.52-.81,2.09-1.44,15.49-17.24,25.17-36.24,26.49-59.51,1.02-.07,1.05,2.84,1.11,3.62.67,8.79-2.04,19.21-5.65,27.17.87.93,1.46-.77,1.84-1.42,1.53-2.56,3.34-7.44,4.27-10.36.97-3.03,1.22-8.13,2.02-10.15.14-.35.58-1,.92-.58l-2.92,16.21-8.25,18.2c6.12-7.6,10.42-16.92,13.44-26.16.76-2.33.93-5.6,2.32-7.19.56,12.68-7.23,23.41-13.74,33.67-.52.81-1.04,2.03.41,1.69,7.25-9.41,12.33-19.88,16.5-30.92-.51,10-6.99,18.97-11.83,27.5.92.95,1.37-.77,1.81-1.41,4.35-6.39,8.73-12.8,11.62-20.02,1.83-4.58,2.38-9.5,4.12-14.07.77,11.18-5.71,20.79-10.85,30.15,8.33-8.75,12.29-20.57,15.15-32.05,1,6.1-1.47,12.26-3.79,17.78.87.93,1.46-.77,1.85-1.42,2.55-4.3,3.92-9.33,6.17-13.77l-1.34,6.84-3.72,8.07c.81.9,1.63-.81,2.08-1.44,2.44-3.49,3.62-8.16,6.67-11.33l-3.04,7.5.37,1.2c.99-.51.76-2.01,1.03-2.33l10.05-12.15-6.95,10.62,11.26-9.79c2.16-.13,1.02.37.11,1.13-2.11,1.76-4.42,2.57-5.19,5.59.64,1.21,5.39-2.77,3.72-.15-13.39,6.21-22.2,17.67-32.77,27.39-8.69,7.99-18.01,15.38-27.8,21.95-16.33,10.97-33.93,19.19-52.15,25.87-1.25.46-2.18,1.51-2.48,2.8l-3.65,15.85,7.97,2.56c7.62,3.54,13.75,7.16,18.06,14.69-.75,1.14-1.32-.54-1.84-1.07-2.27-2.32-4-4.79-6.61-6.84-5.1-4-11.84-6.4-17.6-9.27l-.67,2.9c-.48,2.07.83,4.11,2.9,4.56.08.02.17.04.26.06,12.66,2.94,23.27,23.72,41.25,15.09,9.81-4.71-.22-12.91,3.34-17.69,1.63-1.53,5.94-1.76,8.27-1.7,9.19.23,17.33,5.75,26.48,6.26,7.61.43,19.94-3.34,19.64-12.64-.21-6.63-12.98-11.47-8.52-17.63,3.68-5.09,18.46-4.16,24.28-6.07,5.3-1.74,10.63-6.23,10.79-12.17.25-9.31-11.12-8.77-10.44-14.94.61-5.5,12.63-3.67,14.72-10.85,2.33-8-8.91-8.87-9.82-11.5-.95-2.77,2.84-4.58,3.85-5.96,3.08-4.16,4.38-14.76.73-18.88-8.12-9.15-15.57,1.2-20.37-.08-3.29-.88-3.47-5.88-6.99-5.76-5.75.19-6.55,5.42-9.67,8.39-4.53,4.31-3.91-6.65-5.87-8.97-3.64-4.29-12.58-1.74-15.69,1.99-3.06,3.66-5.18,17.43-10.5,17.94-5.49.53-3.63-12.27-12.5-13.65-8.3-1.29-13.75,10.35-15.51,16.78-1.48,5.42-1.51,17.36-5.29,20.97-3.62,3.45-4.76-1.38-6.81-3.4,0,0-.02-.02-.03-.02-.95-.93-2.57-.32-2.73.99-.06.53-.15,1.06-.27,1.59ZM662.6,327.91c11.83-1.03,25.36-1.64,36,4.33l-10.93-2.51c-11.53-1.92-23.04-.63-34.56.34l9.5-2.16ZM655.03,332.12c12.22-2.23,29.16-1.55,40.44,3.9l-7.37-1.71c-11.8-2.14-23.8-1.87-35.7-1.18.6-1.21,1.63-.82,2.64-1ZM694.95,341.05l-21.03-3.97-26.18-.54c15.32-2.05,33.19-3.16,47.21,4.51ZM644.48,375.44c-4.38-4.34-6.77-7.32-12.25-10.67-6.32-3.86-13.27-5.53-19.96-8.44l12.97,3.02c9.62,3.38,16.79,7.54,21.28,17.14-.73,1.11-1.49-.5-2.04-1.05ZM649.74,370.96c-2.69-2.22-5.85-5.32-8.64-7.15-7-4.58-17.25-6.85-25.25-9.05-.42-1.04,1.57-.41,1.96-.37,14.06,1.73,27.94,6.52,35.44,19.48-1.58,1.28-3.09-2.57-3.5-2.91ZM653.49,365.87c-2.68-1.86-5.15-4.74-7.83-6.48-4.58-2.96-11.81-4.13-16.98-5.85-.44-1,1.57-.45,1.95-.39,7.51,1.22,14.59,3.36,20.23,8.74.67.64,3.07,2.98,2.63,3.98ZM641.24,352.09c8.45.32,17.36,1.79,24.51,6.65l-24.51-6.65ZM666.54,353.76l-28.63-5.34c16.55.07,35.01,2.27,48.5,12.85l-19.87-7.51ZM687.06,354.98c-9.09-3.93-18.81-5.81-28.56-7.16l-26.35-2.33c22.19-.96,48.21-.85,65.65,15.21l-10.74-5.72ZM707.02,352.85l-13.3-6.51-13.24-3.17c-2.03.14-1.15.66.1,1.05,7.59,2.35,14.44,5.63,20.89,10.35.91.67,4.03,2.65,3.61,3.92-13.42-10-29.67-12.79-45.9-14.14l-30.71-1.02c13.39-2.06,27.05-1.24,40.51-.59-1.93-1.84-6.02-1.72-8.65-1.98-5.1-.51-10.34-.65-15.46-.23l-.58-.93c21.43-1.7,45.65-2.11,62.73,13.24ZM694.8,326.2c-10.5-1.63-21.11-1.31-31.66-.57.6-1.21,1.63-.82,2.64-1,12.96-2.36,29.83-1.7,41.52,4.79l-12.49-3.22ZM705.02,323.74c-11.87-3.11-24.17-2.55-36.24-1.62.6-1.21,1.63-.82,2.64-1,13.87-2.52,33.02-2.16,44.66,6.49l-11.06-3.86ZM714.77,321.54c-11.72-4.26-24.16-4.39-36.4-3.32.6-1.21,1.63-.82,2.64-1,7.85-1.43,20.68-1.77,28.39.13,1.51.37,8.49,2.64,9.27,3.28l7.83,6.48-11.73-5.57ZM735.27,319.8c-5.14-4.05-12.45-6.66-19.05-6.66,1.64,1.61,6.06,2.29,7.55,3.52l9.45,7.82-12.32-6.59c-14.09-4.53-28.81-4.11-43.26-2.09,2.71-1.36,6.47-2.18,9.45-2.67,7.29-1.19,15.43-1.36,22.79-1.14.25-1.14-1.4-.96-2.09-1.09-7.49-1.33-15.59-.07-23.07.74,1.17-1.06,3.51-1.39,5.06-1.7,14.4-2.93,32.54-2.65,44.05,7.77.63.57,2.35,1.25,1.44,2.09ZM731.55,312.2l-10.1-4.26c-9.61-2.95-19.43-1.61-29.21-.99,1.15-1.04,3.55-1.42,5.06-1.7,10.98-2.03,25.69-.94,34.25,6.94ZM701.19,301.63c1.44-1.05,4.27-1.49,6.05-1.79,4.72-.8,10.56-1.1,15.21.28-7.18-.03-14.14.74-21.25,1.51ZM719.74,295.12l-18.38,3.01c2.21-1.78,5.68-2.3,8.43-2.94,7.29-1.69,16.79-3.02,23.68.4l-13.73-.47ZM703.95,293.9c9.96-4.65,23.13-7.23,33.54-3.17-11.37-.29-22.42.75-33.54,3.17ZM734.6,286.52c-8.01-.24-15.84.5-23.67,2.24,6.88-3.36,16.27-4.64,23.67-2.24Z"/>
  <path class="b" d="M799.21,98.57c-5.84-10.92-24.53-16.51-35.98-13.47-4.66,1.24-10.7,7.29-15.01,5.25-4.09-1.94-2.93-9.22-3.64-12.96-1.98-10.54-10.23-24.14-22.01-15.15-11.94,9.12-6.61,22.91-15.31,31.53-10.71,10.63-13.64-7.31-16.78-13.19-9.6-18.01-23.94-13.23-30.25,3.96-3.29,8.97-4.83,27.12-14.64,31.48-12.12,5.38-13.66-12.25-21.46-14.84-4.66-1.55-8.77-.34-12.19,2.35-2.93,2.31-4.94,5.59-5.94,9.18l-1.69,6.07c-.84,3.01-.89,6.18-.14,9.21l8.05,32.68c.64,2.57.61,5.23-.06,7.73-.1.39-.02.81.24,1.12l.58.67c.34.4,1,.18,1.04-.34.5-7.42.47-14.86-.32-22.19l-5.03-21.11c7.31,13.87,8.51,29.91,7.54,45.79-.06.96.25,1.9.88,2.63h0c.58.67,1.69.33,1.78-.55,1.34-12.99,1.35-26.84-.96-37.61l-5.97-17.94c10.69,15.26,11.51,39.48,9.69,57.7-.06.61-.13,1.22-.21,1.83-.11.87.11,1.73.61,2.45.17.24.33.49.48.74,2.79-15.95,3.98-32.16,1.07-48.19l-5.41-17.65c9.72,13.34,10.63,32.17,9.56,48.24,1.37.41,1.04-1.69,1.23-2.66,2.84-13.9,1.71-30.31-3.41-43.52-.79-2.03-3.28-4.76-2.24-6.16,12.69,18.1,12.1,41.02,7.82,61.89l4.09-10.42c3.1-14.28,3.7-29.35-2.18-42.98.23-2.38,1.02-.53,1.44.37,6.52,14.08,5.76,32.09,2.5,46.98-.55,2.51-2,5.46-2.66,8.03-.23.87-1.38,2.57.15,2.64,7.17-16.26,10.19-33.47,8.13-51.17l2.2,9.35c1.14,12.15-2.01,23.68-5.18,35.25l3.03-6.04c5.04-13.19,6.97-26.81,6.05-40.88l1.66,7.63c.71,14-3.48,27.58-8.47,40.47l6.7-13.66c5.16-13.49,6.79-27.32,6.18-41.67,1.08.59,1.12,3.87,1.24,5.11,1.35,14.59-2.28,28.02-7.79,41.39,1.2.19,1.88-2.18,2.34-3.1,9.46-18.74,13.24-38.86,10.08-59.69l2.82,8.2c2.56,18.35-4.41,36.23-11.66,52.69l10.24-20.48c5.68-15.7,8.31-31.97,4.8-48.45,2.63,3.61,3.62,10.07,3.87,14.52,1.01,18.36-6.75,35.68-14.39,51.84l11.15-20.19c5.56-13.94,9.49-28.66,7.2-43.73-.69-4.56-2.5-8.84-3.65-13.26,14.94,23.05,1.98,51.29-9.14,73.14l7.26-10.94c8.3-15.03,14.59-32.34,13.45-49.74-.32-4.92-2.29-9.58-3.07-14.39,8.69,13.43,6.25,30.71,2.62,45.5l5.2-12.8c2.46-9.81,2.36-19.07.6-28.9,1.32,1.35,1.89,4.62,2.26,6.48,3.55,17.51-2.58,33.39-10.21,48.81l11.81-20.25,4.79-17.27.39,7.84c-2.67,10.93-7.96,20.72-13.8,30.19,10.27-10.37,16.42-24.64,20.86-38.49,1.37.74.14,4.89-.17,6.1-1.13,4.4-3.6,8.91-5.33,13.12l-10.72,18.37c14.17-17.24,26.06-37.63,28.82-60.18l.2,9.45c-3.66,17.05-12.58,31.85-22.13,46.09,8.75-8.2,16.3-19.91,21.06-30.91,1.03-2.38,4.18-9.38,4.49-11.35l2.6-16.39.43,7.82c-2.02,16.77-10.89,31.24-20.24,44.78,15.24-14.39,24.81-36.42,25.51-57.43,1.17.14.75,3.07.75,4.04-.02,19.03-8.4,34.52-19.1,49.61,5.52-5.08,10.63-12.26,14.25-18.85,2.21-4.02,7.5-14.94,8.14-18.99.7-4.44,1.72-9.17,2.16-13.59.06-.65-1.57-4.38.69-4.39,1.6,15.82-2.94,31.02-11.88,44.02,3.03-1.87,5.65-5.64,7.5-8.66,1.48-2.42,6.41-11.87,6.76-14.08l2.54-15.99c.07-.44-1.53-3.1.43-2.79,1.17,10.78-1.32,22.13-6.29,31.75-2.76,5.34-6.9,9.8-10.1,14.83,8.71-6.77,15.78-16.79,19.09-27.3,1.45.03.5,1.94.27,2.8-.6,2.24-1.95,5.47-2.98,7.59-2.92,5.99-7.68,10.61-11.32,16.06,8.09-4.82,14.15-12.72,18.87-20.77,1.52.06.37,1.72.05,2.5-.69,1.67-1.92,3.36-2.73,5.01l-9.29,11.07c8.05-5.2,15.91-12.6,19.8-21.45,1.44.02.5,1.93.19,2.7-1.13,2.87-3.8,6.2-5.76,8.64-1.51,1.88-5.4,4.82-6.22,6.06-.21.32-.41,1.28.2,1.25,8.24-6.28,16.89-13.82,20.59-23.78,1.45.02.5,1.92.19,2.7-.67,1.73-1.89,3.39-2.68,5.08l-10.66,13.08c8.07-4.95,16.5-11.32,19.67-20.65l1.52.64-3.06,6.5-11.35,12.13c7.91-3.5,15.41-10.54,19.29-18.25,1.49.03.4,1.77.06,2.51-2.85,6.18-8.32,10.04-13.38,14.22,1.08,1.3,10.91-5.92,12.2-7.06,2.41-2.14,5.21-5.02,6.59-7.98,1.49.03.4,1.77.06,2.51-1.73,3.75-5.09,6.29-7.69,9.38,1.14,1.47,13.06-7.63,14.17-9.22,1.23,2.67-6.56,6.83-5.79,8.09,2.18-.34,4.95-.55,7.13-.4.91.06,2.99-.29,2.58,1.12-45.06,7.22-86.14,24.55-121.24,53.72-16.18,13.45-31.3,28.37-45,44.52-1.79,2.11-2.73,4.81-2.69,7.58l.29,18.48c9.15-3.94,19.34-5.73,29.16-4.59l-23.37,4.34-5.75,2.1.03,1.83c8.62-3.52,18.56-5.48,27.24-4.5,2.08.23,6,.25,6.57,2.7-9.34-2-19.23-1.08-28.38,1.36-1.86.5-3.65,1.17-5.41,1.87l.03,1.99c8.82-3.08,18.59-3.92,27.52-2.1l-19.56,1.79-7.93,2.44.02,1.41c5.37-1.58,10.96-2.44,16.31-2.49l-11.33,2.41-4.96,1.76.16,10.28c2.41.01,4.82.19,7.19.53l-7.17.83.09,5.48c.02,1.36,1.23,2.4,2.57,2.21,2.4-.33,4.64-.99,6.46-2.45,8.17-6.53-5.01-8.38-5.06-12,8.35-11.4,24.01-1.81,34.24-9.2,10.06-7.27-3.58-8.89-2.82-13.6,10.08-12.74,25.35-3.07,38.49-4.52,8.22-.9,15.25-6.71,10.2-15.25-2.62-4.44-11.07-7.09-5-12.66,8.95-8.21,24.97,2.6,35.8-3.3,11.87-6.47.68-14.06-5.92-18.72,1.99-9.83,16.23-4.85,23.08-4.41,6.22.4,16.45-1.72,20.69-6.58,8.19-9.38-10-15.25-10.06-21.68-.07-8.15,9.86-6.85,14.81-8.79,8.09-3.18,20.75-17.77,15.88-26.89ZM734.85,126.89c10.38-1.83,20.4-1.83,30.5,1.58l-14.96-.64-22.83,1.19,7.29-2.13ZM738.04,131.28c9.17-1.02,18.76-.55,27.1,3.72l-15.7-1.67c-12.46-.39-24.74,1.22-36.98,3.13l25.59-5.18ZM679.16,170.55c-4.36,2.5-9.9,4.67-14.86,5.82,4.21-3.03,9.75-5.04,14.86-5.82ZM715.6,165.66l17.19,2.73-.13.8-12.39-1.97c-5.54.56-11.11.71-16.64,1.45-9.08,1.2-17.72,4.05-26.7,5.61,1.53-1.74,4.55-2.25,6.73-2.91,6.72-2.04,25.67-6.7,31.94-5.71ZM699.76,164.78l6.67-2.01c7.88-1.45,16.14-1.68,24.05-.48-2.06,2.46-6.19.37-9.26.39-7.24.04-14.28,1.6-21.46,2.1ZM642.16,219.45l-15.82,5c8.3-5.13,19.27-8.4,29.08-7.67l-13.27,2.66ZM694.28,212.28c-4.23-.49-8.6-1.68-12.79-2.02-11.96-.96-26.3,1.08-37.77,4.5-3.88,1.16-7.51,3.63-11.55,4.05,20.07-11.53,42.86-14.31,65.03-6.88-.04,1.43-1.93.46-2.91.35ZM706.04,202.67l-16.39-2.6c-.6-.09-5.21.33-5.58,1.57,5.66.75,11.29,1.85,16.65,3.83,1.34.49,4.76,1.56,5.23,2.92-16.84-4.86-35.27-4.64-52.16-.21-7.3,1.92-13.9,5.43-21.12,7.44,11.98-7.69,26.79-11.14,40.7-13.61,1.95-1.5.63-1.15-.77-1.07-9.31.56-18.1,3.99-27.08,6.06,7.1-4.52,16.81-6.42,25.09-8.32.43-1.38-1.7-1.11-2.51-1.02-7.9.81-15.3,5.21-22.99,6.82,8.19-5.18,18.31-8.4,27.87-10.34.4-1.48-1.52-.92-2.34-.79-6.25.99-13.59,3.97-19.58,6.17-.77.28-2.28,1.44-2.72.15,8.46-3.79,17.39-7.43,26.21-10.19-8.62,1.16-16.73,3.8-24.58,7.57-2.99-.58,4.35-3.25,4.63-3.37,14.67-6.4,30.82-10.58,46.93-8.93l-22.21,3.01c-1.75-.23-3.71,1.38-4.77,1.72,7.59-1.02,15.38-1.32,23.02-.44l-15.09,2.1c-2.41,2.38,1.59.67,1.94.72l13.59,2.16c.59.09,2.14,1.67,3.47,1.38l-.12.79-12.39-1.97c-.49-.08-4.51.57-4.78,1.69l15.35,3.36,6.53,3.4ZM710.87,180.59c-11.59.03-23.28,1.28-34.51,4.11-8.06,2.04-15.65,5.67-23.64,7.87,22.53-12.23,49.46-16.41,74.71-11.09l-16.56-.89ZM739.89,175.26c-.7,2.16-3.86-.62-4.39-.71l-13.59-2.16-7.17,1.31c7.48.15,13.59,1.05,20.57,3.81,1.2.47,4.42,1.34,4.63,2.64-27.22-6.35-55.28-3.41-81,6.84.13-1.48,3.19-2.27,4.39-2.73,12.86-4.96,26.99-7.95,40.63-9.82.42-1.46-1.51-.84-2.36-.82-10.62.28-22.58,3.38-32.61,6.75-2.36-.19-.53-1.07.37-1.45,4.28-1.83,11.12-3.43,15.79-4.56,18.39-4.44,36.94-7.88,54.75.88ZM754.35,158.62c-4.52-.24-8.79-1.06-13.55-1.12-20.59-.26-40.6,3.31-60.2,9.16,4.55-2.62,10.77-4.4,15.94-5.81,19.88-5.42,40.51-7.37,60.92-3.3-.04,1.19-2.33,1.11-3.11,1.06ZM770.37,148.53c-5.46-1.47-10.83-3.92-16.67-3.47-.16,1.02,17.72,4.76,18.25,9.03-6.51-2.68-13.56-4.77-20.66-4.08l10.25,2.8,8.18,5.02c-21.4-6.12-43.86-5.86-65.41-.91-9.98,2.29-19.46,6.14-29.3,8.84,20.06-9.8,42.53-14.77,64.83-15.95.41-1.44-1.59-.96-2.48-.98-8.45-.25-20.41,1.57-28.83,3.18-9.77,1.87-19.01,5.19-28.51,7.99,17.89-8.86,38.8-14.19,58.85-14.44.36-1.46-2.48-1.2-3.38-1.25-8.32-.43-22.3,1.81-30.59,3.67-7.02,1.57-13.69,4.42-20.66,6.13,7.32-4.24,16.51-7.14,24.7-9.33,21.09-5.64,44.55-8.86,63.9,3.73-.08,1.58-1.63.24-2.45.02ZM775.06,144.77c-.05,1.52-1.7.34-2.5.05-4.5-1.6-8.79-3.97-13.51-5.05-19.16-4.37-41.88,1.26-60.91,4.26l8.11-2.95c22.92-6.04,48.02-11.25,68.82,3.69ZM773.32,124.8c-11.12-2.28-22.39-2.86-33.69-2.05-1.15-1.19.86-.75,1.51-.82,5.34-.6,10.72-.56,16.03-1.32,4.09,1.36,11.62.87,15.19,2.41.26.11,1.05,1.28.95,1.78ZM778.62,121.32c-9.57-2.44-18.93-3.66-28.78-3.52.63-1.21,3.9-.96,5.23-1.06,9.12-.69,17.78.93,26.2,4.43-.08,1.53-1.78.38-2.65.16ZM765.32,114.29c-.9-.06-2.87.51-2.47-.97,8.02-.49,18.18-.65,23.61,6.19-7.11-3.63-13.27-4.71-21.14-5.22ZM788.88,114.57l-15.68-4.53c6.73.15,12.13,1.37,18.13,4.52h-2.45Z"/>
  <path class="b" d="M31.83,170.34c5.99,4.59,12.31,4.56,17.54,9.93,2.01,7.57-20.29,4.05-14.72,15.39,5.08,10.35,21.45,12.29,31.62,11.61,3.84-.26,17.49-4.53,15.65,3.76-.01.06-.03.12-.04.18-.33,1.37.9,2.59,2.25,2.2l30.9-8.89c1.38-.39,2.79-.59,4.18-.59.06,0,.12,0,.17,0l33.38.03c1.78,0,2.47-2.32.98-3.29-19.43-12.68-40.51-22.52-64.01-30.48-18.32-6.2-39.43-10.34-57.1-17.3-2.6-1.03-5.13-1.79-4.87-4.92l5.77,3.45-3.64-6.23,11.22,9.38c-1.66-3.36-4.94-5.85-7.06-8.98-.48-.71-2.17-3.03-1.41-3.83,3.79,4.64,7.05,9.1,12.13,12.5.72.48,3.35,2.55,3.83.9-4.27-1.86-7.16-6.45-9.68-10.21.05-.62.96-.28,1.27-.03,4.3,3.56,7.82,11.11,14.43,12.9l-8.83-10-1.2-3.29c5.31,5.82,10.69,11.99,17.84,15.66l-12.44-13.31-2.1-4.77c6.56,8.04,14.05,15.46,23.14,20.69l-16.64-18.27-1.5-3.45,7.28,8.87c4.88,4.61,9.74,9.94,16.02,12.71l-16.64-18.27-2.59-5.48c.83-.4,5.52,7.46,6.5,8.63,3.78,4.54,11.22,11.9,16.15,14.94.71.44,2.27,1.78,2.52.29-6.68-5.12-12.66-11.49-16.38-19.07,1.58-.9,2.3,2.24,3.28,3.49,5.23,6.69,12.24,13.33,19.12,18.25-4.58-6.12-10.5-10.85-14.76-17.31-1.5-2.27-3.58-6.14-4.65-8.64-.47-1.1-1.51-1.85-.72-3.21,6.17,10.68,13.14,21.79,23.73,28.54l-15.38-19.59c-2.64-4.53-6.18-12.81-6.87-17.93-.12-.86-.42-2.77,1.04-2.19.42,3.8,1.81,8.15,3.32,11.64,3.99,9.18,10.66,18,18.06,24.71-8.21-12.51-19.09-27.14-18.11-43,.06-.91.01-4.3,1.61-3.81-1.85,9.04,2.44,17.93,5.7,26.08l6.07,8.2c-4.05-10.93-10.08-23.37-5.97-35.09.33,18.81,9.04,38.16,21.98,51.75.57.6,1.45,2.31,2.4,1.34-8.74-12.77-16.94-26.26-17.92-42.13-.09-1.51-.86-6.67,1.25-6.88-.7,18.98,10.88,39.64,23.71,53.11.57.6,1.45,2.31,2.4,1.33-9.27-12.57-21-31.1-20.39-47.36.03-.82.05-2.98,1.37-2.37.23,17.1,10.63,37,22.32,49.27.57.6,1.45,2.31,2.4,1.33-8.59-12.34-16.98-25.82-18.36-41.24-.07-.8-.56-3.43,1.05-2.85,1.83,18.13,12.7,37.88,25.21,51,.57.6,1.45,2.31,2.4,1.34-8.53-12.04-18.02-24.48-20.31-39.55-.12-.79-.81-3.97.95-3.46,1.44,15.03,10.72,27.83,19.21,39.81l5.38,5.64c-6.8-10.81-14.95-22.36-17.63-35.09-.26-1.25-1.82-6.36.38-6.42.97,11.56,7.34,21.55,12.59,31.57l7.91,10.49c-8.77-15.22-17.91-32.83-16.51-51.06.07-.93-.01-4.29,1.61-3.81-2.01,16.85,5.27,36.9,14.39,50.89.46.71.94,2.53,2.11,1.49-6.23-11.9-11.69-25.51-12.67-39.04-.25-3.42-.49-13.07.37-15.9l3.44-11.33-2.66,16.8c-.31,12.76,2.92,25.4,7.62,37.16,1.19,2.97,7,16.13,8.7,17.61.3.26,1.22.59,1.27-.03-10.64-19.09-17.85-39.83-12.73-61.91l3.02-7.18c-5.74,20.82-1.73,42.98,8.61,61.49l-5.01-16.62c-3.23-13.32-3.58-27.39,1.06-40.48.33-.94.29-3.08,1.6-2.49-6.38,22.94-.72,53.82,12.16,73.67.65,1,.7,2.28,2.26,2.38-7.32-13.82-11.99-28.98-12.38-44.75-.08-3.12-.15-12.26.6-14.72l3.68-12.11.78.24-3.44,11.33c-2.21,21.32,2.6,42.51,13.5,60.85.54.3.78-.65.73-1.04-.11-.92-3.7-7.8-4.46-10.06-3.33-9.87-6.04-22.07-5.23-32.54.07-.93-.01-4.29,1.61-3.81-1.68,13.57,1.78,27.95,6.88,40.5,1.51,3.72,3.88,9.2,6.02,12.49.24.37.48,1.03.83,1.44h.24s.16,0,.16,0h.16c.25.01.48.04.72.05,0,0,0,0,0,0-5.11-12.04-10.92-24.97-10.1-38.45.05-.91.02-4.3,1.62-3.81-1.13,14.03,3.89,29.56,10.79,42.57l2.41.47c-5.19-11.19-9.83-24.14-9.82-35.35,0-.99-.13-4.82,1.62-4.47-1,8.07,1.36,16.82,3.82,24.46,1.5,4.65,3.69,10.32,6.16,15.7l2.42.47c-5.51-12.88-10.21-26.8-8.7-40.33.14-1.22.33-5.52,2.1-5.38-2.65,15.8,1.82,31.62,8.49,46.07l2.2.43-4.39-12.24c-1.94-7.22-4.41-19.05-3.37-26.34.13-.87-.01-2.96,1.35-2.35-.8,13.96,3.05,28.55,8.68,41.38l1.13.22-6.7-29.84c-.47-7.78-1.07-16.17.6-23.88.27-1.26.95-5.52,2.54-5.61-4.98,17.98-1.87,37.45,4.8,54.36-.61-6.52-2.93-12.8-3.65-19.31-1.1-9.82-.26-19.86,1.4-29.58l4.35-8.5-3.92,12.89c-.8,2.62-.24,12.98-.1,16.41.47,11.61,2.68,23.08,6.2,34.13l2.41.47c-2.6-10.64-5.73-21.2-5.4-32.39.09-2.89.46-10.74,1.17-13.05l4.39-14.45.78.24-3.68,12.11c-2.57,15.64-.57,30.16,3.48,45.25.19.72.42,1.61.67,2.58l1.09.21c.53.1,1.05.24,1.56.4-.85-3.66-1.72-7.38-2.12-11.03-1.19-10.96-1.14-22.63,1.76-33.32l-1.39,19.38c.1,8.61,1.37,17.11,3.19,25.49,1.06.44,2.06,1,2.99,1.66-.84-5.18-1.28-10.43-.5-15.81.66-2.14.86-2.04.91.17.13,5.66.54,11.29,1.26,16.87l2.65,2.04c-.61-5.93-.75-11.88.62-17.4.22-.88.38-3.11,1.64-2.51-1.23,3.49-1.3,7.23-1.35,10.86-.04,3.24.09,6.62.38,10.03l2.47,1.9c-.04-.76-.06-1.53-.07-2.29,0-2.88.02-11.24.69-13.46l4.16-13.67c1.42.24.21,1.99-.04,2.96-2.46,9.41-3.14,18.71-2.66,28.05l.99.76,1.63-.96c-.13-9.73.46-19.36,4.72-28.87l4.52-6.83c-6.03,10.93-7.85,22.41-7.34,34.58l2.03-1.2h0c.18-.11.37-.21.56-.31.99-10.17,3.34-19.99,8.73-29.3,2.06,1.26-1.36,4.43-1.55,5.07l-5.23,17.18c-.48,1.59-.78,3.91-.96,6.55,1.77-.79,3.68-1.24,5.61-1.33.84-3.85,1.89-7.65,3.2-11.38.33-.94.29-3.08,1.6-2.49-1.34,4.56-2.41,9.18-3.28,13.84l3-.03c1.26-.01,2.38-.83,2.75-2.03.58-1.91,1.34-3.78,1.68-5.81,1.34-7.94,4.06-24.9-4.35-29.74-12.21-7.02-14.56,15.7-23.22,7.15-8.89-8.77-1.35-36.34-10.07-45.66-5.09-5.45-14.3.15-17.73,4.92-3.73,5.17-6.74,17.06-15.85,9.72-9.82-7.92-5.52-40.8-19.41-45.82-6.08-2.2-18.23,7.21-20.37,12.88-1.12,2.97-.77,10.11-3.82,11.73-6.04,3.21-15.41-12.33-19.11-15.99-6.89-6.81-19.41-14.45-28.81-8.2-10.35,6.87-3.65,16.59-7.32,25.53-12.65,2.15-27.5-2.73-39.07,5.25-12.29,8.47-2.22,24.77,6.72,31.63ZM72.6,202.56c12.5-5.73,25.94-11.43,39.99-10.86l-12.67,2.61c-9.12,2.59-17.74,7.52-27.32,8.25ZM110.31,203.96l-21.48,6.95c11.94-6.92,26.6-11.74,40.53-9.84l-19.06,2.9ZM109.5,199.99l-20.02,6c10.67-6.79,24.91-9.66,37.48-8.21l-17.46,2.22ZM124.54,194.48l-17.46,2.22-19,5.45c10.34-6.97,24.15-9.2,36.46-7.67ZM96.28,191.16c-12.53,2.91-24.22,9.71-37.13,10.72,16.99-7.03,34.83-14.37,53.61-13.55l-16.48,2.82ZM90.11,181.43c-6.25.08-12.08,2.64-17.69,4.87,8.37-1.82,17.93-3.57,26.49-3.71.68-.01,2.78.32,1.19,1.04-5.64.42-11.1,1.87-16.52,3.36-.43.12-2.85.36-1.94,1.28,9.19-.96,18.37-3.75,27.68-2.68l-15.89,2.69c-13.95,2.5-29.57,10.95-43.63,11.46-.68.02-2.78-.34-1.2-1.05,2.09.99,20.96-5.62,20.35-6.61-7.01.71-13.84,3.96-20.91,4.33-.82.04-2.85.26-2.24-1.13,8.33-.69,16.74-4.46,24.5-7.48.92-.36,1.62-1.3,2.11-1.5-7.99,1.74-15.62,5.28-23.87,5.53,12.58-4.29,25.84-10.82,39.32-11.54.82-.04,2.85-.26,2.24,1.13ZM86.91,177.92l-29.91,8.3-3.42.32c10.4-4.84,21.61-9.42,33.34-8.62ZM81.68,175.47l-22.84,4.98c-.99-1.6,20.67-7,22.84-4.98ZM75.67,172.79l-16.43,3.52c4.48-2.86,11.15-3.89,16.43-3.52ZM71.22,170.59l-17.44,4.06c4.93-2.85,11.73-4.6,17.44-4.06ZM39.72,170.38l19.01-3.59c-5.69,2.41-12.87,3.92-19.01,3.59ZM37.02,164.71l-6.26-1.33,19.85-.77-13.59,2.1ZM43.58,160.47l-7.07.84-9.73-1.69,16.8.86Z"/>
  <path class="c" d="M210.87,236.08c.03-.83.02-1.66,0-2.49l-.74-.06-.03-.03c.25.87.5,1.73.77,2.57Z"/>
  <path class="c" d="M203.67,230.44c.97,2.17,1.26.88,1.07-.57-.02-.18-.05-.37-.08-.55l-1.66-1.28c.22.8.45,1.6.68,2.4Z"/>
  <polygon class="c" points="339.68 396.5 339.85 395.58 338.73 396.5 339.68 396.5"/>
  <polygon class="c" points="335.33 396.5 335.33 396.5 335.33 396.5 335.33 396.5"/>
  <path class="c" d="M340.96,395.68c-.23,0-.57.41-.86.82h.87c.08-.23.15-.46.15-.71-.04-.07-.1-.11-.16-.11Z"/>
  <path class="c" d="M376.62,390.61l-.91-.57c-.53.01-.4.49-.5.86-.01,0-.02,0-.03,0-.27,0-.69-.89-.74-1.41h-5.97c.06.17.09.43.05.79-.17-.08-.3-.12-.41-.12-.56,0-.53.9-.81,1.41-.38-.68,0-1.63.45-2.08h-13.94c-.54.39-1.03.79-1.45,1.25-.04-.38-.15-.8-.3-1.23h-4.27c.16.55-.06,1.06-.35,1.59-.32-.42-.5-1.14-.21-1.59h-1.93c.18,1.32-.43,2.72-1.92,2.88.52-.71,1.22-1.65.86-2.55-.08-.02-.15-.03-.21-.03-.45,0-.61.52-.87.83-.16-.39-.11-.78.05-1.13h-1.64c.18,1.5-.08,2.86-1.99,3.38.28-.72,1.01-1.06.96-1.95-.1-.04-.19-.06-.28-.06-.44,0-.75.48-1.04.75-.23-.53.24-1.06.42-1.55.09-.23.31-.39-.06-.48l-.75.35-1.04,1.41c-.09-.72,0-1.33.19-1.84h-1.13c-.23,1.87-1.24,3.21-3.6,3.21-.21,0-.42-.01-.65-.03,1.12-.56,2.57-1.01,2.59-2.5-.04-.06-.1-.09-.18-.09-.43,0-1.37.7-1.7.7-.01,0-.02,0-.03,0l.4-1.28h-1.12s-.86,1.12-.86,1.12c-.02-.42,0-.79.05-1.12h-1.63c-.14.59-.38,1.16-.82,1.65-.22.25-.58.5-.93.5-.13,0-.26-.04-.38-.12.4-.67.75-1.28.95-2.02h-.98c-.23.17-.46.35-.71.41.05-.14.12-.27.18-.41h-1.18s-.48.84-.48.84c.13-.27.15-.55.15-.84h-1.82c-.28.82-.91,1.41-2.35,1.61.34-.51,1.24-.95,1.35-1.61h-4.74c-.22.55-.55,1-.96,1.49-.49-.47.49-.54.48-1.07l-.6-.28s.04-.09.06-.14h-1.5s-.49.75-.49.75c.03-.27.08-.52.15-.75l-21.43.02c-1.56,2.21-2.99,4.55-4.18,6.98h7.04c.11-.15.23-.29.33-.43l4.74-4.66c-1.56,1.71-3.24,3.34-4.77,5.08h3.54c.56-.55,1.11-1.07,1.63-1.54l3.81-3.12c-1.55,1.58-3.18,3.1-4.78,4.66h3.75c.75-.65,1.51-1.26,2.21-1.75.15-.11.3-.29.5-.29.03,0,.06,0,.09.01-.71.68-1.42,1.36-2.14,2.03h3.75c.28-.2.57-.39.85-.56-.2.19-.39.37-.59.56h7.03c.84-1.04.73-2.14.25-2.14-.28,0-.68.37-1.08,1.35-.57-1.59,1.13-3.07,2.63-3.19.49,1.31-.13,3.25-1.4,3.98h4.79c.37-.34.7-.71.64-1.11-.02-.14-.11-.28-.24-.28-.03,0-.07,0-.11.03l-.69.52.28-1.24c-.05-.17-.16-.23-.28-.23-.23,0-.53.22-.66.39-.23.31-.33,1.01-.69,1.02-.27-1.6,1.59-3.09,3-3.25.04,0,.08,0,.12,0,1.38,0,.63,2.94.16,3.72-.1.17-.25.3-.42.42h2.42c.11-.49.03-.93.27-1.4.59-1.15,2.49-1.91,3.97-1.91.31,0,.6.03.85.1-.06,1.1,0,2.27-.23,3.2h3.34s.94-1.2.94-1.2c-.29-.18-.56-.26-.8-.26-.7,0-1.23.61-1.86,1.08.14-1.23,1.07-1.74,2.12-2.09l3.01-.56c-.26.96.01,2.06-.31,3.02h1.49c.16-.6.12-1.22.5-1.76.53-.76,2.07-1.01,2.88-1.41.28,1.03.24,2.16-.13,3.16h3.01c.34-.73.58-1.54.14-1.54-.63.17-.9.66-1.11,1.25-.57-1.33.96-2.75,2.19-3.05.44.95.18,2.35-.48,3.34h13.74c.32-.9.73-1.67,1.69-1.95.37.65.26,1.3-.03,1.93h3.19c.23-.16.44-.35.56-.63.18.22.34.43.49.63h5.81c.04-.08.08-.16.12-.24.34-.57,1.03-.87,1.25-1.54.58.58,1.55,1.07,2.08,1.77h4.53c.12-.51.33-1.01.6-1.48.67.34,1.3.86,1.76,1.47h4.83s.12-.48.12-.48c.4.13.77.29,1.1.47h9.2c-1.85-1.97-4.05-3.68-6.41-4.88-1.56-.79-3.01-1.48-4.39-2.1h-10.28c.57.25,1.13.53,1.26,1.14ZM311.1,392.05l.16-1.39-.96.3c.19-.64.71-.89,1.3-1.06.43.81.07,1.54-.51,2.15ZM313.41,395.1s0,0-.01,0c.31-.67,1.05-2.09-.06-2.09-.03,0-.07,0-.11,0,.18-.59.54-.99,1.15-1.13.68.14.05,3.22-.98,3.22ZM347.7,395.43l.45-1.81-.66.25.63-1s0,0,0,0c.03,0,.32.33.33.38.16.6-.39,1.69-.75,2.18ZM357.22,393.83l-.38-.19-.77,1.13c.12-.74.48-1.71,1.34-1.78l-.19.83ZM364.25,393.68l.17-1.2-.49-.14c-.66.37-.43,1.09-.56,1.68-.85-1.05-.1-2.35,1.01-2.85.55.1.27,2.18-.12,2.51ZM368.93,396.33c-.35-.31.34-1.62-.22-1.75-.01,0-.03,0-.04,0-.28,0-.52.59-.6.82-.34-.07.3-.62-.17-.62h0c-.51,0-.48.91-.81.91-.06,0-.12-.03-.2-.08.15-1.06.63-2.14,1.57-2.7,1.56.97,1.33,2,.48,3.44ZM373,393.38c-.56-.21-.02-.83-.46-1.28-.1-.09-.23-.13-.35-.18l-.35.57c-.02-.52-.24-.82-.72-1.05-.09.7-.34,1.03.18,1.64-.06.16-.09.22-.12.22-.05,0-.09-.12-.2-.22-.97-.87.08-1.72.7-2.48,0,0,0,0,0,0,.12,0,.39.73.63.83.04.02.08.02.12.02.15,0,.31-.08.45-.08.08,0,.16.03.22.12.34.66.28,1.25-.11,1.89ZM388.01,394.24s.02,0,.04,0c.44,0,2.27,1.23,1.84,1.94l-1.24-.92v.82c-.79-.15-.71-1.19-.64-1.84ZM385.05,391.93c.51,0,1.38.76,1.49.98.02.05.03.5,0,.5l-1.16-.88-.33.14-.11.4-.23-.93c.06-.15.17-.2.32-.2ZM383.22,394.57c-.13,0-.25-.05-.35-.05-.12,0-.21.06-.27.33-.13.58.48.85.47,1.41-1.48-.64-1.04-1.45-.98-2.73l1.42.92c-.1.1-.2.13-.3.13ZM381.63,390.47c.53.23,1.28.44,1.32,1.14-.7-.07-1.47-.27-1.32-1.14ZM378.52,391.28c1.24.13,2.45,1.28,2.13,2.6-.44-.74-.37-1.53-1.42-1.73l-.26.8c-.17-.57-.73-1.02-.45-1.66ZM377.61,396.18l-.24-1.49-.52-.5-.24,1.36-.95-1.16c-.46.62-.15,1.02,0,1.64-1.43-.75-.85-2.44-.23-3.58,1.6.51,3.09,1.99,2.18,3.73Z"/>
  <path class="c" d="M409.13,393.29c1.02,2.09,3.44,3.1,5.28,3.08l2.55.04,6.43,6.18.52,7.58c.11,1.58,1.26,2.89,2.82,3.2l9.25,1.81,10,34.07c.16.51.42.99.79,1.39l14.57,15.75c.63.69,1.51,1.09,2.44,1.13l9.7.36,6.88,7c.22.24.49.43.77.59l74.97,42.53-8.09,30.3c-.1.39-.14.8-.1,1.21l.36,4.18c.05.6.25,1.16.58,1.64l-1.54,5.18c-.67-.53-1.51-.8-2.36-.76l-9.51.49c-1.6.09-2.94,1.24-3.26,2.82l-.96,4.94-5.32,7.66c-.77,1.11-.83,2.56-.17,3.73l2.63,4.62c.48.83,1.27,1.43,2.21,1.67.25.06.5.09.75.1.7.02,1.39-.17,1.99-.55l16.14-10.34c.53-.34.95-.8,1.23-1.36.58.37,1.28.55,1.98.53l6.82-.23,5.11,2.53c1.33.66,2.93.41,3.99-.62l5.23-5.07,8.97,1.75c.41.08.83.08,1.25.02l14.6-2.43s.07-.02.11-.02l31.22-6.22c.58-.11,1.12-.38,1.56-.75.31-.03.62-.1.93-.22l28.6-10.84c.39-.15.75-.36,1.07-.64l10.88-9.51,7.05.9c.63.08,1.26,0,1.84-.26l28.92-12.53.51-.28,21.39-13.87,19.36-9.59c.23-.11.46-.26.65-.42l6.99-5.68c1.32-1.08,1.72-2.99.78-4.55l-.08.04c-.48-.8-1.3-1.35-2.22-1.58l-9.42-2.42c-1.07-.28-2.22-.03-3.08.67l-6.99,5.68c-.38.31-.69.69-.91,1.13l-1.38,2.71-1.63.83-1.79-3.84c-.76-1.63-2.64-2.42-4.33-1.83l-9.39,3.29c-.14-.19-.31-.37-.5-.53l-4.12-3.61,1.01-.78,5.36-3.16,8.66-2.14c1.18-.29,2.2-1.12,2.59-2.28.63-1.86-.36-3.78-2.08-4.43l-6.58-2.46c-1.2-.45-2.56-.21-3.52.64l-3.67,3.19-2.29-.45c-.73-.14-1.48-.05-2.15.26l-7.12,3.3c-.8.37-1.43,1.03-1.76,1.84l-1.82,4.4-13.86,8.83c-.39.25-.72.56-.99.94l-2.66,3.79-7.41,2.93-45.15,2.18c-1.9.09-3.38,1.68-3.33,3.58l.08,3.09-3.07,1.55-9.5-.42-4.01-3.6c-.53-.47-1.17-.83-1.87-.92-1.69-.24-3.22.71-3.79,2.18l-.84,2.14-2.18-1.31c-.63-.38-1.36-.59-2.09-.54-1.8.14-3.11,1.52-3.26,3.17l-.15,1.58-2.64-.75c-.54-.15-1.11-.17-1.65-.06l-7.35,1.49c-1.17.24-2.13,1.04-2.56,2.15l-1.29,3.28-1.16-.23,6.58-10.27c.67-1.04.73-2.35.18-3.46l-5.8-11.52,20.96-13.63c.83-.54,1.4-1.41,1.55-2.39.16-.99-.12-1.98-.75-2.75l-7.73-9.47,2.11-93.94c.01-.52-.09-1.03-.3-1.5l-2.39-5.36,19.15-83.08c.23-1,0-2.05-.6-2.88l-3.87-5.2,4.16-8.85c.22-.48.34-1.01.33-1.54l-1.3-83.58c-.02-.82-.32-1.61-.85-2.23l-9.11-10.59c-.86-1-2.19-1.47-3.6-1.09-.7.19-1.31.62-1.78,1.17l-2.11,2.48-.97-4.88,5.66-8.06c.58-.82.78-1.87.54-2.85l-9.95-40.41,5.51-19.75,3.08-4.76c.43-.67.62-1.46.55-2.25l-1.1-11.13,4.39-11.21c.41-1.05.29-2.22-.32-3.17l-9.33-14.51.64-16.8,3.6-7.37c.67-1.37.37-3.01-.72-4.07l-5-4.79,4.22-7.72c.42-.78.53-1.68.32-2.53l-2.65-10.49c-.41-1.62-1.92-2.73-3.58-2.64l-121.98,6.53-13.57-3.22c-.83-.19-1.7-.09-2.44.32l-13.78,7.29-.43.27-40.51,29.63c-.2.14-.39.32-.55.51l-27.93,31.51c-.2.21-.35.45-.49.71l-6.2,11.98-41.12,27.1c-.81.54-1.37,1.39-1.53,2.36l-2.86,17.63c-.19,1.17.23,2.35,1.1,3.15l11.49,10.46c.47.43,1.06.73,1.69.85l5.25,1.03-.69,4.99-10.82,4.34c-.69.27-1.31.74-1.7,1.37-.97,1.54-.63,3.44.63,4.55l5.26,4.61,4.36,14.79-4.85,14.75-4.51,1.07-2.78.04c-1.86.03-3.51,1.15-4.3,2.84-.01.02-.02.05-.03.07-.9,1.94.58,4.15,2.71,4.11l4.88-.07c.25,0,.51-.04.75-.09l6.79-1.61c1.19-.28,2.14-1.15,2.52-2.31l5.8-17.64c.22-.67.24-1.4.04-2.08l-4.95-16.81c-.18-.64-.55-1.21-1.05-1.65l-1.74-1.53,7.48-3.01c1.16-.47,1.99-1.53,2.16-2.76l1.42-10.29c.26-1.84-.98-3.56-2.8-3.92l-7.54-1.47-9.36-8.52,2.31-14.24,40.6-26.76c.5-.33.91-.79,1.19-1.31l6.42-12.4,27.39-30.9,40-29.27,12.39-6.55,12.77,3.03c.33.08.66.11,1,.09l119.61-6.41,1.61,6.38-4.84,8.87c-.76,1.39-.49,3.11.65,4.21l5.09,4.87-2.8,5.74c-.21.43-.33.91-.35,1.4l-.71,18.64c-.02.72.16,1.42.56,2.03l8.96,13.93-4.05,10.33c-.2.51-.28,1.07-.22,1.62l1.07,10.75-2.7,4.18c-.2.29-.34.62-.44.97l-5.9,21.14c-.17.58-.17,1.2-.03,1.78l9.78,39.75-5.6,7.98c-.55.79-.76,1.75-.57,2.7l2.65,13.31c.19.94.7,1.81,1.5,2.33,1.55,1.02,3.5.68,4.62-.63l4.21-4.94,5.62,6.53,1.28,81.5-4.7,10.02c-.55,1.17-.41,2.55.36,3.58l4.16,5.57-19.05,82.64c-.17.74-.09,1.52.21,2.21l2.54,5.71-2.13,94.45c-.02.83.26,1.65.79,2.29l6.07,7.45-20.32,13.21c-1.5.97-2.02,2.92-1.22,4.51l6.31,12.53-9.61,15.01-9.89,7.57-.39.34-3.73,3.83,7-26.23c.41-1.54-.27-3.16-1.66-3.95l-76.9-43.63-7.51-7.64c-.62-.64-1.47-1.01-2.36-1.04l-9.64-.36-13.03-14.09-10.36-35.32c-.37-1.25-1.4-2.2-2.69-2.45l-8.7-1.7-.42-6.23c-.06-.87-.44-1.68-1.07-2.29l-8.42-8.1c-.65-.63-1.53-.99-2.43-.98l-5.76-.03c-2.46-.05-4.37,1.26-3.56,3.63M409.06,393.1c.04.06-.04-.06,0,0M544.14,569.92l-10.43,6.68,3.62-5.23c.28-.39.46-.85.56-1.33l.58-2.97,5.01-.26.83,1.02-.17,2.07ZM701.73,512.35c.88-.37,1.58-1.08,1.92-1.97l1.99-5.15,1.82,1.03-.95,1.06s-.07.08-.1.13l-9.48,11.53-3.15-.61,3.06-3.95,4.91-2.04v-.02ZM630.48,555.98h-.01s-.66-.99-.66-.99c-.21-.32-.46-.58-.75-.8l3.22.91s.06.01.09.02l-1.88.86ZM729.33,509.62l-.02-.03c-.12.06-.23.12-.36.2l-21.32,13.82-27.78,12.03-7.66-.97c-1-.13-2,.18-2.74.84l-7.26,6.35c-.2-.46-.5-.87-.89-1.21-.93-.82-2.23-1.09-3.41-.7l-24.76,8.12-5.66-1.6c-1.12-.32-2.32-.06-3.21.69l-4.96,4.2-15.08,3.16c-1.08.22-1.99.95-2.45,1.94l-2.02,4.3c-.29.61-.38,1.28-.3,1.93l-2.12.42-13.92,2.31-10.14-1.98c-1.12-.22-2.28.13-3.11.93l-4.76,4.62-3.68-1.82c-.45-.22-.95-.35-1.46-.36-.07,0-.14,0-.21,0l-5.94.2-1.07-1.36,2.69-9.07,9.44-9.7,9.22-.23c1.9-.05,3.42-1.61,3.41-3.52v-1.61c.95.12,1.92-.16,2.67-.78.81-.67,1.27-1.67,1.27-2.72v-1.6s1.47.29,1.47.29c1.65.32,3.32-.58,3.93-2.16l1.65-4.22,4.65-.95,5.88,1.67c1,.29,2.08.11,2.93-.48s1.41-1.52,1.51-2.56v-.22s1.04.62,1.04.62c.89.53,1.95.64,2.93.32.98-.33,1.76-1.07,2.13-2.03l.5-1.29,1.25,1.12c.61.55,1.38.86,2.19.89l11.66.52c.6.05,1.19-.1,1.73-.37l5.87-2.95c1.21-.61,1.96-1.87,1.93-3.22l-.05-1.88,42.32-2.04c.38-.02.76-.1,1.12-.24l8.93-3.53c.64-.25,1.18-.68,1.57-1.24l2.86-4.08,6.89-4.39-.97,2.51-4.38,1.82c-.57.24-1.06.61-1.43,1.09l-7.09,9.17c-.75.96-.93,2.24-.51,3.37.43,1.13,1.41,1.97,2.6,2.2l10.77,2.11c1.26.25,2.56-.22,3.37-1.21l10.75-13.08,1.08-1.2,3.24,1.42c.91.39,1.95.39,2.85-.02.9-.42,1.59-1.19,1.89-2.14l1.04-3.3,6.1-2.14,1.98,4.23c.07.14.13.27.22.4l-.84.42ZM748.5,500.09l-3.67,1.82,3.88-3.15,1.08.28-1.3,1.05h.01Z"/>
  <path class="c" d="M326.76,395.12l-1.16,1.39h1.64c.24-.59.47-1.18,1.05-1.52-.24-.14-.47-.21-.7-.21-.29,0-.57.11-.83.34Z"/>
  <path class="c" d="M274.56,389.59l-267.36.29,1.76-29.24,27.1-16.32c.5-.3.91-.72,1.2-1.22l4.67-7.91,23.75-9.37c.83-.33,1.51-.96,1.89-1.77l5.58-11.91,14.28-8.2c.23-.13.45-.29.64-.47l5.74-5.33c.97-.9,1.35-2.27.98-3.54l-5.99-20.54c-.27-.92-.9-1.68-1.74-2.13l-7.87-4.08-6.12-16.86,2-15.18,44.7-12.85,47.41.04,23.79,4.66,15.71,12.08c.53.41,1.17.66,1.84.71l5.21.43c.72.05,1.44-.1,2.06-.48l11.16-6.58,18.75-.18,3.75.73c2.12.42,4.11-1.18,4.17-3.34.05-1.71-1.15-3.2-2.83-3.53l-4.1-.8c-.23-.05-.47-.06-.71-.07l-20.04.19c-.61,0-1.21.17-1.74.48l-11.01,6.49-3.07-.25-15.55-11.96c-.43-.33-.93-.55-1.46-.66l-24.94-4.88c-.22-.05-.44-.06-.67-.07l-48.24-.04c-.33,0-.65.04-.97.13l-47.38,13.62c-1.34.38-2.32,1.53-2.5,2.9l-2.4,18.31c-.07.56,0,1.12.18,1.66l6.89,18.95c.3.83.9,1.5,1.68,1.92l7.76,4.02,4.96,17.02-3.87,3.59-14.9,8.56c-.62.35-1.12.9-1.42,1.55l-5.46,11.64-23.57,9.3c-.73.29-1.33.8-1.73,1.47l-4.83,8.18-27.92,16.82c-.99.59-1.61,1.64-1.68,2.79L0,393.16c-.06.96.29,1.91.95,2.61.66.7,1.58,1.1,2.55,1.1l271.03-.29c1.38,0,2.64-.82,3.17-2.09,0-.02.02-.05.03-.07.95-2.29-.69-4.81-3.17-4.81Z"/>
  <path class="c" d="M360.23,395.93s-.03,0-.05,0c-.3,0-.45.36-.64.55h1.01c.03-.24.11-.49-.33-.55Z"/>
</svg>