<?xml version="1.0" encoding="UTF-8"?>
<svg id="a" data-name="Layer 1" xmlns="http://www.w3.org/2000/svg" width="800" height="634" viewBox="0 0 800 634">
  <defs>
    <style>
      .b {
        fill: #fff;
      }
    </style>
  </defs>
  <path class="b" d="M295.43,243.95v56.35c0,2.38-1.93,4.31-4.31,4.31s-4.31-1.93-4.31-4.31v-56.35c-16.49-2.38-27.94-17.68-25.56-34.18,2.38-16.49,17.68-27.94,34.18-25.56,16.49,2.38,27.94,17.68,25.56,34.18-1.91,13.24-12.31,23.64-25.56,25.56Z"/>
  <path class="b" d="M784.55,514.41c-.5-.79-1.34-1.31-2.26-1.52l-9.48-2.17c-1.08-.25-2.22.03-3.06.75l-6.84,5.86c-.37.32-.67.71-.88,1.15l-1.31,2.75-1.61.87-1.89-3.79c-.8-1.61-2.7-2.35-4.38-1.71l-9.3,3.54c-.15-.19-.32-.36-.51-.52l-4.21-3.5.99-.81,5.27-3.3,8.6-2.37c1.17-.32,2.17-1.18,2.53-2.35.58-1.88-.46-3.77-2.2-4.37l-6.64-2.28c-1.21-.42-2.56-.14-3.5.73l-3.58,3.29-2.3-.39c-.73-.12-1.48-.01-2.14.32l-7.03,3.49c-.79.39-1.4,1.07-1.71,1.89l-1.7,4.45-13.62,9.2c-.38.26-.7.58-.96.97l-2.56,3.86-7.33,3.13-45.08,3.38c-1.9.14-3.33,1.77-3.23,3.67l.16,3.09-3.03,1.63-9.51-.17-4.1-3.49c-.53-.45-1.17-.78-1.86-.87-1.71-.21-3.23.78-3.77,2.28l-.78,2.16-2.21-1.25c-.64-.36-1.37-.56-2.1-.48-1.8.19-3.07,1.6-3.18,3.26l-.11,1.58-2.66-.68c-.54-.14-1.11-.14-1.65-.02l-7.31,1.69c-1.16.27-2.1,1.1-2.5,2.22l-1.2,3.31-1.17-.2,6.3-10.44c.64-1.06.67-2.37.09-3.46l-6.1-11.36,20.59-14.18c.82-.56,1.36-1.45,1.49-2.43.13-.99-.17-1.98-.82-2.73l-7.98-9.26-.39-93.96c0-.52-.12-1.03-.34-1.49l-2.53-5.29,16.93-83.56c.2-1.01-.05-2.05-.68-2.86l-4.01-5.09,3.92-8.96c.21-.49.31-1.02.29-1.55l-3.53-83.52c-.04-.82-.36-1.6-.91-2.21l-9.39-10.34c-.89-.98-2.23-1.41-3.63-.99-.69.21-1.29.65-1.74,1.21l-2.05,2.54-1.1-4.85,5.44-8.21c.56-.84.73-1.89.46-2.86l-11.02-40.13,4.98-19.89,2.95-4.84c.41-.68.58-1.48.49-2.26l-1.4-11.1,4.09-11.32c.38-1.06.23-2.23-.4-3.16l-9.71-14.26.19-16.81,3.4-7.46c.63-1.39.29-3.02-.83-4.05l-5.13-4.65,4.01-7.83c.4-.79.49-1.69.25-2.54l-2.93-10.42c-.45-1.61-1.99-2.68-3.65-2.54l-121.76,9.78-13.65-2.86c-.83-.17-1.7-.04-2.43.38l-13.58,7.65-.42.28-39.71,30.7c-.2.15-.38.33-.54.52l-27.08,32.24c-.19.22-.34.46-.47.72l-5.88,12.14-40.38,28.19c-.8.56-1.33,1.43-1.47,2.4l-2.39,17.7c-.16,1.17.29,2.34,1.18,3.12l11.76,10.15c.48.42,1.08.7,1.71.8l5.28.89-.56,5.01-10.7,4.63c-.68.29-1.29.77-1.66,1.41-.93,1.57-.54,3.46.75,4.53l5.38,4.47,4.75,14.67-4.46,14.87-4.48,1.19-2.78.11c-1.86.08-3.48,1.24-4.22,2.95-.01.02-.02.05-.03.07-.85,1.96.69,4.13,2.82,4.04l4.88-.2c.25-.01.51-.05.75-.11l6.74-1.79c1.18-.31,2.11-1.21,2.46-2.38l5.33-17.79c.2-.68.2-1.41-.02-2.08l-5.4-16.67c-.2-.63-.58-1.19-1.09-1.62l-1.78-1.48,7.4-3.21c1.15-.5,1.95-1.58,2.09-2.82l1.15-10.32c.21-1.85-1.07-3.53-2.9-3.84l-7.58-1.27-9.58-8.27,1.93-14.3,39.87-27.83c.49-.34.89-.81,1.15-1.34l6.09-12.57,26.56-31.62,39.21-30.32,12.21-6.88,12.85,2.69c.33.07.66.09,1,.06l119.4-9.59,1.78,6.33-4.6,9c-.72,1.41-.41,3.12.76,4.19l5.22,4.73-2.65,5.81c-.2.44-.31.92-.31,1.41l-.21,18.65c0,.72.2,1.42.61,2.01l9.33,13.69-3.77,10.43c-.19.52-.25,1.08-.18,1.63l1.36,10.72-2.59,4.25c-.19.3-.32.63-.41.98l-5.33,21.29c-.15.58-.14,1.2.02,1.78l10.84,39.48-5.39,8.13c-.53.8-.71,1.77-.5,2.71l3,13.24c.21.93.75,1.79,1.56,2.29,1.58.98,3.52.59,4.6-.75l4.08-5.05,5.79,6.38,3.45,81.44-4.43,10.14c-.52,1.18-.34,2.56.46,3.57l4.31,5.46-16.84,83.12c-.15.74-.05,1.52.27,2.2l2.69,5.64.39,94.47c0,.83.3,1.64.85,2.27l6.27,7.29-19.96,13.75c-1.47,1.01-1.94,2.97-1.1,4.54l6.64,12.36-9.21,15.26-9.68,7.83-.38.35-3.63,3.93,6.3-26.41c.37-1.55-.35-3.15-1.76-3.9l-78.03-41.57-7.71-7.44c-.64-.62-1.5-.97-2.39-.98l-9.65-.1-13.4-13.74-11.3-35.03c-.4-1.24-1.46-2.16-2.75-2.38l-8.74-1.47-.59-6.22c-.08-.87-.48-1.67-1.13-2.26l-8.63-7.87c-.67-.61-1.56-.95-2.46-.91l-411,11.39.98-29.28,26.66-17.04c.49-.31.89-.74,1.17-1.25l4.46-8.03,23.49-10c.82-.35,1.48-1,1.84-1.82l5.26-12.05,14.06-8.58c.23-.14.44-.3.63-.49l5.6-5.48c.95-.93,1.29-2.31.89-3.57l-6.53-20.37c-.29-.91-.94-1.66-1.8-2.08l-7.98-3.87-6.57-16.69,1.59-15.23,44.34-14.04,47.39-1.22,23.91,4.02,16.03,11.66c.54.4,1.19.63,1.86.66l5.22.29c.72.03,1.44-.14,2.05-.53l10.98-6.87,18.74-.68,3.77.63c2.13.36,4.08-1.29,4.08-3.45h0c0-1.71-1.23-3.17-2.92-3.45l-4.12-.69c-.23-.04-.47-.05-.71-.05l-20.03.72c-.61.02-1.21.2-1.73.53l-10.83,6.78-3.08-.17-15.86-11.54c-.44-.32-.94-.53-1.48-.62l-25.06-4.21c-.22-.04-.44-.05-.67-.05l-48.22,1.24c-.33,0-.65.06-.97.16l-47,14.88c-1.33.42-2.28,1.59-2.42,2.97l-1.91,18.37c-.06.56.02,1.12.22,1.65l7.39,18.76c.32.82.94,1.48,1.73,1.87l7.86,3.81,5.41,16.88-3.77,3.69-14.67,8.95c-.61.37-1.1.93-1.38,1.59l-5.15,11.78-23.31,9.92c-.72.31-1.31.84-1.69,1.52l-4.61,8.31-27.46,17.56c-.97.62-1.57,1.68-1.61,2.83l-1.17,34.84c-.03.96.34,1.9,1.02,2.58.68.68,1.61,1.06,2.58,1.03l413.3-11.46,6.59,6.01.72,7.56c.15,1.58,1.34,2.86,2.9,3.12l9.29,1.56,10.9,33.79c.17.51.45.98.83,1.37l14.98,15.36c.65.67,1.54,1.05,2.47,1.06l9.71.1,7.06,6.81c.23.23.5.42.79.57l76.08,40.52-7.28,30.5c-.09.39-.12.8-.07,1.21l.47,4.17c.07.6.28,1.15.62,1.62l-1.4,5.22c-.68-.51-1.53-.76-2.38-.7l-9.49.74c-1.6.13-2.91,1.32-3.18,2.91l-.83,4.96-5.11,7.8c-.74,1.13-.76,2.58-.07,3.73l2.75,4.55c.5.82,1.31,1.4,2.25,1.61.25.05.5.08.75.08.7,0,1.38-.21,1.97-.6l15.86-10.77c.52-.35.93-.83,1.19-1.39.59.35,1.29.52,1.99.48l6.81-.41,5.18,2.39c1.35.62,2.94.33,3.97-.73l5.09-5.21,9.01,1.51c.41.07.83.06,1.25-.01l14.53-2.82s.07-.02.11-.02l31.04-7.05c.58-.13,1.11-.41,1.54-.79.31-.04.62-.12.92-.24l28.3-11.6c.39-.16.74-.38,1.05-.67l10.62-9.8,7.07.71c.63.06,1.26-.04,1.83-.31l28.58-13.3.5-.29,21.01-14.43,19.1-10.1c.23-.12.45-.27.64-.44l6.84-5.86c1.29-1.11,1.64-3.03.66-4.57ZM570.37,594.52l-10.25,6.96,3.48-5.32c.27-.4.44-.86.52-1.34l.5-2.98,5-.39.86,1-.11,2.07ZM726.37,532.77c.87-.39,1.55-1.12,1.87-2.02l1.85-5.2,1.85.98-.92,1.08s-.07.08-.1.13l-9.17,11.78-3.17-.53,2.95-4.03,4.85-2.17ZM656.3,578.28l-.69-.97c-.22-.31-.48-.57-.77-.78l3.24.82s.06.01.09.02l-1.86.91ZM753.87,529.28c-.12.06-.23.13-.35.21l-20.94,14.38-27.45,12.77-7.68-.77c-1-.1-1.99.23-2.72.91l-7.09,6.54c-.21-.45-.52-.86-.92-1.19-.95-.8-2.26-1.03-3.43-.61l-24.53,8.78-5.7-1.45c-1.13-.29-2.32,0-3.19.78l-4.85,4.33-14.99,3.56c-1.07.25-1.96,1-2.4,2l-1.9,4.35c-.27.62-.35,1.29-.25,1.94l-2.11.48-13.85,2.68-10.19-1.71c-1.13-.19-2.28.19-3.08,1.01l-4.64,4.75-3.73-1.72c-.46-.21-.96-.32-1.47-.32-.07,0-.14,0-.21,0l-5.93.36-1.11-1.33,2.45-9.14,9.18-9.95,9.21-.48c1.9-.1,3.38-1.7,3.32-3.61l-.05-1.61c.96.09,1.92-.21,2.66-.85.79-.69,1.23-1.7,1.2-2.75l-.05-1.6,1.48.25c1.66.28,3.3-.67,3.87-2.26l1.54-4.26,4.62-1.07,5.92,1.51c1.01.26,2.08.05,2.92-.56.84-.61,1.37-1.56,1.44-2.6v-.22s1.05.59,1.05.59c.9.51,1.97.59,2.94.24.97-.36,1.73-1.12,2.08-2.09l.47-1.3,1.28,1.09c.62.53,1.4.82,2.21.83l11.67.21c.6.03,1.19-.13,1.72-.42l5.79-3.11c1.19-.64,1.91-1.92,1.84-3.27l-.1-1.88,42.25-3.17c.38-.03.76-.12,1.11-.27l8.83-3.77c.63-.27,1.16-.71,1.54-1.28l2.75-4.15,6.77-4.57-.9,2.53-4.33,1.94c-.56.25-1.04.64-1.4,1.13l-6.84,9.36c-.72.98-.87,2.26-.42,3.38.46,1.12,1.46,1.93,2.66,2.13l10.82,1.82c1.27.22,2.55-.29,3.34-1.3l10.4-13.36,1.05-1.23,3.28,1.33c.92.37,1.96.34,2.85-.1.89-.44,1.56-1.23,1.83-2.19l.95-3.33,6.04-2.3,2.09,4.18c.07.14.14.27.23.39l-.83.44ZM772.8,519.27l-3.62,1.92,3.79-3.25,1.09.25-1.27,1.08Z"/>
  <path class="b" d="M759.9,499.24c.44,0,.88-.08,1.3-.25l11.3-4.53c1.5-.6,2.4-2.16,2.16-3.76-.23-1.6-1.54-2.83-3.15-2.98l-7.5-.68c-1.23-.11-2.42.43-3.14,1.42l-3.8,5.2c-.92,1.26-.9,2.98.06,4.21.68.87,1.71,1.35,2.77,1.35Z"/>
</svg>