<?xml version="1.0" encoding="UTF-8"?>
<svg id="a" data-name="Layer 1" xmlns="http://www.w3.org/2000/svg" width="1769.68" height="1509.17" viewBox="0 0 1769.68 1509.17">
  <defs>
    <style>
      .b {
        fill: #fff;
      }
    </style>
  </defs>
  <path class="b" d="M1017.14,1059.41c5.25,10.96,10.53,22.56,17.11,30.81-.3-7.89-1.91-15.07-5.62-21.49-3.43-5.93-7.32-8.69-11.48-9.32Z"/>
  <path class="b" d="M692.19,1152.18c2.49-4.11,5.07-7.6,7.14-10.4,1.07-1.45,2.54-3.43,2.95-4.16.61-1.11,1.34-2.99,2.18-5.17,3.99-10.28,11.42-29.43,35.82-41.07,9.73-4.64,19.25-6.9,29.1-6.9,10.73,0,19.1,2.72,25.22,4.7,1.68.54,3.16,1.02,4.5,1.39.2.05.4.09.61.11.69.07,1.78.12,2.88.16-46.29-29.31-128.93-36.14-189.43-27.37-4.17.61-8.04-2.28-8.65-6.46-.61-4.17,2.28-8.04,6.46-8.65,51.76-7.5,119.34-3.85,169.4,14.86,4.18,1.56,8.02-2.93,5.82-6.8-53.61-94.27-105.26-176.08-153.59-251.44-3.79-5.91-9.09-10.71-15.36-13.86-117.96-59.23-295.61-66.16-392.94-64.88-4.21.07-7.68-3.31-7.73-7.52-.06-4.21,3.31-7.67,7.52-7.73,91.41-1.22,252.75,4.81,372.15,53.85l5.96-7.18c-27.11-42.17-53.76-83.78-79.76-126.05-.12-.21-.26-.39-.38-.62-60.88-99.02-118.13-201.68-169.16-323.7-1.63-3.89.21-8.38,4.1-9.98,3.88-1.62,8.35.2,9.98,4.09,41.46,99.14,87.14,185.54,135.59,267.68,3.06,5.18,11.01,2.97,10.92-3.05-1.68-101.93,41.29-222.96,71.58-308.23,4.37-12.3,8.44-23.76,12.04-34.23,1.38-3.99,5.72-6.11,9.7-4.73,3.98,1.37,6.1,5.71,4.73,9.69-3.62,10.51-7.71,22.04-12.09,34.39-35.32,99.39-88.18,248.22-65.21,354.1,1.79,4.46,3.54,8.83,5.33,13.29,27.13,43.92,54.96,87.2,83.27,131.23,18.37,28.56,37.27,57.95,56.62,88.51,3.27,5.16,11.18,3.58,12.19-2.45,19.61-116.94,88.84-234.59,146.99-304.73,2.69-3.23,7.5-3.69,10.74-1,3.25,2.69,3.7,7.5,1.01,10.74-61.56,74.25-135.8,202.72-147.35,325.35-.51,5.43.8,10.87,3.68,15.49,36.36,58.42,74.13,121.4,112.84,191.15.17.26.31.52.44.79.08.14.16.29.24.43,2.37,4.28,6.44,7.4,11.21,8.5,37.21,8.57,73.07,31.42,102.2,65.39,6.3,7.35,11.47,14.59,16.46,21.6,1.27,1.78,2.53,3.55,3.81,5.32h0c.7.97,1.79,1.58,2.97,1.74,2.47.32,4.81.77,7.04,1.33,6.56,1.64,13.41-.8,17.38-6.27.05-.07.1-.14.15-.21,4.29-5.9,9.17-12.1,15.83-17.52,5.53-4.5,11.64-7.88,18.12-10.08s10.95-7.58,12.08-14.15c5.15-29.95,11.74-54.44,1.12-72.79-21.64-37.4-61.11,51.24-77.92,6.51-16.8-44.73,106.68-184.26,58.12-244.65-48.55-60.4-165.05,104.61-185.01,68.47-64.29-116.34,226.21-336.22,136.18-499.69-90.04-163.46-239.86,198.91-264.72,152.02-24.86-46.88,105.18-386.15,45.57-450.66-36.43-39.43-52.22,43.07-78.42,17.39-26.2-25.68-23.71-102.57-71.3-91.87-98.37,22.13-80.47,181.19-123.06,175.57-69.97-9.23-10.78-148.06-96.02-189.5-80.3-39.04-96.48,25.77-118.22,41.27-1.33.95-2.69,1.72-4.08,2.27-24.07,9.39-56.35-15.04-84.54,42.11-28.2,57.15,84.34,175.83,60.08,225.42-9.34,19.08-171.31-60.39-220.29,62.4-52.16,130.77,322.17,160.76,311.24,212.46-10.93,51.7-301.81-41.87-279.93,84.82,34.45,199.41,580.07,190.79,585.6,267.01,5.52,76.22-193.57-71.8-250.6,104.14-48.03,148.2,222.95,61.87,318.69,101.67.02,0,.04,0,.05-.02.7-1.24,1.41-2.48,2.14-3.69Z"/>
  <path class="b" d="M910.7,1195.14c-2.38-3.19-4.83-6.32-7.42-9.35-14.07-16.41-31.61-31.28-51.29-41.45,12.54,23.57,25.15,47.91,37.84,73.07.37-.28.73-.56,1.1-.84,1.18-.92,3.04-2.57,4.83-4.17,3.75-3.34,8.42-7.49,14.03-11.42,1.89-1.33,2.29-3.97.91-5.83Z"/>
  <path class="b" d="M714.37,1288.84c.58,2.3,2.96,3.61,5.23,2.93,7.02-2.12,13.74-3.25,19.34-4.2,2.4-.4,4.88-.82,6.28-1.15,48.61-11.52,92.01-31.14,132.17-59.78-15.96-31.71-31.82-62.11-47.54-91.33-5.59-1.68-11.29-2.96-17.09-3.76-7.51-1.04-15.48-.15-22.86-2.02-8.16-2.06-13.82-5.03-20.51-5.03-3.51,0-7.29.81-11.87,3-14.19,6.77-13.65,17.54-20.19,29.42-3.05,5.55-7.59,10.48-10.92,15.97-2.36,3.91-4.46,7.96-6.33,12.11.93,2.78,1.61,5.73,2.02,8.88,1.69,13.21-3.67,20.91-11.97,26.23-3.27,22.77-1.35,46.69,4.24,68.73Z"/>
  <path class="b" d="M907.91,1412.11c-.89-1.9-.18-4.16,1.62-5.24,22.97-13.69,41.3-33.35,53.14-56.1.55-1.07.59-2.32.14-3.44-6.1-15.07-10.18-30.93-11.98-47.12-2.67-24.03-.21-47.95,6.98-70.32-.39-.19-.78-.38-1.2-.55-2.1,3.84-4.86,7.38-8.26,10.46-30.89,27.92-65.47,51.36-102.75,69.67-33.96,16.68-69.58,28.78-106.06,36.09,49.22,36.97,113.09,71.22,171.05,72.9-.86-2.28-1.77-4.43-2.67-6.37Z"/>
  <path class="b" d="M993.99,1452.81c-12.02-9.55-19.34-22.39-20.61-36.15-.04-.4-.07-.81-.1-1.21-.02-.35-.09-.68-.19-.98-.82-2.57-4.75-1.39-4.16,1.25,5.32,23.96,16.04,94.8,18.41,93.44,1.02-.59,12-9.65,21.61-17.56,7.28-6,13.76-11.35,14.52-11.84.72-.47-1.4-6.15-4.85-14.27-.27-.64-.84-1.1-1.51-1.26-8.12-1.92-16.06-5.8-23.1-11.4Z"/>
  <path class="b" d="M666.59,1240.19c-.89.3-2.62.85-3.7,1.65-4.89,5.29-6.52,5.51-6.47,14.99.02,4.35,3.92,11.67,10.92,20.85,1.29,1.7,4.01.57,3.7-1.54-1.87-12.39.44-37.6-4.45-35.95Z"/>
  <path class="b" d="M1079.83,1197.81c-5.25-7.74-3.56-18.22,3.84-23.93,3.72-2.87,7.5-5.66,11.44-8.25,29.38-19.34,66.43-32.26,101.98-27.15,7.51,1.08,14.92,4.13,22.53,4.37,12.82.42,20.64-2.79,31.69,6.99,11.77,10.43,8.27,20.63,11.28,33.85,1.4,6.17,4.41,12.16,6.08,18.36,10.68,39.47-1.36,83.77-22.63,118.45-4.87,7.94-15.13,10.65-23.35,6.27-57.28-30.52-106.4-75.29-142.85-128.97Z"/>
  <path class="b" d="M890.25,1417.61c-.4,3.29-.12,6.6-.32,9.92-.54,8.71-5.83,22.07,4.81,26.26,5.56,2.19,16.72-1.9,18.97-7.65,3.01-7.72.05-19.74-3.69-29.16-1.87-4.71-.26-10.14,4-12.89,51.35-33.24,77.62-96.95,56.03-156.3-4.01-11.04-7.96-19.67-21.42-19.95-12.81-.26-23.58,12.85-33.13,20.28-48.39,37.66-101.38,63.07-161.04,77.21-11.17,2.65-28.44,3.14-36.07,12.14-10.86,12.81-3.14,24.04,4.78,35.66,33.35,48.93,93.32,66.35,149.16,50.26,5.42-1.56,11.14-4.39,16.3-5.73.59-.15.83-.62,1.63-.07Z"/>
  <path class="b" d="M1230.94,1362.48c-4.85-10.76-21.31-16-31.32-21.63-53.44-30.07-97.35-69.12-133.46-118.68-7.13-9.78-13.86-25.36-26.24-28.64-13.02-3.45-19.19,3.76-26.1,13.26-1.31,1.8-2.56,3.63-3.76,5.47-4.2,6.46-5.09,14.54-2.45,21.78l.03.08c6.93,19.06,10.29,38.93,9.98,59.07-.24,15.59-2.68,31.05-7.24,46.1-1.85,6.09-.9,12.67,2.61,17.99,2.57,3.9,5.34,7.69,8.31,11.35,4.94,6.09,5.19,14.7.74,21.15-5.12,7.4-9.46,16.2-8.81,23.2.57,6.15,10.17,13.16,16.12,12.59,11.38-1.09,9.99-15.39,11.87-23.91.72-3.24,1.9-6.35,2.43-9.62.92-.31,1.03.21,1.55.51,4.59,2.71,9.3,7,14.08,10,49.23,30.89,111.68,30.7,157.24-7.12,10.82-8.98,21.34-17.64,14.44-32.96Z"/>
  <path class="b" d="M909.08,1220.94c7.18-5.98,8.45-16.53,2.91-24.06-2.78-3.79-5.65-7.51-8.72-11.09-22.9-26.7-54.94-49.35-90.52-54.25-7.51-1.04-15.48-.15-22.86-2.02-12.43-3.14-19.06-8.38-32.39-2.03-14.19,6.77-13.65,17.54-20.19,29.42-3.05,5.55-7.59,10.48-10.92,15.97-21.16,34.98-21.82,80.89-10.95,120.09,2.49,8.98,11.6,14.41,20.71,12.47,63.48-13.52,123.05-42.99,172.91-84.51Z"/>
  <path class="b" d="M1767.52,448.04c-23.27-75.22-70.27-24.31-82.05-55.65-11.77-31.34,40.12-79.69,21.23-114.41-18.91-34.72-36.19-21.75-47.97-32.54-11.78-10.79-8-57.05-39.52-76.3-1.24-.76-2.48-1.38-3.7-2.03-29.85-15.88-54.76-1.37-79-13.74-25.24-12.87-45.64-35.98-66.76-36.13-21.13-.14-40.8,22.6-58.35,23.43-17.55.83-68.07-78.01-128.39-29.78-60.3,48.24-50.22,127.25-59.56,137.89-9.34,10.65-83.8-88.6-144.48-27.95-80.56,80.5,26.51,217.51,4.45,234.38-5.43,4.15-14.1-.81-24.76-9.87-3.86-3.28-9.75-.37-9.48,4.69.42,8.16.35,16.43-.22,24.8-1.94,28.18-9.35,57.14-22.63,88.55-13.35,31.56-31.15,62.05-50.51,91.76-1.56,2.4-1.13,5.58,1.02,7.47,35.36,30.99,59.91,60.05,42.41,78.08-21.05,21.68-52.39-62.7-86.21-23.02-.13.15-.25.31-.36.47-2.07,2.96-4.13,5.9-6.18,8.83-.12.17-.23.35-.34.54-7.96,14.17-8.55,29.13-6.67,44.64.45,3.72,4.32,6.02,7.81,4.64,17.24-6.81,34.9-10.68,52.73-9.41,26.67,1.9,49.88,15.25,65.36,37.58,12.38,17.86,18.53,38.74,18.27,62.06-.19,16.86-3.7,34.68-10.75,54.48-9.62,27.03-24.74,54.32-39.12,79.19,2.03,6.58,2.99,9.67,5.02,16.25,14.11,6.48,25.78,18.12,33.43,33.81,3.04,6.24,5.22,12.46,6.71,18.66,2.21,9.19,12.01,14.04,20.75,10.43,4.35-1.8,9.88-2.79,17.36-2.47,17.39.73,38.1,10.46,59.94,20.87,1,.48,2.12.65,3.22.51,7.05-.91,14.04-1.39,20.92-1.39h0s-6.05.04-6.05.04l6.05-.04c1.41-.01,1.92,0,4.24.06,5.87.16,11.71.65,17.4,1.47,5.16.74,9.7,1.89,13.34,2.81,1.25.32,2.81.71,3.96.96.68.15,1.37.23,2.06.23,0,0,0,0,.01,0,1.23,0,2.61-.05,4.07-.1,1.77-.06,3.78-.13,5.93-.13,9.01,0,21.69,1.15,35.34,9.54,2.06,1.26,4.69,1.06,6.59-.43,3.3-2.58,6.51-5.62,9.61-9.16,53.73-61.21-62.87-103.67-44.65-127.4,18.22-23.73,86.9,39.31,134.71,31.41,47.81-7.9,21.37-53.42,78.49-6.19,57.11,47.23,169-53.05,99.09-103.31-69.92-50.26-99.12-55.2-88.15-66.15,10.97-10.96,231.04,8.31,271.46-110.73,40.42-119.05-113.9-104.33-115.2-124.32-1.31-19.98,171.35-72.68,148.08-147.9ZM1642.08,690.23c4.93-.71,9.51,2.74,10.22,7.68.34,2.4-.27,4.78-1.73,6.72-1.45,1.93-3.57,3.18-5.96,3.51-78.41,11.12-181.89,15.62-274.26-13.31-24.7-7.73-48.59-17.86-71.01-30.89-2.7-1.57-6.15-.68-7.78,1.98-28.2,46-53.01,84.47-77.75,120.57-.08.16-.16.3-.26.43-.11.16-.23.3-.35.44-40.44,58.95-80.9,111.7-123.71,161.25-2.41,2.79-6.18,3.77-9.54,2.72-.82-.26-1.62-.64-2.37-1.15-.28-.19-.55-.4-.81-.62-1.86-1.61-2.97-3.81-3.14-6.22-.17-2.41.6-4.74,2.19-6.57,39.64-45.89,77.2-94.47,114.66-148.31,1.74-2.5,1.22-5.91-1.16-7.8-52.65-41.81-116.63-130.57-142.39-198.45-.86-2.25-.79-4.71.2-6.91.99-2.21,2.78-3.89,5.04-4.75,2.26-.86,4.72-.79,6.92.21,2.2.99,3.89,2.78,4.75,5.05,24.55,64.7,85.01,149.02,135.02,189.36,2.63,2.12,6.52,1.57,8.42-1.24,45.13-66.81,84.71-133.12,119.89-192.33,1.49-2.5.86-5.7-1.44-7.49-104.02-81.09-174.25-207.7-196.35-274.16-1.57-4.74,1-9.87,5.73-11.44,2.28-.76,4.73-.59,6.88.48,2.17,1.08,3.79,2.94,4.56,5.25,21.15,63.58,88.1,184.59,187.32,263.26,2.74,2.17,6.75,1.44,8.54-1.56,48.8-82.11,99.49-166.76,160.8-248.56,2.97-3.97,8.65-4.79,12.66-1.82,4,3.01,4.8,8.69,1.81,12.67-21.7,28.95-43.36,60.01-66.05,94.72-1.87,2.86-.85,6.74,2.2,8.28,40.36,20.47,88.65,28.12,137,21.56,2.4-.32,4.78.31,6.7,1.77,1.92,1.46,3.16,3.59,3.48,5.98.32,2.39-.3,4.77-1.77,6.69-1.46,1.92-3.59,3.16-5.98,3.49-53.05,7.2-106.1-1.59-150.27-24.74-2.65-1.39-5.91-.52-7.52,2-29.41,46.22-57.76,93.95-85.22,140.18l-.06.1c-.29.76-.65,1.43-1.08,2.03-.15.21-.29.36-.43.5-13.92,23.45-27.62,46.47-41.74,69.83-1.67,2.76-.75,6.36,2.05,7.98,101.73,58.82,236.73,55.26,333.09,41.6Z"/>
</svg>